<svg xmlns="http://www.w3.org/2000/svg" viewBox="0 0 23.44 17.58"><title>diamond</title><g opacity="0.5"><path d="M5.38,1.81a0.92,0.92,0,0,1,.77-0.42H21a0.89,0.89,0,0,1,.8.48l3.35,5.39A0.82,0.82,0,0,1,25,8.31L14.23,18.71a0.93,0.93,0,0,1-1.28,0v0L2.14,8.31A0.85,0.85,0,0,1,2,7.2ZM8.66,7.18L6.38,3.59,4.15,7.18H8.66Zm9.87,0H23L20.82,3.59Zm-0.58,1-2.7,7.07L22.6,8.22H17.95Zm-8.7,0H4.59l7.35,7.07Zm5.63-5.1,2.66,3.63,2.3-3.63h-5Zm-7.54,0L9.66,6.75,12.3,3.12h-5Zm9.2,4.06-3-4-2.93,4h5.88Zm-6.15,1,3.2,8.37,3.2-8.37h-6.4Z" transform="translate(-1.88 -1.39)"/></g></svg>