<svg xmlns="http://www.w3.org/2000/svg" viewBox="0 0 10.37 24.04"><title>person</title><path d="M4.27,3a5.4,5.4,0,0,0,.34,2.26,2.22,2.22,0,0,0,1.4,1,1.83,1.83,0,0,0,.66,0,2.23,2.23,0,0,0,1.4-1A5.41,5.41,0,0,0,8.41,3,1.86,1.86,0,0,0,6.34,1.5,1.85,1.85,0,0,0,4.27,3h0ZM9.05,14l0-3.9c0-.36.15-0.32,0.2,0l0.6,2.5v0.3L9.53,16.73c0,0.2.06,0.25,0.28,0.29s1.1,0,1.16-.35c0.23-1,.4-2.87.54-3.9a2.39,2.39,0,0,0,0-.6,22.61,22.61,0,0,0-.61-2.87,3.13,3.13,0,0,0-.4-1.13c-1.4-2-6.9-2-8.3,0a2.89,2.89,0,0,0-.4,1.13,22.41,22.41,0,0,0-.61,2.88,2.79,2.79,0,0,0,0,.58c0.15,1,.32,2.88.55,3.9,0.06,0.4.86,0.4,1.16,0.36s0.3-.09.28-0.3L2.87,12.84v-0.3L3.47,10c0-.3.2-0.34,0.2,0l0,3.9L4,25.21c0,0.38,2.07.54,2.06-.1L6.19,16.4c0-.32.29-0.32,0.3,0l0.15,8.7c0,0.65,2,.49,2.07.1Z" transform="translate(-1.15 -1.5)" fill="#a4a4a4"/></svg>