<svg xmlns="http://www.w3.org/2000/svg" viewBox="0 0 22 21"><title>view2</title><path d="M1,6V1H7V6H1Z" transform="translate(-1 -1)" fill="#d6d2d1"/><path d="M9,6V1h6V6H9Z" transform="translate(-1 -1)" fill="#d6d2d1"/><path d="M17,6V1h6V6H17Z" transform="translate(-1 -1)" fill="#d6d2d1"/><path d="M1,14V9H7v5H1Z" transform="translate(-1 -1)" fill="#d6d2d1"/><path d="M9,14V9h6v5H9Z" transform="translate(-1 -1)" fill="#d6d2d1"/><path d="M17,14V9h6v5H17Z" transform="translate(-1 -1)" fill="#d6d2d1"/><path d="M1,22V17H7v5H1Z" transform="translate(-1 -1)" fill="#d6d2d1"/><path d="M9,22V17h6v5H9Z" transform="translate(-1 -1)" fill="#d6d2d1"/><path d="M17,22V17h6v5H17Z" transform="translate(-1 -1)" fill="#d6d2d1"/></svg>