<svg xmlns="http://www.w3.org/2000/svg"><defs><clipPath id="a" transform="translate(-1.58 -1.02)"/></defs><symbol id="icon_accordion_arrow" viewBox="0 0 9.28 6.58"><path d="M0 1.32V0l4.52 5.27L9.29 0v1.32l-4.7 5.27L0 1.32" transform="translate(-.01 -.01)" opacity=".4" style="isolation:isolate"/></symbol><symbol id="icon_arrow" viewBox="0 0 5 10"><path d="M4 1L1 4.87 4 9" stroke-linecap="round" stroke-linejoin="round" stroke-width="2" style="isolation:isolate"/></symbol><symbol id="icon_arrow_down" viewBox="0 0 8.2 3.16"><path d="M.92 1.6l3.61 2.16L8.12 1.6" transform="translate(-.42 -1.1)" fill-opacity="0" stroke-linecap="round" stroke-linejoin="round"/></symbol><symbol id="icon_check" viewBox="0 0 15.28 11.78"><g clip-path="url(#a)"><path d="M.71 4.78l5.52 5.53L14.52.65" stroke-miterlimit="50" stroke-width="2"/></g></symbol><symbol id="icon_comment_arrow" viewBox="0 0 38 17"><path d="M1.5 1.5l18.56 14 16.44-14" stroke-linecap="round" stroke-linejoin="round" stroke-width="3" style="isolation:isolate"/></symbol><symbol id="icon_diamond" viewBox="0 0 23.44 17.58"><path d="M5.38 1.81a.92.92 0 0 1 .77-.42H21a.89.89 0 0 1 .8.48l3.35 5.39A.82.82 0 0 1 25 8.31l-10.77 10.4a.93.93 0 0 1-1.28 0L2.14 8.31A.85.85 0 0 1 2 7.2zm3.28 5.37L6.38 3.59 4.15 7.18h4.51zm9.87 0H23l-2.18-3.59zm-.58 1l-2.7 7.07 7.35-7.03h-4.65zm-8.7 0H4.59l7.35 7.07zm5.63-5.1l2.66 3.63 2.3-3.63h-5zm-7.54 0l2.32 3.67 2.64-3.63h-5zm9.2 4.06l-3-4-2.93 4h5.88zm-6.15 1l3.2 8.37 3.2-8.37h-6.4z" transform="translate(-1.88 -1.39)" opacity=".5"/></symbol><symbol id="icon_file_arrow" viewBox="0 0 15.22 17"><path d="M8 2.5a1.5 1.5 0 0 1 3 0v13a1.5 1.5 0 0 1-3 0v-13z" transform="translate(-1.89 -1)"/><path d="M3.5 10l5.82 5 6.18-5c.83 0 2 .82 1.5 1.5s-.58.44-1.5 1.5l-6.26 5-5.74-5A6.66 6.66 0 0 1 2 11.5c-.46-.69.67-1.5 1.5-1.5z" transform="translate(-1.89 -1)"/></symbol><symbol id="icon_pagination_arrow" viewBox="0 0 6.16 12.64"><path d="M.5.49L5.66 6.3.5 12.13" transform="translate(0 .01)" stroke-linecap="round" stroke-linejoin="round"/></symbol><symbol id="icon_person" viewBox="0 0 10.37 24.04"><path d="M4.27 3a5.4 5.4 0 0 0 .34 2.26 2.22 2.22 0 0 0 1.4 1 1.83 1.83 0 0 0 .66 0 2.23 2.23 0 0 0 1.4-1A5.41 5.41 0 0 0 8.41 3a1.86 1.86 0 0 0-2.07-1.5A1.85 1.85 0 0 0 4.27 3zm4.78 11v-3.9c0-.36.15-.32.2 0l.6 2.5v.3l-.32 3.83c0 .2.06.25.28.29s1.1 0 1.16-.35c.23-1 .4-2.87.54-3.9a2.39 2.39 0 0 0 0-.6 22.61 22.61 0 0 0-.61-2.87 3.13 3.13 0 0 0-.4-1.13c-1.4-2-6.9-2-8.3 0a2.89 2.89 0 0 0-.4 1.13 22.41 22.41 0 0 0-.61 2.88 2.79 2.79 0 0 0 0 .58c.15 1 .32 2.88.55 3.9.06.4.86.4 1.16.36s.3-.09.28-.3l-.31-3.88v-.3l.6-2.54c0-.3.2-.34.2 0v3.9L4 25.21c0 .38 2.07.54 2.06-.1l.13-8.71c0-.32.29-.32.3 0l.15 8.7c0 .65 2 .49 2.07.1z" transform="translate(-1.15 -1.5)"/></symbol><symbol id="icon_plus" viewBox="0 0 10 10"><path d="M4 10V0h2v10H4z"/><path d="M0 6V4h10v2H0z"/></symbol><symbol id="icon_refresh" viewBox="0 0 612.035 612.035"><path d="M323.128 56.236l5.646-9.57 40.17-40.169C271.247-13.921 165.482 13.786 89.65 89.646-16.421 195.717-28.355 360.261 53.875 479.49L10.98 522.386l137.7 19.667-19.667-137.7-34.968 34.967c-60.978-96.724-49.322-226.078 34.94-310.34 53.244-53.243 124.486-77.501 194.143-72.744zm258.264 13.743l-137.7-19.667 19.668 137.7 38.25-38.25c78.726 98.31 72.521 242.186-18.583 333.317-61.116 61.117-145.989 84.039-224.882 68.739l-45.65 45.649c105.654 33.799 226.05 8.791 309.895-75.054 112.858-112.858 119.146-291.979 18.805-412.209l40.197-40.225z"/></symbol><symbol id="icon_star" viewBox="0 0 21.57 18.63"><path d="M11.4.11L14.95 6l7.23 1.26-5 4.88.91 6.63-6.69-2.87-6.67 2.84.92-6.63-5-4.88L7.84 6 11.4.11" transform="translate(-.61 -.11)"/></symbol><symbol id="icon_view1" viewBox="0 0 22 21"><path d="M2 14V9h22v5H2zm0-8V1h22v5H2zm0 16v-5h22v5H2z" transform="translate(-2 -1)"/></symbol><symbol id="icon_view2" viewBox="0 0 22 21"><path d="M1 6V1h6v5H1zm8 0V1h6v5H9zm8 0V1h6v5h-6zM1 14V9h6v5H1zm8 0V9h6v5H9zm8 0V9h6v5h-6zM1 22v-5h6v5H1zm8 0v-5h6v5H9zm8 0v-5h6v5h-6z" transform="translate(-1 -1)"/></symbol></svg>