<svg xmlns="http://www.w3.org/2000/svg"><symbol id="icon_arrow_down" viewBox="0 0 8.2 3.16"><path d="M.92 1.6l3.61 2.16L8.12 1.6" transform="translate(-.42 -1.1)" fill-opacity="0" stroke-linecap="round" stroke-linejoin="round"/></symbol><symbol id="icon_plus" viewBox="0 0 10 10"><path d="M4 10V0h2v10H4z"/><path d="M0 6V4h10v2H0z"/></symbol><symbol id="icon_refresh" viewBox="0 0 612.035 612.035"><path d="M323.128 56.236l5.646-9.57 40.17-40.169C271.247-13.921 165.482 13.786 89.65 89.646-16.421 195.717-28.355 360.261 53.875 479.49L10.98 522.386l137.7 19.667-19.667-137.7-34.968 34.967c-60.978-96.724-49.322-226.078 34.94-310.34 53.244-53.243 124.486-77.501 194.143-72.744zm258.264 13.743l-137.7-19.667 19.668 137.7 38.25-38.25c78.726 98.31 72.521 242.186-18.583 333.317-61.116 61.117-145.989 84.039-224.882 68.739l-45.65 45.649c105.654 33.799 226.05 8.791 309.895-75.054 112.858-112.858 119.146-291.979 18.805-412.209l40.197-40.225z"/></symbol><symbol id="icon_star" viewBox="0 0 21.57 18.63"><path d="M11.4.11L14.95 6l7.23 1.26-5 4.88.91 6.63-6.69-2.87-6.67 2.84.92-6.63-5-4.88L7.84 6 11.4.11" transform="translate(-.61 -.11)"/></symbol></svg>