<svg xmlns="http://www.w3.org/2000/svg" viewBox="0 0 81.25 84.71"><title>type2</title><path d="M65.01 78.25H16.24a4.83 4.83 0 0 1-4.83-4.83v-38.5a4.83 4.83 0 0 1 4.83-4.83h48.78a4.83 4.83 0 0 1 4.83 4.83v38.51a4.83 4.83 0 0 1-4.84 4.82zM16.24 31.34a3.58 3.58 0 0 0-3.58 3.58v38.51a3.58 3.58 0 0 0 3.58 3.58h48.78a3.58 3.58 0 0 0 3.58-3.58V34.92a3.58 3.58 0 0 0-3.58-3.58H16.24z" fill="#101212"/><path d="M77.09 84.71H4.16A4.16 4.16 0 0 1 0 80.55V17.76a3.12 3.12 0 0 1 3.12-3.12h75a3.12 3.12 0 0 1 3.13 3.12v62.82a4.16 4.16 0 0 1-4.16 4.13zm-74-68.85a1.87 1.87 0 0 0-1.84 1.9v62.82a2.91 2.91 0 0 0 2.91 2.91h72.93A2.91 2.91 0 0 0 80 80.58V17.76a1.87 1.87 0 0 0-1.87-1.87h-75z" fill="#101212"/><path d="M3.7 14.97a.62.62 0 0 1-.62-.62c0-3.73 4.87-6.65 11.08-6.65.48 0 1 0 1.42.05a13.37 13.37 0 0 1 7.79 2.88.627.627 0 0 1-.84.93 12.12 12.12 0 0 0-7-2.56H14.2c-5.33 0-9.83 2.48-9.83 5.4a.62.62 0 0 1-.67.57z" fill="#101212"/><path d="M42.19 14.97a.62.62 0 0 1-.62-.62 3.2 3.2 0 0 0-.39-1.5 4.94 4.94 0 0 0-1.05-1.29 12.13 12.13 0 0 0-7-2.56c-.44 0-.9-.06-1.35-.06-3.45 0-6.57 1-8.38 2.61a4.71 4.71 0 0 0-1 1.15 3.13 3.13 0 0 0-.48 1.64.63.63 0 0 1-1.25 0 4.35 4.35 0 0 1 .66-2.28 5.89 5.89 0 0 1 1.21-1.44c2-1.83 5.46-2.92 9.17-2.93.53 0 1 0 1.49.06a13.36 13.36 0 0 1 7.75 2.87 6.21 6.21 0 0 1 1.32 1.63 4.45 4.45 0 0 1 .54 2.09.62.62 0 0 1-.62.63zm7.17-7.66h-.19a.63.63 0 0 1-.41-.78 2.28 2.28 0 0 0 .1-.7 2.86 2.86 0 0 0-.72-1.82c-1.36-1.66-4.35-2.73-7.61-2.73s-6.26 1.07-7.61 2.73a2.84 2.84 0 0 0-.72 1.82 2.29 2.29 0 0 0 .1.7.63.63 0 0 1-1.19.38 3.58 3.58 0 0 1-.16-1.08 4 4 0 0 1 1-2.61c1.6-2 4.89-3.19 8.58-3.19s7 1.22 8.58 3.19a4.07 4.07 0 0 1 1 2.61 3.57 3.57 0 0 1-.16 1.08.63.63 0 0 1-.59.4z" fill="#101212"/><path d="M15.53 7.36a.63.63 0 0 1-.6-.43 3.69 3.69 0 0 1-.17-1.17c0-3.25 4.21-5.8 9.59-5.8 3.68 0 7 1.22 8.58 3.19a.637.637 0 1 1-1 .79c-1.36-1.66-4.35-2.73-7.61-2.73-4.52 0-8.34 2.08-8.34 4.55a2.45 2.45 0 0 0 .1.7.62.62 0 0 1-.55.9zm50.01 0a.63.63 0 0 1-.58-.88 2.44 2.44 0 0 0 .1-.69c0-2.47-3.81-4.55-8.33-4.55-3.27 0-6.26 1.07-7.61 2.73a.637.637 0 1 1-1-.79c1.61-2 4.9-3.19 8.58-3.19 5.37 0 9.58 2.55 9.58 5.8a3.7 3.7 0 0 1-.18 1.13.63.63 0 0 1-.56.44zm-5.78 7.61a.62.62 0 0 1-.62-.62 3.12 3.12 0 0 0-.47-1.63 5 5 0 0 0-1-1.16c-1.81-1.63-4.93-2.6-8.35-2.61-.49 0-.94 0-1.38.06a12.08 12.08 0 0 0-7 2.56.627.627 0 0 1-.84-.93 13.32 13.32 0 0 1 7.77-2.88c.47 0 1-.06 1.46-.06 3.75 0 7.18 1.1 9.21 2.93a6.27 6.27 0 0 1 1.22 1.44 4.34 4.34 0 0 1 .65 2.28.62.62 0 0 1-.65.62z" fill="#101212"/><path d="M77.37 14.97a.62.62 0 0 1-.62-.62c0-2.93-4.5-5.4-9.82-5.4h-1.34a12.1 12.1 0 0 0-7 2.56.627.627 0 0 1-.84-.93 13.35 13.35 0 0 1 7.73-2.82c.48 0 .95-.05 1.44-.05 6.21 0 11.07 2.92 11.07 6.65a.62.62 0 0 1-.62.61zM43.7 76.83a.62.62 0 0 1-.62-.62 2.455 2.455 0 1 0-4.91 0 .63.63 0 0 1-1.25 0 3.705 3.705 0 1 1 7.41 0 .62.62 0 0 1-.63.62z" fill="#101212"/><path d="M47.44 76.83a.62.62 0 0 1-.62-.62 6.195 6.195 0 0 0-12.39 0 .625.625 0 1 1-1.25 0 7.445 7.445 0 0 1 14.89 0 .62.62 0 0 1-.63.62z" fill="#101212"/><path d="M51.87 76.83a.62.62 0 0 1-.62-.62 10.62 10.62 0 1 0-21.24 0 .63.63 0 0 1-1.25 0 11.87 11.87 0 1 1 23.74 0 .62.62 0 0 1-.63.62z" fill="#101212"/><path d="M29.38 76.83a.62.62 0 0 1-.62-.62 2.455 2.455 0 1 0-4.91 0 .63.63 0 0 1-1.25 0 3.705 3.705 0 1 1 7.41 0 .62.62 0 0 1-.63.62z" fill="#101212"/><path d="M19.49 76.83a.62.62 0 0 1-.62-.62 7.44 7.44 0 0 1 12.21-5.72.64.64 0 1 1-.8 1 6.19 6.19 0 0 0-10.16 4.76.62.62 0 0 1-.63.58z" fill="#101212"/><path d="M15.06 76.83a.62.62 0 0 1-.62-.62 11.88 11.88 0 0 1 19.43-9.16.637.637 0 0 1-.79 1 10.63 10.63 0 0 0-17.39 8.19.62.62 0 0 1-.63.59zm43.03 0a.62.62 0 0 1-.62-.62 2.455 2.455 0 1 0-4.91 0 .625.625 0 1 1-1.25 0 3.705 3.705 0 1 1 7.41 0 .62.62 0 0 1-.63.62z" fill="#101212"/><path d="M61.83 76.83a.62.62 0 0 1-.62-.62 6.19 6.19 0 0 0-10.2-4.72.643.643 0 1 1-.81-1 7.44 7.44 0 0 1 12.26 5.68.62.62 0 0 1-.63.66z" fill="#101212"/><path d="M66.25 76.83a.62.62 0 0 1-.62-.62 10.61 10.61 0 0 0-17.41-8.16.64.64 0 0 1-.8-1 11.86 11.86 0 0 1 19.46 9.12.62.62 0 0 1-.63.66zM22.76 43.62a.62.62 0 0 1-.54-.31l-5.67-9.6a.628.628 0 0 1 1.08-.64l5.67 9.6a.63.63 0 0 1-.54.95zm-2.57 5a.62.62 0 0 1-.44-.18l-5-5a.622.622 0 0 1 .88-.88l5 5a.63.63 0 0 1-.44 1.06zm38.3-5a.63.63 0 0 1-.55-.93l5.29-9.6a.63.63 0 1 1 1.09.6l-5.29 9.6a.62.62 0 0 1-.54.33zm2.57 5a.63.63 0 0 1-.44-1.07l5-5a.622.622 0 0 1 .88.88l-5 5a.62.62 0 0 1-.44.19zM35.94 64.7a.62.62 0 0 1-.51-.26 15.65 15.65 0 0 1-2.56-5.76 13.18 13.18 0 0 1 1-8.62l.07-.15c.36-.76.76-1.51 1.17-2.27a32.19 32.19 0 0 0 1.81-3.78 16.18 16.18 0 0 0 .67-9.45.623.623 0 0 1 1.21-.3 17.44 17.44 0 0 1-.72 10.19 33.11 33.11 0 0 1-1.88 3.93c-.39.74-.79 1.48-1.15 2.23l-.06.13a11.81 11.81 0 0 0-.95 7.83 14.41 14.41 0 0 0 2.36 5.3.62.62 0 0 1-.46.98z" fill="#101212"/><path d="M44.82 62.54a.62.62 0 0 1-.56-.89c1.43-3 2.73-6.36 2.51-10.12a19.45 19.45 0 0 0-3.28-9 49.51 49.51 0 0 0-3.14-4.37c-.89-1.15-1.81-2.34-2.64-3.58a.62.62 0 1 1 1-.69c.8 1.2 1.71 2.37 2.58 3.51a50.48 50.48 0 0 1 3.22 4.49 20.58 20.58 0 0 1 3.46 9.57c.23 4-1.13 7.54-2.63 10.72a.62.62 0 0 1-.52.36z" fill="#101212"/><path d="M47.33 51.41a.62.62 0 0 1-.51-1l.42-.61c.75-1.09 1.53-2.22 2.19-3.37a14.88 14.88 0 0 0 2.21-6.89.64.64 0 0 1 .64-.61.63.63 0 0 1 .61.64 16.07 16.07 0 0 1-2.37 7.47c-.68 1.21-1.48 2.36-2.25 3.47l-.42.61a.63.63 0 0 1-.52.29z" fill="#101212"/><path d="M55.76 65.62a.63.63 0 0 1-.56-.91 19.3 19.3 0 0 0 1.15-13 31.26 31.26 0 0 0-2.41-6.23 36.06 36.06 0 0 1-2.27-5.72.63.63 0 1 1 1.21-.33 35.1 35.1 0 0 0 2.25 5.58 32.21 32.21 0 0 1 2.5 6.48 20.54 20.54 0 0 1-1.25 13.81.62.62 0 0 1-.62.32zm-31-1.4a.62.62 0 0 1-.56-.36 12.59 12.59 0 0 1-.06-10.37c.52-1.1 1.11-2.21 1.69-3.29 1.82-3.41 3.7-6.94 3.71-10.74a.63.63 0 0 1 1.25 0c0 4.11-2 7.77-3.85 11.32-.59 1.12-1.16 2.17-1.66 3.24a11.29 11.29 0 0 0 .06 9.3.63.63 0 0 1-.58.9z" fill="#101212"/><path d="M34.47 50.94a.62.62 0 0 1-.54-.31l-.28-.48a28.78 28.78 0 0 1-1.48-2.71 33.51 33.51 0 0 1-2.67-7.87.63.63 0 1 1 1.23-.22 32.35 32.35 0 0 0 2.58 7.57 27.46 27.46 0 0 0 1.45 2.59l.28.48a.62.62 0 0 1-.57.95z" fill="#101212"/></svg>