<svg xmlns="http://www.w3.org/2000/svg" viewBox="0 0 81.25 81.25"><title>type10</title><path d="M28.44 81.25H6.76a6.79 6.79 0 0 1-6.78-6.78V6.78A6.79 6.79 0 0 1 6.76 0h21.66a6.79 6.79 0 0 1 6.78 6.78v67.71a6.79 6.79 0 0 1-6.76 6.76zm-21.66-80a5.54 5.54 0 0 0-5.53 5.53v67.71a5.54 5.54 0 0 0 5.53 5.53h21.66a5.54 5.54 0 0 0 5.53-5.53V6.78a5.54 5.54 0 0 0-5.53-5.53H6.76zm67.71 80H47.76A6.76 6.76 0 0 1 41 74.49V6.76A6.76 6.76 0 0 1 47.76 0h26.76a6.76 6.76 0 0 1 6.76 6.76v67.73a6.76 6.76 0 0 1-6.79 6.76zm-26.76-80a5.51 5.51 0 0 0-5.51 5.51v67.73A5.51 5.51 0 0 0 47.73 80h26.76A5.51 5.51 0 0 0 80 74.49V6.76a5.51 5.51 0 0 0-5.51-5.51H47.76z" fill="#101212"/><path d="M19.68 41.25a.62.62 0 0 1-.5-1l3.78-5.16V5.31h-5.35a.63.63 0 0 1 0-1.25h6a.62.62 0 0 1 .63.63V35.3a.63.63 0 0 1-.12.37L20.22 41a.63.63 0 0 1-.54.25z" fill="#101212"/><path d="M15.53 41.25a.62.62 0 0 1-.5-.26l-3.9-5.33a.63.63 0 0 1-.12-.37V4.68a.62.62 0 0 1 .63-.62h6a.63.63 0 0 1 0 1.25h-5.38v29.78l3.78 5.16a.62.62 0 0 1-.51 1z" fill="#101212"/><path d="M17.61 77.19h-6a.62.62 0 0 1-.62-.62V45.95a.63.63 0 0 1 .12-.37l3.9-5.33a.63.63 0 1 1 1 .74l-3.78 5.16v29.78h5.35a.63.63 0 0 1 .03 1.26z" fill="#101212"/><path d="M23.58 77.19h-6a.63.63 0 1 1 0-1.25h5.35V46.16L19.15 41a.63.63 0 1 1 1-.74l3.9 5.33a.63.63 0 0 1 .12.37v30.61a.62.62 0 0 1-.59.62zm7.79-71.88h-5a.63.63 0 0 1 0-1.25h5a.63.63 0 0 1 0 1.25zm0 4.37h-5a.63.63 0 0 1 0-1.25h5a.63.63 0 0 1 0 1.25zm0 4.38h-5a.63.63 0 0 1 0-1.25h5a.63.63 0 0 1 0 1.25zm0 4.37h-5a.63.63 0 0 1 0-1.25h5a.63.63 0 0 1 0 1.25zm0 4.37h-5a.63.63 0 0 1 0-1.25h5a.63.63 0 0 1 0 1.25zm0 4.38h-5a.63.63 0 0 1 0-1.25h5a.63.63 0 0 1 0 1.25zm0 4.37h-5a.63.63 0 0 1 0-1.25h5a.63.63 0 0 1 0 1.25zm0 4.37h-5a.63.63 0 0 1 0-1.25h5a.63.63 0 0 1 0 1.25zM8.82 77.19h-5a.63.63 0 1 1 0-1.25h5a.63.63 0 0 1 0 1.25zm0-4.37h-5a.63.63 0 0 1 0-1.25h5a.63.63 0 1 1 0 1.25zm0-4.33h-5a.63.63 0 0 1 0-1.25h5a.63.63 0 1 1 0 1.25zm0-4.42h-5a.63.63 0 0 1 0-1.25h5a.63.63 0 1 1 0 1.25zm0-4.37h-5a.63.63 0 1 1 0-1.25h5a.63.63 0 0 1 0 1.25zm0-4.37h-5a.63.63 0 1 1 0-1.25h5a.63.63 0 0 1 0 1.25zm0-4.38h-5a.63.63 0 0 1 0-1.25h5a.63.63 0 1 1 0 1.25zm0-4.37h-5a.63.63 0 1 1 0-1.25h5a.63.63 0 0 1 0 1.25zm8.79-5.33a.62.62 0 0 1-.49-.24l-4.51-5.83a.62.62 0 0 1-.13-.38v-17a.62.62 0 0 1 .62-.62h8.94a.62.62 0 0 1 .63.63v17a.63.63 0 0 1-.13.38l-4.43 5.83a.6.6 0 0 1-.5.23zm-3.85-6.66l3.88 5 3.81-5V18.43h-7.69v16.16z" fill="#101212"/><path d="M22.04 75.81H13.1a.62.62 0 0 1-.62-.62v-7.37a.62.62 0 0 1 .33-.55l4.47-2.41a.62.62 0 0 1 .59 0l4.47 2.41a.62.62 0 0 1 .33.55v7.37a.62.62 0 0 1-.63.62zm-8.28-1.25h7.69v-6.37l-3.85-2.08-3.84 2.08v6.37zm47.36-37.24a16.78 16.78 0 1 1 16.77-16.83 16.8 16.8 0 0 1-16.77 16.83zm0-32.31a15.53 15.53 0 1 0 15.52 15.48A15.55 15.55 0 0 0 61.12 5.01z" fill="#101212"/><path d="M61.12 11.58a.62.62 0 0 1-.62-.62V6.29a.63.63 0 0 1 1.25 0v4.66a.62.62 0 0 1-.63.63zm-3.67.73a.63.63 0 0 1-.58-.39l-1.78-4.31a.63.63 0 1 1 1.16-.48l1.78 4.31a.62.62 0 0 1-.58.87zm-3.11 2.07a.62.62 0 0 1-.44-.18l-3.3-3.3a.622.622 0 1 1 .88-.88l3.3 3.3a.63.63 0 0 1-.44 1.06zm-2.08 3.11a.62.62 0 0 1-.24 0l-4.26-1.83a.63.63 0 0 1 .48-1.16l4.31 1.78a.63.63 0 0 1-.29 1.21zm-.73 3.67h-4.66a.63.63 0 1 1 0-1.25h4.66a.63.63 0 0 1 0 1.25zm-3.58 5.46a.63.63 0 0 1-.24-1.2l4.31-1.78a.63.63 0 0 1 .48 1.16l-4.31 1.78a.63.63 0 0 1-.24.04zm3.09 4.62a.63.63 0 0 1-.44-1.07l3.3-3.3a.622.622 0 1 1 .88.88l-3.3 3.3a.62.62 0 0 1-.44.19zm20.15 0a.62.62 0 0 1-.44-.18l-3.3-3.3a.622.622 0 1 1 .88-.88l3.3 3.3a.63.63 0 0 1-.44 1.06zm3.09-4.62a.63.63 0 0 1-.24 0l-4.28-1.84a.63.63 0 1 1 .48-1.16l4.31 1.78a.63.63 0 0 1-.27 1.22zm1.09-5.46h-4.66a.63.63 0 0 1 0-1.25h4.66a.63.63 0 0 1 0 1.25zm-5.4-3.67a.63.63 0 0 1-.24-1.2l4.31-1.78a.63.63 0 1 1 .48 1.16l-4.31 1.82a.62.62 0 0 1-.24 0zm-2.07-3.11a.63.63 0 0 1-.44-1.07l3.3-3.3a.622.622 0 1 1 .88.88l-3.3 3.3a.62.62 0 0 1-.44.19zm-3.14-2.07a.62.62 0 0 1-.58-.86l1.78-4.31a.63.63 0 1 1 1.16.48l-1.78 4.31a.63.63 0 0 1-.58.38zm-3.64 10.01a1.78 1.78 0 1 1 1.79-1.78 1.79 1.79 0 0 1-1.79 1.78zm0-2.32a.53.53 0 1 0 .54.54.54.54 0 0 0-.54-.54z" fill="#101212"/><path d="M63.49 24.79a.62.62 0 0 1-.52-.28L56.4 14.43a.62.62 0 0 1 1-.68l6.57 10.08a.63.63 0 0 1-.48.96zm-2.37 52.09A16.78 16.78 0 1 1 77.9 60.1a16.8 16.8 0 0 1-16.78 16.78zm0-32.31A15.53 15.53 0 1 0 76.65 60.1a15.55 15.55 0 0 0-15.53-15.52z" fill="#101212"/><path d="M61.12 51.14a.62.62 0 0 1-.62-.62v-4.66a.625.625 0 1 1 1.25 0v4.63a.62.62 0 0 1-.63.65zm-3.67.73a.63.63 0 0 1-.58-.39l-1.78-4.31a.63.63 0 1 1 1.16-.48L58.03 51a.62.62 0 0 1-.58.87zm-3.11 2.08a.62.62 0 0 1-.44-.18l-3.3-3.3a.622.622 0 1 1 .88-.88l3.3 3.3a.62.62 0 0 1-.44 1.06zm-2.08 3.11a.62.62 0 0 1-.24 0l-4.26-1.83a.63.63 0 1 1 .48-1.16l4.31 1.78a.63.63 0 0 1-.29 1.21zm-.73 3.67h-4.66a.63.63 0 1 1 0-1.25h4.66a.63.63 0 1 1 0 1.25zm-3.58 5.45a.63.63 0 0 1-.24-1.2l4.31-1.78a.63.63 0 0 1 .48 1.16l-4.31 1.78a.63.63 0 0 1-.24.04zm3.09 4.63a.63.63 0 0 1-.44-1.07l3.3-3.3a.622.622 0 1 1 .88.88l-3.3 3.3a.62.62 0 0 1-.44.19zm20.15 0a.62.62 0 0 1-.44-.18l-3.3-3.3a.622.622 0 1 1 .88-.88l3.3 3.3a.63.63 0 0 1-.44 1.06zm3.09-4.63a.63.63 0 0 1-.24 0l-4.28-1.83a.63.63 0 0 1 .48-1.16l4.31 1.78a.63.63 0 0 1-.27 1.21zm1.09-5.45h-4.66a.63.63 0 0 1 0-1.25h4.66a.63.63 0 0 1 0 1.25zm-5.4-3.67a.63.63 0 0 1-.24-1.2l4.31-1.78a.63.63 0 1 1 .48 1.16l-4.31 1.78a.62.62 0 0 1-.24.04zm-2.07-3.11a.62.62 0 0 1-.44-1.07l3.3-3.3a.622.622 0 1 1 .88.88l-3.3 3.3a.62.62 0 0 1-.44.19zm-3.14-2.08a.62.62 0 0 1-.58-.86l1.78-4.31a.63.63 0 0 1 1.16.48l-1.76 4.31a.63.63 0 0 1-.6.38zm-3.64 10.02a1.78 1.78 0 1 1 1.79-1.78 1.79 1.79 0 0 1-1.79 1.78zm0-2.32a.53.53 0 1 0 .54.53.54.54 0 0 0-.54-.53z" fill="#101212"/><path d="M58.66 64.28a.62.62 0 0 1-.51-1l6.87-9.88a.63.63 0 0 1 1 .71l-6.87 9.88a.63.63 0 0 1-.49.29z" fill="#101212"/></svg>