<svg xmlns="http://www.w3.org/2000/svg" viewBox="0 0 81.24 80.77"><title>type9</title><path d="M25.68 44.49a.63.63 0 0 1-.62-.55 9.69 9.69 0 0 1 1.32-4.95c.56-1.12 1.29-2.37 2.06-3.69.4-.68.8-1.37 1.18-2a.63.63 0 0 1 1.09.61c-.39.69-.79 1.38-1.19 2.07-.76 1.3-1.48 2.53-2 3.62a11.11 11.11 0 0 0-1.15 3.46l5.53-1.7a42.24 42.24 0 0 1 6.32-1l.06.62v.63a41.7 41.7 0 0 0-6 1l-6.35 1.95zm6.46-22.11a.62.62 0 0 1-.62-.54c-.29-2.08-.54-3.88.22-5.49a.63.63 0 0 1 1.13.53c-.6 1.28-.39 2.82-.11 4.78a.63.63 0 0 1-.53.71h-.09z" fill="#101212"/><path d="M10.54 55.42a.62.62 0 0 1-.29-.07 4.06 4.06 0 0 1-.87-.58c-2.59-2.34-5.66-10.2 1.32-23.13a59.23 59.23 0 0 1 15.74-18.61 3.37 3.37 0 0 0 1.26-2.88 10 10 0 0 1 .44-3.53C29.61 1.86 34.2-.97 38.37.32s6.37 6.21 4.9 11a9.67 9.67 0 0 1-4.06 5.4 7.4 7.4 0 0 1-6.17.9 6.74 6.74 0 0 1-1-.41.626.626 0 0 1 .56-1.12 5.51 5.51 0 0 0 .83.33 6.17 6.17 0 0 0 5.13-.77 8.43 8.43 0 0 0 3.53-4.71c1.27-4.1-.56-8.32-4.07-9.4s-7.4 1.37-8.66 5.48a8.78 8.78 0 0 0-.39 3.09 4.62 4.62 0 0 1-1.75 3.95A58 58 0 0 0 11.8 32.25c-6.86 12.71-3.47 19.91-1.58 21.61a2.85 2.85 0 0 0 .6.4.63.63 0 0 1-.28 1.16zM59.26 75.6H48.31c-1.24 0-2.69-.45-2.69-1.7a3.08 3.08 0 0 1 .42-1.5 1.32 1.32 0 0 0-.01-1.15 66.38 66.38 0 0 1-3.28-11.1 42.37 42.37 0 0 1-.84-9.23 25.75 25.75 0 0 1-6 2.51c-2.69.83-5.34 1.51-7.86 2a.63.63 0 0 1-.25-1.22c2.49-.51 5.09-1.18 7.75-2 5.46-1.68 6.55-3 6.56-3a.64.64 0 0 1 .72-.21.62.62 0 0 1 .41.61 43.5 43.5 0 0 0 .79 10.23 64.08 64.08 0 0 0 3.19 10.85 2.57 2.57 0 0 1 0 2.31 1.92 1.92 0 0 0-.26.89 1.82 1.82 0 0 0 1.44.45h11a1 1 0 0 0 .16-.59 20 20 0 0 0-6.36-1.58 2.26 2.26 0 0 1-2.25-2.25c.13-3 .33-10.17-.59-14.1-.16-.68-.31-1.38-.47-2.08-.73-3.32-1.49-6.76-2.95-9.15a.63.63 0 1 1 1.07-.65c1.57 2.57 2.35 6.11 3.1 9.53.15.69.31 1.38.46 2.06.92 3.94.78 10.68.62 14.35a1 1 0 0 0 1 1c.69 0 7.62 1 7.62 2.65s-.87 1.93-1.24 2z" fill="#101212"/><path d="M52.91 49.68a1.66 1.66 0 0 1-1.39-.74v-.06a12.48 12.48 0 0 0-2.51-3 6 6 0 0 0-1.76-1c-.65-.22-1.33-.43-2-.64-1.1-.34-2.23-.69-3.19-1.07l-.52-.2a35.22 35.22 0 0 1-3.51-1.49 19.4 19.4 0 0 1-8-7c-.12-.18-.23-.38-.34-.58a17.53 17.53 0 0 1-1.88-4.65.63.63 0 1 1 1.22-.3 16.3 16.3 0 0 0 1.69 4.3 5.85 5.85 0 0 0 .3.51 18.17 18.17 0 0 0 7.47 6.57h.05a34 34 0 0 0 3.35 1.45l.53.2c.92.36 2 .71 3.11 1 .68.21 1.36.42 2 .64a7.21 7.21 0 0 1 2.18 1.24 13.71 13.71 0 0 1 2.79 3.3.44.44 0 0 0 .39.16.46.46 0 0 0 .38-.26 2.35 2.35 0 0 0-.28-2.3 16.76 16.76 0 0 0-4.09-4.41 24.4 24.4 0 0 0-3-2.09 36.6 36.6 0 0 0-6.2-2.81l-.51-.17a.62.62 0 0 1-.38-.32 23.1 23.1 0 0 0-1.24-2.19c-.76-1.21-1.31-2.09-2.48-6a11.81 11.81 0 0 0-3.35-5.52 3.51 3.51 0 0 0-2.14-.93.63.63 0 0 1 0-1.25 4.72 4.72 0 0 1 2.93 1.18 13.06 13.06 0 0 1 3.78 6.24c1.13 3.76 1.64 4.58 2.34 5.71.33.52.7 1.11 1.18 2.06l.3.1a37.88 37.88 0 0 1 6.43 2.89 25.59 25.59 0 0 1 3.2 2.2 17.73 17.73 0 0 1 4.4 4.77 3.6 3.6 0 0 1 .33 3.42 1.7 1.7 0 0 1-1.41 1h-.17zM10.95 67.92h-.86a3.65 3.65 0 0 1-3.65-3.67v-4.3a.62.62 0 0 1 .59-.6h6.91a.62.62 0 0 1 .62.63v4.27a3.65 3.65 0 0 1-3.61 3.67zM7.69 60.6v3.65a2.4 2.4 0 0 0 2.4 2.4h.86a2.4 2.4 0 0 0 2.4-2.4v-3.67H7.69zM68.23 8.9a.62.62 0 0 1-.62-.62V.64a.625.625 0 1 1 1.25 0v7.61a.62.62 0 0 1-.63.65zm0 34.26a.62.62 0 0 1-.62-.62v-5.9a.625.625 0 1 1 1.25 0v5.9a.62.62 0 0 1-.63.62zm10.45-5.91a.62.62 0 0 1-.62-.62v-36a.625.625 0 0 1 1.25 0v36a.62.62 0 0 1-.63.62zM58.79 6.83a.62.62 0 0 1-.62-.62V.63a.625.625 0 1 1 1.25 0v5.62a.62.62 0 0 1-.63.58zm0 49.42a.62.62 0 0 1-.62-.62V38.18a.625.625 0 1 1 1.25 0v17.45a.62.62 0 0 1-.63.62zm0 19.34a.62.62 0 0 1-.62-.62.63.63 0 1 1 .62.62zm-9.43-64.91a.62.62 0 0 1-.62-.62V.63a.63.63 0 0 1 1.25 0v9.43a.62.62 0 0 1-.63.62zm0 28.13a.62.62 0 0 1-.62-.62v-8a.63.63 0 0 1 1.25 0v8a.62.62 0 0 1-.63.62zm0 36.78a.62.62 0 0 1-.62-.62.63.63 0 1 1 .62.62z" fill="#101212"/><path d="M39.93 34.19a.62.62 0 0 1-.62-.62v-16a.625.625 0 1 1 1.25 0v16a.62.62 0 0 1-.63.62zM30.5 55.42a.62.62 0 0 1-.62-.62v-.55a.625.625 0 1 1 1.25 0v.58a.62.62 0 0 1-.63.59zm-9.47-38.88a.62.62 0 0 1-.62-.62V.63a.625.625 0 1 1 1.25 0v15.29a.62.62 0 0 1-.63.62zm-9.4 12.08a.62.62 0 0 1-.62-.62v-6.75a.625.625 0 1 1 1.25 0V28a.62.62 0 0 1-.63.62zM2.2 51.85a.62.62 0 0 1-.62-.62V24.72a.63.63 0 0 1 1.25 0v26.53a.62.62 0 0 1-.63.6z" fill="#101212"/><path d="M66.73 80.77H37.14a2.13 2.13 0 0 1-2.11-2.13V61.47a.88.88 0 0 0-.87-.87H3.7a2.13 2.13 0 0 1-2.12-2.12v-2.23a2.13 2.13 0 0 1 2.12-2.12h34.73a2.13 2.13 0 0 1 2.12 2.12v18h26.18a2.13 2.13 0 0 1 2.12 2.12v2.18a2.13 2.13 0 0 1-2.12 2.22zm-63-25.35a.88.88 0 0 0-.87.87v2.18a.88.88 0 0 0 .87.87h30.41a2.13 2.13 0 0 1 2.12 2.12v17.17a.88.88 0 0 0 .87.87h29.6a.88.88 0 0 0 .87-.87v-2.18a.88.88 0 0 0-.87-.87h-26.8a.62.62 0 0 1-.62-.62V56.25a.88.88 0 0 0-.87-.87H3.7zm57.86-18.17a9.1 9.1 0 0 1-9.09-9.09 7.41 7.41 0 0 1 7.4-7.4 6.05 6.05 0 0 1 6 6 5 5 0 0 1-5 5 .63.63 0 0 1 0-1.25 3.72 3.72 0 0 0 3.71-3.71 4.8 4.8 0 0 0-4.8-4.8 6.16 6.16 0 0 0-6.15 6.15 7.85 7.85 0 0 0 7.84 7.84 10 10 0 0 0 10-10 12.62 12.62 0 0 0-12.61-12.61 15.93 15.93 0 0 0-15.86 15.98.625.625 0 1 1-1.25 0 17.19 17.19 0 0 1 17.17-17.17 13.87 13.87 0 0 1 13.86 13.86 11.22 11.22 0 0 1-11.22 11.2zm9.15-23.7a.62.62 0 0 1-.43-.17 14.7 14.7 0 0 0-9.59-4.13 18.55 18.55 0 0 0-6.34.84A.63.63 0 0 1 54 8.9a19.83 19.83 0 0 1 6.77-.89 16 16 0 0 1 10.41 4.44.63.63 0 0 1-.44 1.1zm9.88 39.28a.63.63 0 0 1-.6-.44 7.94 7.94 0 0 0-8.58-5.83.63.63 0 1 1-.12-1.25 9.26 9.26 0 0 1 9.9 6.71.63.63 0 0 1-.42.78zM5.84 19.08h-.15C2.49 18.27-.76 13.8.17 9.93a.63.63 0 1 1 1.22.29c-.81 3.37 2.21 7 4.61 7.65a.63.63 0 0 1-.16 1.21zm60.7 51.02a13.08 13.08 0 0 1-7.89-2.64.63.63 0 0 1 .75-1 11.91 11.91 0 0 0 16.63-2.35 9.39 9.39 0 0 0-1.85-13.15 7.39 7.39 0 0 0-10.35 1.46 5.79 5.79 0 0 0 1.14 8.1 4.51 4.51 0 0 0 6.31-.89 3.48 3.48 0 0 0-.69-4.87 2.66 2.66 0 0 0-3.72.52.63.63 0 0 1-1-.75 3.91 3.91 0 0 1 5.47-.77 4.73 4.73 0 0 1 .93 6.62 5.75 5.75 0 0 1-8.06 1.14 7 7 0 0 1-1.39-9.85 8.64 8.64 0 0 1 12.1-1.71 10.64 10.64 0 0 1 2.1 14.9 13.13 13.13 0 0 1-10.48 5.24zM14.17 21.25a.62.62 0 0 1-.31-1.17 9 9 0 0 0 3.4-12.25 7.07 7.07 0 0 0-9.63-2.67 5.53 5.53 0 0 0-2.09 7.54 4.3 4.3 0 0 0 5.86 1.55 3.31 3.31 0 0 0 1.25-4.52 2.53 2.53 0 0 0-3.44-1 1.9 1.9 0 0 0-.72 2.58.627.627 0 1 1-1.09.62 3.15 3.15 0 0 1 1.19-4.29 3.78 3.78 0 0 1 5.15 1.43 4.56 4.56 0 0 1-1.71 6.31 5.55 5.55 0 0 1-7.56-2.1 6.78 6.78 0 0 1 2.56-9.23A8.32 8.32 0 0 1 18.37 7.2a10.24 10.24 0 0 1-3.88 14 .62.62 0 0 1-.32.05z" fill="#101212"/></svg>