<svg xmlns="http://www.w3.org/2000/svg" viewBox="0 0 81.25 82.04"><title>type16</title><path d="M.69 82.04a.63.63 0 0 1 0-1.25l79.9-.12a.63.63 0 0 1 0 1.25l-79.9.12z" fill="#101212"/><path d="M.69 82.04a.63.63 0 0 1-.62-.62c0-3.55 5.25-6.34 12-6.35h1.53a15.68 15.68 0 0 1 8.4 2.7.631.631 0 1 1-.77 1 14.43 14.43 0 0 0-7.7-2.44h-1.46c-5.81 0-10.71 2.34-10.71 5.1a.62.62 0 0 1-.62.63z" fill="#101212"/><path d="M19.76 82.01a.63.63 0 0 1-.62-.62 3.82 3.82 0 0 1 .72-2.21 5.85 5.85 0 0 1 1.32-1.37c2.18-1.72 5.88-2.76 9.88-2.77.55 0 1.1 0 1.61.05a15.67 15.67 0 0 1 8.36 2.69 6.12 6.12 0 0 1 1.43 1.55 3.89 3.89 0 0 1 .6 2 .62.62 0 0 1-.62.63.63.63 0 0 1-.62-.62 2.65 2.65 0 0 0-.42-1.37 4.88 4.88 0 0 0-1.14-1.22 14.45 14.45 0 0 0-7.68-2.43c-.48 0-1 0-1.48-.05-3.77 0-7.17.95-9.15 2.51a4.65 4.65 0 0 0-1.05 1.09 2.61 2.61 0 0 0-.51 1.51.62.62 0 0 1-.62.63zm11.29-7.15a.63.63 0 0 1-.59-.41 3.09 3.09 0 0 1-.18-1.05 3.68 3.68 0 0 1 1.11-2.53c1.73-1.85 5.26-3 9.23-3 3.95 0 7.47 1.14 9.21 3a3.66 3.66 0 0 1 1.1 2.52 3.08 3.08 0 0 1-.18 1.05.626.626 0 1 1-1.18-.42 1.81 1.81 0 0 0 .11-.63 2.46 2.46 0 0 0-.76-1.67c-1.48-1.58-4.74-2.59-8.3-2.59-3.58 0-6.84 1-8.32 2.62a2.44 2.44 0 0 0-.77 1.67 1.82 1.82 0 0 0 .11.63.63.63 0 0 1-.37.8.63.63 0 0 1-.22.01z" fill="#101212"/><path d="M13.51 74.93a.64.64 0 0 1-.59-.41 3.19 3.19 0 0 1-.2-1.1c0-3.1 4.54-5.53 10.34-5.54 3.95 0 7.47 1.14 9.21 3a.63.63 0 0 1-.91.86c-1.49-1.58-4.74-2.6-8.3-2.6-4.93 0-9.09 2-9.09 4.29a1.94 1.94 0 0 0 .1.62.62.62 0 0 1-.56.88zm54.24-.08a.63.63 0 0 1-.57-.9 1.92 1.92 0 0 0 .1-.61c0-2.32-4.16-4.26-9.09-4.26-3.58 0-6.84 1-8.32 2.62a.623.623 0 1 1-.91-.85c1.73-1.85 5.27-3 9.23-3 5.78 0 10.31 2.42 10.32 5.51a3.19 3.19 0 0 1-.2 1.1.62.62 0 0 1-.56.39zm-6.24 7.1a.63.63 0 0 1-.62-.62 2.6 2.6 0 0 0-.5-1.5 5 5 0 0 0-1.06-1.09c-2-1.55-5.39-2.48-9.13-2.48-.53 0-1 0-1.51.05a14.39 14.39 0 0 0-7.67 2.45.631.631 0 1 1-.77-1 15.62 15.62 0 0 1 8.35-2.72c.51 0 1-.06 1.57-.06 4 0 7.74 1 9.93 2.74a6.21 6.21 0 0 1 1.31 1.37 3.82 3.82 0 0 1 .72 2.2.62.62 0 0 1-.62.63z" fill="#101212"/><path d="M80.59 81.92a.63.63 0 0 1-.62-.62c0-1.26-1.09-2.53-3-3.48a17.06 17.06 0 0 0-7.73-1.59h-1.46a14.42 14.42 0 0 0-7.69 2.46.631.631 0 0 1-.77-1 15.65 15.65 0 0 1 8.37-2.72c.53 0 1 0 1.58-.05a18.83 18.83 0 0 1 8.26 1.73c2.36 1.19 3.67 2.82 3.67 4.59a.62.62 0 0 1-.62.63zM46.14 33.49a.62.62 0 0 1-.62-.62.62.62 0 0 1 .25-.5c3.87-2.91 5.78-6.81 4.43-9.07a3.69 3.69 0 0 0-2.4-1.61c-2.54-.64-6.17.19-9.48 2.16-4.1 2.44-6.79 6.09-6.54 8.86a.63.63 0 0 1-.57.68.62.62 0 0 1-.68-.57c-.3-3.29 2.57-7.32 7.14-10 3.58-2.14 7.57-3 10.43-2.3a5 5 0 0 1 3.17 2.18c1.7 2.85-.29 7.34-4.72 10.68a.62.62 0 0 1-.41.11z" fill="#101212"/><path d="M31.15 40.31a.63.63 0 0 1-.21 0 7.43 7.43 0 0 1-4-3.07 3.69 3.69 0 0 1-.23-.44 6.44 6.44 0 0 1-.6-3.25c.29-4.46 4.29-9.61 10.2-13.14 5.06-3 10.72-4.29 14.75-3.31.29.07.55.15.81.23a.63.63 0 1 1-.39 1.19c-.24-.08-.48-.14-.72-.21-3.72-.9-9 .31-13.81 3.17-5.48 3.27-9.34 8.15-9.59 12.14a5.23 5.23 0 0 0 .48 2.64 2.68 2.68 0 0 0 .17.32 6.2 6.2 0 0 0 3.39 2.54.63.63 0 0 1-.25 1.19zm15.07-2.49a.62.62 0 0 1-.54-.28.58.58 0 0 1 .16-.83l.1-.06c5.36-3.21 8.41-8.4 9.07-12.12a5.85 5.85 0 0 0-.19-3 3.76 3.76 0 0 0-.28-.62.625.625 0 0 1 1.09-.61 5 5 0 0 1 .37.82 7.08 7.08 0 0 1 .24 3.6c-.7 4-4 9.56-9.66 13a.71.71 0 0 1-.36.1z" fill="#101212"/><path d="M46.16 43.86a.62.62 0 0 1-.21-1.21 15.23 15.23 0 0 0 2.55-1.21c6.32-3.77 10.28-13.15 9.08-18.18a.63.63 0 0 1 1.22-.29c1.29 5.46-2.73 15.4-9.66 19.54a16.5 16.5 0 0 1-2.76 1.31.62.62 0 0 1-.22.04zm-15.01-1.85a.62.62 0 0 1-.36-.11 11.77 11.77 0 0 1-3.38-3.54 12.8 12.8 0 0 1-.88-1.86.623.623 0 1 1 1.17-.43 11.78 11.78 0 0 0 .78 1.65 10.52 10.52 0 0 0 3 3.16.63.63 0 0 1-.33 1.13z" fill="#101212"/><path d="M58.22 23.74a.62.62 0 0 1-.32-1.16L80.04 9.36V1.72l-28 16.72a.623.623 0 1 1-.64-1.07L80.4.09a.62.62 0 0 1 .95.53v9.09a.63.63 0 0 1-.3.54L58.5 23.61a.62.62 0 0 1-.28.13z" fill="#101212"/><path d="M55.08 21.27a.62.62 0 0 1-.32-1.16L80.3 4.92a.623.623 0 1 1 .64 1.07L55.4 21.18a.62.62 0 0 1-.32.09zm-8.86 46.74a.63.63 0 0 1-.62-.62l-.05-34.53a.62.62 0 0 1 .62-.63.63.63 0 0 1 .63.62l.05 34.53a.62.62 0 0 1-.62.63zm-15 1.11a.63.63 0 0 1-.62-.62l-.05-35.61a.62.62 0 0 1 .62-.63.63.63 0 0 1 .63.62l.05 35.61a.62.62 0 0 1-.62.63z" fill="#101212"/><path d="M31.13 33.52a.64.64 0 0 1-.62-.64c0-.87 1-1.62 2.85-2.23a20.65 20.65 0 0 1 5.89-.85 14.44 14.44 0 0 1 5.33.84c1.41.57 2.19 1.35 2.19 2.21a.63.63 0 0 1-.62.63.62.62 0 0 1-.62-.62c0-.13-.26-.59-1.41-1.06a13.5 13.5 0 0 0-4.85-.75c-4.28 0-7.31 1.29-7.5 1.85a.61.61 0 0 1-.62.61zM22.15 61.7a.62.62 0 0 1-.53-1 13.47 13.47 0 0 0-4.49-18.51 10.66 10.66 0 0 0-14.64 3.55 8.4 8.4 0 0 0 2.8 11.54 6.59 6.59 0 0 0 9.06-2.19 5.15 5.15 0 0 0-1.71-7.08 4 4 0 0 0-5.49 1.33 3.07 3.07 0 0 0 1 4.22.626.626 0 1 1-.65 1.07 4.32 4.32 0 0 1-1.44-5.94 5.24 5.24 0 0 1 7.21-1.75 6.4 6.4 0 0 1 2.13 8.79 7.84 7.84 0 0 1-10.78 2.61 9.65 9.65 0 0 1-3.21-13.26 11.91 11.91 0 0 1 16.36-4 14.72 14.72 0 0 1 4.9 20.23.62.62 0 0 1-.52.39z" fill="#101212"/><path d="M.63 42.76a.63.63 0 0 1-.53-1 13.29 13.29 0 0 1 18.24-4.42.626.626 0 0 1-.65 1.07 12 12 0 0 0-16.52 4 .62.62 0 0 1-.54.35zm58.43 18.85a.63.63 0 0 1-.53-.3 14.72 14.72 0 0 1 4.84-20.25 11.9 11.9 0 0 1 16.37 3.91 9.65 9.65 0 0 1-3.17 13.27 7.85 7.85 0 0 1-10.79-2.58 6.41 6.41 0 0 1 2.1-8.8 5.25 5.25 0 0 1 7.21 1.73 4.32 4.32 0 0 1-1.42 5.94.63.63 0 1 1-.65-1.07 3.07 3.07 0 0 0 1-4.22 4 4 0 0 0-5.49-1.31 5.15 5.15 0 0 0-1.69 7.08 6.6 6.6 0 0 0 9.07 2.17 8.4 8.4 0 0 0 2.76-11.55 10.65 10.65 0 0 0-14.65-3.5 13.47 13.47 0 0 0-4.43 18.53.62.62 0 0 1-.53.95z" fill="#101212"/><path d="M80.53 42.61a.63.63 0 0 1-.53-.3 12 12 0 0 0-16.53-4 .63.63 0 0 1-.65-1.07 13.29 13.29 0 0 1 18.25 4.37.62.62 0 0 1-.54 1zm-36.87 23a.63.63 0 0 1-.62-.62V33.35a.62.62 0 0 1 .62-.63.63.63 0 0 1 .63.62v31.64a.62.62 0 0 1-.62.63z" fill="#101212"/></svg>