<svg xmlns="http://www.w3.org/2000/svg" viewBox="0 0 81.25 77.87"><title>type4</title><path d="M64.82 65.33h-.15a.63.63 0 0 1-.46-.76l4.17-16.73a.63.63 0 1 1 1.21.3l-4.17 16.73a.62.62 0 0 1-.6.46zm-44.47-2.24a.62.62 0 0 1-.62-.62.63.63 0 1 1 .62.62zm49.62-23.16h-.16a.63.63 0 0 1-.45-.76l2-7.75a.626.626 0 0 1 1.21.32l-2 7.75a.62.62 0 0 1-.6.44z" fill="#101212"/><path d="M62.22 77.84H23.56a7.07 7.07 0 0 1-4.31-1.46.63.63 0 1 1 .76-1 5.82 5.82 0 0 0 3.55 1.2h38.66a5.88 5.88 0 0 0 5.73-4.65l12-57.18a2.12 2.12 0 0 0-.43-1.78 2.18 2.18 0 0 0-3-.3 2.13 2.13 0 0 0-.73 1.24l-2.68 13.85a.63.63 0 1 1-1.23-.24l2.68-13.85a3.398 3.398 0 1 1 6.66 1.35L69.17 72.21a7.14 7.14 0 0 1-6.95 5.63zM13.1 53.17a.62.62 0 0 1-.62-.62.63.63 0 1 1 .62.62zm-.7-3.32a.63.63 0 0 1-.61-.5L4.56 15.02a3.33 3.33 0 0 1-.07-.7 3.38 3.38 0 0 1 6.69-.63l2.67 13.85a.63.63 0 0 1-1.23.24L9.95 13.93a2.13 2.13 0 0 0-4.22.4 2.08 2.08 0 0 0 0 .44l7.23 34.33a.63.63 0 0 1-.48.74h-.13z" fill="#101212"/><path d="M15.76 39.93a.62.62 0 0 1-.6-.47l-2-7.75a.626.626 0 1 1 1.21-.32l2 7.75a.63.63 0 0 1-.45.76zm17.83-9.09H8.4a.625.625 0 0 1 0-1.25h25.19a.63.63 0 0 1 0 1.25zm43.75 0H44.22a.63.63 0 0 1 0-1.25h33.11a.625.625 0 0 1 .01 1.25zM24.97 41.28H10.6a.625.625 0 0 1 0-1.25h14.38a.625.625 0 0 1-.01 1.25zm50.17 0H35.61a.625.625 0 0 1 0-1.25h39.52a.63.63 0 0 1 .01 1.25zm-54.31 5.05h-9.18a.63.63 0 0 1 0-1.25h9.18a.625.625 0 0 1 0 1.25zm53.25 0H31.47a.63.63 0 0 1 0-1.25h42.61a.625.625 0 0 1 0 1.25zm-4.51 21.36H29.04a.63.63 0 1 1 0-1.25h40.53a.625.625 0 0 1 0 1.25zm-1.05 5.01H25.66a.625.625 0 0 1 0-1.25h42.86a.63.63 0 0 1 0 1.25zm-10.79-7.37h-.1a.62.62 0 0 1-.52-.72l2.73-16.73a.623.623 0 0 1 1.23.2l-2.73 16.73a.62.62 0 0 1-.61.52zm-31.22-9.17a.62.62 0 0 1-.62-.62.63.63 0 1 1 .62.62zM61.1 39.93h-.11a.62.62 0 0 1-.51-.72l1.33-7.75a.624.624 0 0 1 1.23.21l-1.33 7.75a.62.62 0 0 1-.61.51zm-36.47 0a.62.62 0 0 1-.61-.52l-1.33-7.75a.624.624 0 0 1 1.23-.21l1.3 7.75a.62.62 0 0 1-.51.72h-.11zm26.73 25.4a.62.62 0 0 1-.59-.66l.91-16.73a.626.626 0 0 1 1.25.07l-.91 16.73a.62.62 0 0 1-.66.59zm-16.99 0a.62.62 0 0 1-.62-.59l-.91-16.73a.62.62 0 0 1 .58-.68.62.62 0 0 1 .66.59l.91 16.73a.62.62 0 0 1-.59.66zm18.12-25.4a.62.62 0 0 1-.59-.66l.45-7.75a.63.63 0 0 1 .66-.59.62.62 0 0 1 .59.66l-.49 7.74a.63.63 0 0 1-.62.6zm-9.63 25.4a.62.62 0 0 1-.62-.62V48a.63.63 0 0 1 1.25 0v16.74a.62.62 0 0 1-.63.59zm0-25.46a.62.62 0 0 1-.62-.62v-7.63a.63.63 0 0 1 1.25 0v7.63a.62.62 0 0 1-.63.62zM8.98 71.2a4.9 4.9 0 0 1-3.23-1.08c-1.52-1.27-2.08-3.46-1.58-6.16a17.66 17.66 0 0 1 3.93-7.82c3-3.64 6.9-5.9 10.1-5.9a4.9 4.9 0 0 1 3.23 1.09c1.52 1.27 2.08 3.46 1.58 6.16a17.66 17.66 0 0 1-3.93 7.84c-3.03 3.61-6.86 5.87-10.1 5.87zm9.24-19.71c-2.8 0-6.39 2.14-9.14 5.45a16.41 16.41 0 0 0-3.66 7.25c-.41 2.24 0 4 1.16 5a3.68 3.68 0 0 0 2.43.79c2.8 0 6.39-2.14 9.14-5.45a16.41 16.41 0 0 0 3.66-7.25c.41-2.24 0-4-1.16-5a3.68 3.68 0 0 0-2.43-.79z" fill="#101212"/><path d="M7.46 75.71a7.68 7.68 0 0 1-5-1.63c-.13-.11-.26-.22-.37-.34a6.73 6.73 0 0 1-1.72-3c-1.26-4.48.91-10.94 5.51-16.47 3.95-4.73 9.08-7.93 13.4-8.36.3 0 .6 0 .88-.05a.66.66 0 0 1 .64.61.63.63 0 0 1-.61.64h-.79c-4 .4-8.81 3.43-12.56 7.92-4.28 5.14-6.4 11.3-5.27 15.33a5.5 5.5 0 0 0 1.4 2.45l.29.26c3.53 2.94 11.88.94 17.8-6.13 4.18-5 5.4-11.21 4.76-15.11a6 6 0 0 0-1.21-2.88 3.86 3.86 0 0 0-.49-.52.63.63 0 0 1 .83-.93 5.11 5.11 0 0 1 .64.68 7.24 7.24 0 0 1 1.47 3.45c.69 4.18-.6 10.79-5 16.11-4.23 5.03-9.99 7.97-14.6 7.97z" fill="#101212"/><path d="M12.49 77.87a14.37 14.37 0 0 1-9.14-2.84 12.69 12.69 0 0 1-1.51-1.53.637.637 0 0 1 1-.79 11.51 11.51 0 0 0 1.34 1.36c5 4.15 16.37 3.31 22.08-3.54 4.71-5.64 4.76-16 1.66-20.83a.623.623 0 1 1 1.05-.67c3.37 5.3 3.34 16.18-1.75 22.3a19.31 19.31 0 0 1-14.73 6.54z" fill="#101212"/><path d="M28.42 49.99a.63.63 0 0 1-.48-1l36-43.65a4.75 4.75 0 0 0-5.12-4l-.6-.01L20.54 47a.64.64 0 1 1-1-.8l.09-.11L57.46.33a.63.63 0 0 1 .43-.22l.85-.08a6 6 0 0 1 6.5 5.43.62.62 0 0 1-.14.45L28.9 49.76a.62.62 0 0 1-.48.23z" fill="#101212"/><path d="M24.51 48.63a.63.63 0 0 1-.48-1L62.22 1.48a.64.64 0 0 1 1 .8l-38.2 46.13a.62.62 0 0 1-.51.22z" fill="#101212"/></svg>