<svg xmlns="http://www.w3.org/2000/svg" viewBox="0 0 81.25 81.25"><title>type6</title><path d="M28.76 60.14h-.09a.62.62 0 0 1-.53-.71 20.36 20.36 0 0 0 .16-2.2v-.63a18 18 0 0 1 .71-4.35 18 18 0 0 1-4.35.71h-.63a20.37 20.37 0 0 0-2.2.16.626.626 0 0 1-.18-1.24 21.39 21.39 0 0 1 2.34-.17h.62a14.06 14.06 0 0 0 5.19-1.08.63.63 0 0 1 .84.84 14.06 14.06 0 0 0-1.08 5.19v.62a21.39 21.39 0 0 1-.17 2.34.62.62 0 0 1-.63.52zm10.35-11.02h-.05a.62.62 0 0 1-.57-.68c0-.51.06-1 .08-1.61v-.53a18 18 0 0 1 .71-4.36 18 18 0 0 1-4.35.71h-.54c-.56 0-1.1 0-1.61.08a.627.627 0 1 1-.11-1.25c.53 0 1.08-.07 1.67-.09h.53a14.05 14.05 0 0 0 5.19-1.08.63.63 0 0 1 .84.84 14.08 14.08 0 0 0-1.08 5.19v.52c0 .58 0 1.14-.09 1.67a.62.62 0 0 1-.62.59z" fill="#101212"/><path d="M39.04 60.94a7.35 7.35 0 0 1-4.62-2.13.626.626 0 0 1 .89-.88s2.78 2.77 5.36 1.32c1.83-1 2.3-2.53 3-4.6l.19-.59a17.33 17.33 0 0 1 1.83-4 20.67 20.67 0 0 1-4.52-.5l-.62-.14c-2.18-.49-3.76-.84-5.6.19-2.56 1.44-1.5 5.1-1.49 5.13a.626.626 0 1 1-1.2.36c-.48-1.6-.66-5 2.08-6.58 2.25-1.27 4.21-.83 6.48-.32l.61.14a16.44 16.44 0 0 0 5.45.4.63.63 0 0 1 .56 1 13.59 13.59 0 0 0-2.4 4.66l-.19.58c-.69 2.17-1.28 4-3.54 5.32a4.5 4.5 0 0 1-2.27.64zM28.19 49.32a7.35 7.35 0 0 1-2-.28.626.626 0 0 1 .36-1.2c.15 0 3.7 1.06 5.13-1.49 1-1.84.68-3.42.19-5.6l-.14-.62a20.54 20.54 0 0 1-.5-4.52 17.33 17.33 0 0 1-4 1.84l-.59.19c-2.08.66-3.58 1.13-4.6 3-1.44 2.57 1.29 5.33 1.32 5.36a.626.626 0 0 1-.88.89c-.14-.14-3.45-3.45-1.54-6.86 1.27-2.26 3.14-2.85 5.32-3.54l.58-.19a13.59 13.59 0 0 0 4.66-2.4.63.63 0 0 1 1 .56 16.43 16.43 0 0 0 .4 5.45l.14.61c.51 2.27.95 4.23-.32 6.48a4.93 4.93 0 0 1-4.53 2.32z" fill="#101212"/><path d="M41.63 68.31c-3.14 0-5.06-3.23-5.15-3.38a.63.63 0 0 1 1.08-.63s2 3.36 4.92 2.66c2.06-.51 2.91-1.81 4.09-3.62l.34-.52a17.15 17.15 0 0 1 2.82-3.32 21.24 21.24 0 0 1-4.28-1.65l-.47-.24c-.52-.27-1-.52-1.5-.74a.63.63 0 1 1 .52-1.14c.5.23 1 .49 1.55.76l.46.24a16.89 16.89 0 0 0 5.23 1.8.63.63 0 0 1 .26 1.15 13.49 13.49 0 0 0-3.55 3.82l-.33.51c-1.23 1.89-2.3 3.53-4.84 4.15a4.79 4.79 0 0 1-1.15.15zM16.64 44.86a.62.62 0 0 1-.31-.08c-.17-.1-4.17-2.48-3.24-6.3.63-2.54 2.26-3.61 4.15-4.84l.51-.33a13.48 13.48 0 0 0 3.82-3.55.63.63 0 0 1 1.15.26 17 17 0 0 0 1.8 5.23l.24.46c.27.54.53 1 .76 1.55a.63.63 0 1 1-1.14.52c-.22-.48-.47-1-.74-1.5l-.24-.47a21.22 21.22 0 0 1-1.65-4.28 17.15 17.15 0 0 1-3.32 2.82l-.52.34c-1.81 1.18-3.12 2-3.62 4.09-.71 2.91 2.62 4.9 2.66 4.92a.63.63 0 0 1-.31 1.16zm28.61-1.1a7.92 7.92 0 0 1-3.68-1.05.626.626 0 0 1 .65-1.07c.14.08 3.36 2 5.43-.09 1.48-1.48 1.54-3.07 1.63-5.28v-.63a17.9 17.9 0 0 1 .71-4.35 17.9 17.9 0 0 1-4.35.71h-.63c-2.21.09-3.8.15-5.28 1.63-2.07 2.07-.17 5.29-.09 5.43a.626.626 0 0 1-1.07.65c-.1-.17-2.48-4.2.28-7 1.83-1.83 3.81-1.9 6.11-2h.62a14 14 0 0 0 5.19-1.08.63.63 0 0 1 .84.84 14 14 0 0 0-1.08 5.19v.62c-.09 2.3-.17 4.29-2 6.11a4.48 4.48 0 0 1-3.28 1.37z" fill="#101212"/><path d="M54.9 45.29h-.15a.63.63 0 0 1-.46-.76c.11-.43.2-.88.31-1.35l.11-.49a17.45 17.45 0 0 1 1.48-4.16 20.45 20.45 0 0 1-4.53-.11l-.81-.11-1.09-.15a.63.63 0 0 1 .13-1.24l1.12.14.8.1a16.38 16.38 0 0 0 5.44-.08.63.63 0 0 1 .65 1 13.69 13.69 0 0 0-2 4.87l-.11.48c-.11.48-.21.94-.31 1.38a.62.62 0 0 1-.58.48zM43.71 32.04a.63.63 0 0 1-.62-.56c0-.35-.09-.71-.14-1.08s-.07-.54-.11-.82a20.35 20.35 0 0 1-.11-4.52 17.42 17.42 0 0 1-4.16 1.48l-.49.11-1.35.31a.623.623 0 0 1-.3-1.21l1.38-.31.49-.11a13.67 13.67 0 0 0 4.87-2 .63.63 0 0 1 1 .65 16.31 16.31 0 0 0-.08 5.44c0 .28.07.54.1.8s.1.76.14 1.12a.63.63 0 0 1-.56.69h-.07z" fill="#101212"/><path d="M53.89 56.94a6 6 0 0 1-3.43-1.25 8.57 8.57 0 0 1-1.41-1.28.64.64 0 0 1 1-.8 7.42 7.42 0 0 0 1.19 1.07 4 4 0 0 0 4.06.71 5.53 5.53 0 0 0 2.87-3.16c.19-.4.36-.82.54-1.26l.19-.45a17.29 17.29 0 0 1 2.18-3.8 20.76 20.76 0 0 1-4.48-.89l-.69-.21c-.39-.12-.77-.24-1.14-.35a5.89 5.89 0 0 0-4.39.07 3.69 3.69 0 0 0-2 3.41.626.626 0 1 1-1.25-.07 4.86 4.86 0 0 1 2.77-4.48 7.08 7.08 0 0 1 5.24-.13l1.18.36.68.21a16.6 16.6 0 0 0 5.42.87.64.64 0 0 1 .62.38.63.63 0 0 1-.15.71 13.57 13.57 0 0 0-2.81 4.41l-.18.44c-.19.46-.37.9-.56 1.31a6.71 6.71 0 0 1-3.5 3.78 4.54 4.54 0 0 1-1.95.4zM32.54 34.19a.625.625 0 0 1 0-1.25 3.69 3.69 0 0 0 3.4-2 5.89 5.89 0 0 0 .07-4.39c-.1-.38-.22-.76-.35-1.15l-.22-.69a20.78 20.78 0 0 1-.89-4.48 17.27 17.27 0 0 1-3.8 2.18l-.45.19c-.44.18-.86.36-1.26.54a5.53 5.53 0 0 0-3.16 2.87 4 4 0 0 0 .71 4.06 7.43 7.43 0 0 0 1.07 1.19.64.64 0 0 1-.8 1 8.58 8.58 0 0 1-1.28-1.41 5.22 5.22 0 0 1-.84-5.31 6.71 6.71 0 0 1 3.78-3.5c.41-.19.85-.37 1.3-.56l.45-.19a13.56 13.56 0 0 0 4.41-2.81.63.63 0 0 1 1.09.46 16.63 16.63 0 0 0 .87 5.42l.21.68c.13.41.25.8.36 1.19a7.07 7.07 0 0 1-.14 5.24 4.86 4.86 0 0 1-4.48 2.77z" fill="#101212"/><path d="M56.35 64.39c-3.14 0-5.06-3.22-5.15-3.37a.63.63 0 0 1 1.08-.63s2 3.36 4.92 2.65c2.06-.51 2.92-1.82 4.1-3.63l.33-.5a17.1 17.1 0 0 1 2.81-3.32 21.21 21.21 0 0 1-4.28-1.64l-.71-.36-1-.52a.626.626 0 0 1 .54-1.13l1.06.53.7.35a17.06 17.06 0 0 0 5.23 1.79.63.63 0 0 1 .26 1.15 13.42 13.42 0 0 0-3.55 3.83l-.33.5c-1.24 1.9-2.31 3.54-4.85 4.16a4.8 4.8 0 0 1-1.16.14zm-35.8-34.26a.62.62 0 0 1-.31-.08c-.17-.1-4.17-2.48-3.23-6.3.62-2.54 2.26-3.61 4.16-4.85l.5-.33a13.42 13.42 0 0 0 3.83-3.55.63.63 0 0 1 1.15.26 17 17 0 0 0 1.79 5.23l.35.7c.19.36.37.71.53 1.06a.626.626 0 1 1-1.13.54c-.16-.34-.34-.68-.52-1l-.36-.71a21.21 21.21 0 0 1-1.64-4.28 17.12 17.12 0 0 1-3.32 2.81l-.5.33c-1.81 1.19-3.13 2-3.63 4.1-.71 2.9 2.62 4.9 2.65 4.92a.63.63 0 0 1-.32 1.15zm38.86.14h-.17a.62.62 0 0 1-.43-.77 13.25 13.25 0 0 0 .35-3.09v-.67a18 18 0 0 1 .71-4.35 18 18 0 0 1-4.35.71h-.67a13.26 13.26 0 0 0-3.09.35.625.625 0 0 1-.35-1.2 14.31 14.31 0 0 1 3.38-.4h.66a14.08 14.08 0 0 0 5.19-1.08.63.63 0 0 1 .84.84 14.08 14.08 0 0 0-1.08 5.19v.66a14.32 14.32 0 0 1-.4 3.38.62.62 0 0 1-.59.43z" fill="#101212"/><path d="M61.76 42.12a7.55 7.55 0 0 1-4.37-1.74.63.63 0 0 1 .81-.95s3 2.52 5.42.86c1.73-1.19 2.06-2.73 2.53-4.86l.14-.61a17.48 17.48 0 0 1 1.47-4.16 20.4 20.4 0 0 1-4.53-.11l-.63-.08c-2.21-.3-3.81-.51-5.54.68-2.41 1.66-1.09 5.12-1 5.27a.63.63 0 0 1-1.16.46c-.62-1.56-1.1-5 1.49-6.76 2.13-1.46 4.11-1.2 6.41-.88l.62.08a16.18 16.18 0 0 0 5.43-.08.63.63 0 0 1 .65 1 13.69 13.69 0 0 0-2 4.88l-.13.6c-.49 2.23-.92 4.16-3 5.63a4.46 4.46 0 0 1-2.61.77zm-14.72-15.3a7.54 7.54 0 0 1-2.65-.49.63.63 0 0 1 .46-1.16c.15.06 3.62 1.37 5.27-1 1.19-1.73 1-3.33.68-5.54l-.08-.63a20.29 20.29 0 0 1-.11-4.53 17.47 17.47 0 0 1-4.16 1.47l-.61.14c-2.14.47-3.68.81-4.86 2.53-1.66 2.42.83 5.39.86 5.42a.624.624 0 0 1-.95.81c-.13-.15-3.15-3.73-.94-6.94 1.47-2.13 3.39-2.56 5.62-3l.6-.13a13.69 13.69 0 0 0 4.88-2 .63.63 0 0 1 1 .65 16.23 16.23 0 0 0-.08 5.43l.08.62c.31 2.3.58 4.28-.88 6.41a4.76 4.76 0 0 1-4.13 1.94z" fill="#101212"/><path d="M66.86 51.37c-2.69 0-4.73-2.4-4.83-2.53a.64.64 0 0 1 1-.8s2.55 3 5.25 1.78c1.93-.86 2.53-2.31 3.37-4.31l.24-.56a17.1 17.1 0 0 1 2.18-3.8 20.7 20.7 0 0 1-4.47-.9l-.66-.2a13.9 13.9 0 0 0-3.07-.73.63.63 0 0 1 .09-1.25 15 15 0 0 1 3.36.79l.65.2a16.51 16.51 0 0 0 5.42.88.63.63 0 0 1 .62.38.63.63 0 0 1-.16.71 13.43 13.43 0 0 0-2.8 4.41l-.23.56c-.88 2.1-1.63 3.91-4 5a4.57 4.57 0 0 1-1.96.37zm-34.1-32a.62.62 0 0 1-.4-.14c-.15-.13-3.71-3.15-2.12-6.72 1.06-2.38 2.87-3.13 5-4l.56-.23a13.43 13.43 0 0 0 4.41-2.8.63.63 0 0 1 1.09.46 16.56 16.56 0 0 0 .88 5.41l.2.65a15 15 0 0 1 .79 3.36.63.63 0 1 1-1.25.09 13.92 13.92 0 0 0-.73-3.07l-.21-.66a20.68 20.68 0 0 1-.9-4.47 17.09 17.09 0 0 1-3.8 2.18l-.56.24c-2 .84-3.45 1.44-4.31 3.37-1.21 2.7 1.75 5.22 1.78 5.25a.63.63 0 0 1-.43 1.08zm32.32 4.52a7.92 7.92 0 0 1-3.68-1.05.63.63 0 0 1 .65-1.07c.14.08 3.36 2 5.43-.09 1.48-1.48 1.54-3.07 1.63-5.28v-.63a17.86 17.86 0 0 1 .71-4.35 17.86 17.86 0 0 1-4.35.71h-.63c-2.21.09-3.8.15-5.28 1.63-2.07 2.07-.17 5.29-.09 5.43a.63.63 0 0 1-1.07.65c-.1-.17-2.48-4.2.28-7 1.83-1.83 3.81-1.9 6.11-2h.62a14 14 0 0 0 5.19-1.08.63.63 0 0 1 .84.84 14 14 0 0 0-1.08 5.19v.62c-.09 2.3-.17 4.29-2 6.11a4.48 4.48 0 0 1-3.28 1.37z" fill="#101212"/><path d="M73.39 34.14a7.55 7.55 0 0 1-4.37-1.74.63.63 0 0 1 .81-.95s3 2.52 5.42.86c1.73-1.19 2.06-2.73 2.53-4.86l.14-.61a17.47 17.47 0 0 1 1.47-4.16 20.37 20.37 0 0 1-4.53-.11l-.63-.08c-2.21-.3-3.81-.51-5.54.68-2.41 1.66-1.09 5.12-1 5.27a.63.63 0 0 1-1.16.46c-.62-1.56-1.1-5 1.49-6.76 2.13-1.46 4.11-1.19 6.41-.88l.62.08a16.2 16.2 0 0 0 5.43-.08.63.63 0 0 1 .65 1 13.69 13.69 0 0 0-2 4.88l-.13.6c-.49 2.23-.92 4.16-3 5.63a4.46 4.46 0 0 1-2.61.77zM55.02 15.22a7.54 7.54 0 0 1-2.65-.49.63.63 0 0 1 .46-1.16c.15.06 3.62 1.37 5.27-1 1.19-1.73 1-3.33.68-5.54l-.08-.63a20.29 20.29 0 0 1-.11-4.53 17.47 17.47 0 0 1-4.16 1.47l-.61.14c-2.14.47-3.68.81-4.86 2.53-1.66 2.42.83 5.39.86 5.42a.624.624 0 0 1-.95.81c-.13-.15-3.15-3.73-.94-6.94 1.47-2.13 3.39-2.56 5.62-3l.6-.13a13.69 13.69 0 0 0 4.88-2 .63.63 0 0 1 1 .65 16.23 16.23 0 0 0-.08 5.43l.08.62c.31 2.3.58 4.28-.88 6.41a4.76 4.76 0 0 1-4.13 1.94zM27.3 71.82c-3.14 0-5.06-3.23-5.15-3.38a.625.625 0 0 1 1.08-.63s2 3.36 4.92 2.65c2.06-.51 2.91-1.81 4.09-3.62l.34-.52A17.09 17.09 0 0 1 35.39 63a21.26 21.26 0 0 1-4.28-1.65l-.57-.29c-2-1-3.47-1.78-5.54-1.27-2.88.71-2.79 4.46-2.79 4.49a.625.625 0 1 1-1.25 0c-.05-1.66.66-5 3.74-5.75 2.52-.62 4.33.31 6.41 1.38l.56.29a17 17 0 0 0 5.23 1.79.63.63 0 0 1 .26 1.15 13.44 13.44 0 0 0-3.55 3.82l-.33.51c-1.23 1.89-2.3 3.53-4.84 4.15a4.8 4.8 0 0 1-1.14.2zM17.1 60.29h-.18a.625.625 0 0 1 0-1.25c.15 0 3.79.07 4.49-2.79.51-2.07-.24-3.53-1.27-5.54l-.29-.57a21.27 21.27 0 0 1-1.65-4.28 17.09 17.09 0 0 1-3.32 2.81l-.52.34c-1.81 1.18-3.12 2-3.62 4.09-.71 2.9 2.62 4.9 2.65 4.92a.625.625 0 0 1-.63 1.08c-.17-.1-4.17-2.48-3.24-6.29.62-2.54 2.26-3.61 4.15-4.84l.51-.33A13.44 13.44 0 0 0 18 44.09a.63.63 0 0 1 1.15.26 17 17 0 0 0 1.79 5.23l.29.56c1.07 2.09 2 3.89 1.38 6.41-.67 2.97-3.85 3.74-5.51 3.74zM7.12 78.83a.63.63 0 0 1-.44-1.07l7.89-7.89a.622.622 0 0 1 .88.88l-7.89 7.89a.62.62 0 0 1-.44.19zm-4.07-4.07a.63.63 0 0 1-.44-1.07l7.89-7.89a.622.622 0 1 1 .88.88l-7.89 7.89a.62.62 0 0 1-.44.19zm1.65 6.49a.63.63 0 0 1-.44-1.07l1.37-1.37a.622.622 0 0 1 .88.88l-1.37 1.37a.62.62 0 0 1-.44.19zM.62 77.18a.63.63 0 0 1-.44-1.07l1.37-1.37a.622.622 0 1 1 .88.88l-1.37 1.37a.62.62 0 0 1-.44.19zm15.44-7.29a.63.63 0 0 1-.44-1.07l3.49-3.49a.622.622 0 0 1 .88.88L16.5 69.7a.62.62 0 0 1-.44.19zm-4.08-4.07a.63.63 0 0 1-.44-1.07l3.49-3.49a.622.622 0 0 1 .88.88l-3.49 3.49a.62.62 0 0 1-.44.19zM5.76 77.44a.63.63 0 0 1-.44-1.07l7.89-7.89a.622.622 0 1 1 .88.88L6.2 77.25a.62.62 0 0 1-.44.19zm-1.33-1.3a.63.63 0 0 1-.44-1.07l7.89-7.89a.622.622 0 0 1 .88.88l-7.89 7.89a.62.62 0 0 1-.44.19zm-1.44 4.04a.63.63 0 0 1-.44-1.07l1.69-1.69a.622.622 0 1 1 .88.88l-1.69 1.69a.62.62 0 0 1-.44.19zm-1.3-1.3a.63.63 0 0 1-.44-1.07l1.69-1.69a.622.622 0 1 1 .88.88l-1.69 1.69a.62.62 0 0 1-.44.19zM14.67 68.5a.63.63 0 0 1-.44-1.07l4.17-4.17a.622.622 0 0 1 .88.88l-4.17 4.17a.62.62 0 0 1-.44.19zm-1.3-1.3a.63.63 0 0 1-.44-1.07l4.17-4.17a.622.622 0 0 1 .88.88l-4.17 4.17a.62.62 0 0 1-.44.19z" fill="#101212"/><path d="M15.88 71.54a1.27 1.27 0 0 1-.9-.37l-4.89-4.89a1.27 1.27 0 0 1 0-1.8l.13-.13a1.31 1.31 0 0 1 1.8 0l4.89 4.89a1.28 1.28 0 0 1 0 1.8l-.13.13a1.26 1.26 0 0 1-.9.37zm-4.74-6.32l-.17.13 4.91 4.94.13-.13zm-4.2 15.26a1.27 1.27 0 0 1-.9-.37l-4.89-4.89a1.28 1.28 0 0 1 0-1.8l.13-.13a1.31 1.31 0 0 1 1.8 0l4.89 4.89a1.27 1.27 0 0 1 0 1.8l-.13.13a1.27 1.27 0 0 1-.9.37zM2.2 74.16l-.17.13 4.91 4.94.13-.13z" fill="#101212"/></svg>