<svg xmlns="http://www.w3.org/2000/svg" viewBox="0 0 81.27 81.82"><title>type1</title><path d="M30.78 34.98a.63.63 0 0 1-.15-1.23l1.4-.33a.39.39 0 0 0 .29-.26.4.4 0 0 0-.07-.38l-8.43-10.32a2.25 2.25 0 0 1-.44-.88L20.6 9.96a.79.79 0 0 0-.94-.58l-6 1.45a.78.78 0 0 0-.58.94l2.79 11.6a2.68 2.68 0 0 1 0 1l-1.4 10.09a.63.63 0 1 1-1.24-.17l1.4-10.09a1.42 1.42 0 0 0 0-.52l-2.8-11.61a2 2 0 0 1 1.5-2.45l6-1.45a2 2 0 0 1 2.45 1.5l2.82 11.65a1 1 0 0 0 .19.39l8.38 10.32a1.65 1.65 0 0 1-.89 2.64l-1.35.32z" fill="#101212"/><path d="M39.03 81.82H2.49a2.5 2.5 0 0 1-2.46-2.5v-43.1a2.5 2.5 0 0 1 2.5-2.5h36.5a2.5 2.5 0 0 1 2.5 2.5v33.23a.625.625 0 1 1-1.25 0V36.22a1.25 1.25 0 0 0-1.25-1.24H2.49a1.25 1.25 0 0 0-1.25 1.25v43.09a1.25 1.25 0 0 0 1.25 1.25h36.54a1.24 1.24 0 0 0 .57-.14.624.624 0 1 1 .57 1.11 2.48 2.48 0 0 1-1.14.28zm-15.76-62.8a.623.623 0 0 1-.12-1.24L79.49 6.32a.68.68 0 0 0 .41-.31.69.69 0 0 0 .08-.53l-.89-3.69a.69.69 0 0 0-.84-.51L21.89 12.76a.623.623 0 0 1-.25-1.22L78.03.05a1.94 1.94 0 0 1 2.32 1.44l.89 3.69a1.95 1.95 0 0 1-1.44 2.35L23.39 19.01h-.12zm48.67 62.8a.62.62 0 0 1-.62-.62 2.65 2.65 0 0 0-5.3 0 .625.625 0 1 1-1.25 0 3.9 3.9 0 0 1 7.8 0 .62.62 0 0 1-.63.62z" fill="#101212"/><path d="M75.92 81.82a.62.62 0 0 1-.62-.62 6.63 6.63 0 0 0-13.26 0 .625.625 0 1 1-1.25 0 7.88 7.88 0 0 1 15.76 0 .62.62 0 0 1-.63.62z" fill="#101212"/><path d="M80.64 81.82H56.71a.62.62 0 0 1-.62-.62 12.58 12.58 0 0 1 25.16-.16.63.63 0 0 1-.61.78zm-23.29-1.25h22.68a11.34 11.34 0 0 0-22.68 0zm-2.19 1.25H31.23a.62.62 0 0 1-.62-.62 12.58 12.58 0 0 1 25.16-.16.63.63 0 0 1-.61.78zm-23.29-1.25H54.5a11.33 11.33 0 0 0-22.63 0z" fill="#101212"/><path d="M46.46 81.82a.62.62 0 0 1-.62-.62 2.65 2.65 0 0 0-5.3 0 .625.625 0 1 1-1.25 0 3.9 3.9 0 0 1 7.8 0 .62.62 0 0 1-.63.62z" fill="#101212"/><path d="M50.44 81.82a.62.62 0 0 1-.62-.62 6.63 6.63 0 0 0-13.25 0 .625.625 0 1 1-1.25 0 7.88 7.88 0 0 1 15.75 0 .62.62 0 0 1-.63.62zm5.49-19.29a3.9 3.9 0 0 1-3.9-3.9.625.625 0 1 1 1.25 0 2.65 2.65 0 0 0 5.3 0 .625.625 0 1 1 1.25 0 3.9 3.9 0 0 1-3.9 3.9z" fill="#101212"/><path d="M55.93 66.51a7.89 7.89 0 0 1-7.9-7.88.63.63 0 1 1 1.25 0 6.63 6.63 0 0 0 13.26 0 .625.625 0 1 1 1.25 0 7.89 7.89 0 0 1-7.86 7.88z" fill="#101212"/><path d="M55.93 71.21a12.6 12.6 0 0 1-12.58-12.58.62.62 0 0 1 .62-.62h23.91a.62.62 0 0 1 .63.63 12.6 12.6 0 0 1-12.58 12.57zm-11.31-12a11.33 11.33 0 0 0 22.63 0H44.61zM9.03 81.82a.62.62 0 0 1-.57-.37c-3.39-7.67-1.61-15 .12-22.15.65-2.69 1.33-5.47 1.73-8.26a34.94 34.94 0 0 0-2-16.48.625.625 0 1 1 1.18-.41 36.17 36.17 0 0 1 2 17.07c-.41 2.85-1.1 5.66-1.76 8.37-1.76 7.23-3.42 14.07-.2 21.35a.63.63 0 0 1-.5.88zm-7-30.25a5.42 5.42 0 0 1-1.59-.25.626.626 0 0 1 .36-1.2 2.42 2.42 0 0 0 2.65-.37c2.49-2.6 0-12.7-.84-15.18a.626.626 0 0 1 1.18-.42c.73 2 3.75 13.13.57 16.46a3.1 3.1 0 0 1-2.33.96zm13.71 30.25a.62.62 0 0 1-.55-.33 11.27 11.27 0 0 1-.95-2.33c-.17-.62-.3-1.26-.39-1.8-1.16-6.33-.86-11.48.9-15.76 2-4.79 6.62-7.07 12.12-5.93 3.49.72 6.31 2.56 9 4.35a40.34 40.34 0 0 0 5.3 3.1.63.63 0 0 1-.52 1.14 41.33 41.33 0 0 1-5.47-3.19c-2.74-1.8-5.33-3.5-8.59-4.17-5-1-9 .92-10.71 5.18-1.67 4-1.94 9-.83 15.06.09.51.21 1.11.37 1.68a10 10 0 0 0 .84 2.07.62.62 0 0 1-.52.93z" fill="#101212"/><path d="M22.15 81.82a.63.63 0 0 1-.59-.41c-1.1-3-2.16-6.43-1.62-9.62.34-2 1.22-3.33 2.63-3.92 3.34-1.41 8.68 1.87 12.41 4.46a.62.62 0 0 1-.71 1c-2-1.39-8.11-5.64-11.21-4.33-1 .42-1.61 1.39-1.88 3-.49 2.9.51 6.16 1.56 9a.62.62 0 0 1-.59.82zM40.94 55.2a.62.62 0 0 1-.36-.12 47.75 47.75 0 0 0-5.94-3.43 39.84 39.84 0 0 1-7.39-4.51 22.68 22.68 0 0 1-8.11-12.67.624.624 0 1 1 1.22-.26 21.7 21.7 0 0 0 7.69 12 38.92 38.92 0 0 0 7.16 4.36 48.61 48.61 0 0 1 6.1 3.52.62.62 0 0 1-.37 1.11z" fill="#101212"/></svg>