<svg xmlns="http://www.w3.org/2000/svg" viewBox="0 0 81.25 69.05"><title>type15</title><path d="M73.08 69.05H12.77C5.77 69.05 0 63.97 0 57.73s5.73-11.32 12.77-11.32h61.72a4.06 4.06 0 0 1 2.7 1 3.28 3.28 0 0 1 1.16 2.48 3.68 3.68 0 0 1-3.85 3.46H12.83c-2.83 0-5.13 2-5.13 4.45s2.3 4.45 5.13 4.45h61a.48.48 0 1 0 0-.93H12.98a3.42 3.42 0 1 1 0-6.8h60.1c4.51 0 8.17 3.26 8.17 7.27s-3.67 7.26-8.17 7.26zM12.77 47.66c-6.35 0-11.52 4.52-11.52 10.07S6.42 67.8 12.77 67.8h60.31c3.82 0 6.92-2.7 6.92-6s-3.11-6-6.92-6h-60.1a2.18 2.18 0 1 0 0 4.3h60.88a1.72 1.72 0 1 1 0 3.43h-61c-3.52 0-6.38-2.56-6.38-5.7s2.86-5.7 6.38-5.7h61.63a2.44 2.44 0 0 0 2.6-2.22 2 2 0 0 0-.73-1.54 2.82 2.82 0 0 0-1.87-.68H12.77zm55.72-1.81H8.17C3.66 45.85 0 42.59 0 38.58s3.67-7.27 8.17-7.27h60.1a3.42 3.42 0 1 1 0 6.8H7.4a.48.48 0 1 0 0 .93h61c2.83 0 5.13-2 5.13-4.45s-2.3-4.45-5.13-4.45H6.74a3.68 3.68 0 0 1-3.85-3.46 3.28 3.28 0 0 1 1.16-2.48 4.06 4.06 0 0 1 2.7-1h61.74c7 0 12.77 5.08 12.77 11.32s-5.77 11.33-12.77 11.33zM8.18 32.56c-3.82 0-6.92 2.7-6.92 6s3.11 6 6.92 6h60.31c6.35 0 11.52-4.52 11.52-10.07s-5.17-10.07-11.52-10.07H6.74a2.81 2.81 0 0 0-1.87.68 2 2 0 0 0-.73 1.54 2.44 2.44 0 0 0 2.6 2.22h61.69c3.52 0 6.38 2.56 6.38 5.7s-2.86 5.7-6.38 5.7h-61a1.72 1.72 0 1 1 0-3.43h60.88a2.18 2.18 0 1 0 0-4.3H8.21zm64.9-9.92H12.77C5.77 22.64 0 17.56 0 11.32S5.73 0 12.77 0h61.72a4.06 4.06 0 0 1 2.7 1 3.28 3.28 0 0 1 1.16 2.48 3.68 3.68 0 0 1-3.85 3.46H12.83c-2.83 0-5.13 2-5.13 4.45s2.3 4.45 5.13 4.45h61a.48.48 0 1 0 0-.93H12.98a3.42 3.42 0 1 1 0-6.8h60.1c4.51 0 8.17 3.26 8.17 7.27s-3.67 7.26-8.17 7.26zM12.77 1.25c-6.35 0-11.52 4.52-11.52 10.07s5.17 10.07 11.52 10.07h60.31c3.82 0 6.92-2.7 6.92-6s-3.11-6-6.92-6h-60.1a2.18 2.18 0 1 0 0 4.3h60.88a1.72 1.72 0 1 1 0 3.43h-61c-3.52 0-6.38-2.56-6.38-5.7s2.86-5.7 6.38-5.7h61.63a2.44 2.44 0 0 0 2.6-2.22 2 2 0 0 0-.73-1.54 2.82 2.82 0 0 0-1.87-.68H12.77z" fill="#101212"/></svg>