<svg xmlns="http://www.w3.org/2000/svg" viewBox="0 0 81.25 81.25"><title>type14</title><path d="M77.76 81.22H3.53A3.53 3.53 0 0 1 0 77.69V3.53A3.53 3.53 0 0 1 3.53 0h74.23a3.53 3.53 0 0 1 3.53 3.53v74.19a3.53 3.53 0 0 1-3.53 3.5zm-74.19-80A2.28 2.28 0 0 0 1.29 3.5v74.22A2.28 2.28 0 0 0 3.57 80h74.19a2.28 2.28 0 0 0 2.28-2.28V3.53a2.28 2.28 0 0 0-2.28-2.31H3.53z" fill="#101212"/><path d="M11.09 48.22a.62.62 0 0 1-.62-.62.47.47 0 0 0-.07-.24 1.16 1.16 0 0 0-.26-.28 4.06 4.06 0 0 0-2.16-.69h-.43a4.37 4.37 0 0 0-2.6.71 1.11 1.11 0 0 0-.24.25.46.46 0 0 0-.09.26.63.63 0 0 1-1.25 0 1.68 1.68 0 0 1 .3-1 2.29 2.29 0 0 1 .5-.54 5.55 5.55 0 0 1 3.37-1h.54a5.24 5.24 0 0 1 2.86 1 2.39 2.39 0 0 1 .55.61 1.72 1.72 0 0 1 .25.87.62.62 0 0 1-.65.67z" fill="#101212"/><path d="M13.53 46.34a.62.62 0 0 1-.59-.83.4.4 0 0 0-.12-.33 4.08 4.08 0 0 0-4.58 0 .41.41 0 0 0-.13.26.66.66 0 0 1-.38.83.6.6 0 0 1-.79-.35 1.44 1.44 0 0 1-.08-.48 1.62 1.62 0 0 1 .46-1.1 5.2 5.2 0 0 1 6.43 0 1.63 1.63 0 0 1 .45 1.1 1.45 1.45 0 0 1-.08.48.63.63 0 0 1-.59.42z" fill="#101212"/><path d="M17.07 48.22a.62.62 0 0 1-.62-.62.45.45 0 0 0-.09-.25 1.19 1.19 0 0 0-.25-.26 4.37 4.37 0 0 0-2.59-.71h-.44a4 4 0 0 0-2.17.7.637.637 0 1 1-.79-1 5.23 5.23 0 0 1 2.86-1h.52a5.56 5.56 0 0 1 3.38 1 2.42 2.42 0 0 1 .5.54 1.67 1.67 0 0 1 .29.94.62.62 0 0 1-.6.66zm5.81 5.62a.62.62 0 0 1-.62-.62v-3.49a.75.75 0 0 0-.75-.75h-1.28v4.24a.625.625 0 0 1-1.25 0v-4.87a.62.62 0 0 1 .63-.62h1.9a2 2 0 0 1 2 2v3.49a.62.62 0 0 1-.63.62zm0 23.85H19.6a.63.63 0 1 1 0-1.25h3.28a.63.63 0 1 1 0 1.25zm55.18-33.75H46.68a.63.63 0 0 1 0-1.25h31.38a.63.63 0 0 1 0 1.25zm0-5.13H46.68a.63.63 0 0 1 0-1.25h31.38a.63.63 0 0 1 0 1.25zm-34.05 5.13h-17.5a1.27 1.27 0 0 1-1.27-1.27v-3.83a1.27 1.27 0 0 1 1.27-1.27h17.51a.63.63 0 0 1 0 1.25H26.51v3.85h17.5a.635.635 0 0 1 0 1.27zm0 18.68H22.88a.63.63 0 0 1 0-1.25h21.13a.63.63 0 0 1 0 1.25zm34.05 0H46.68a.625.625 0 0 1 0-1.25h31.38a.63.63 0 1 1 0 1.25zm-34.05-5.14H22.88a.63.63 0 1 1 0-1.25h21.13a.63.63 0 1 1 0 1.25zm34.05 0H46.68a.63.63 0 0 1 0-1.25h31.38a.63.63 0 0 1 0 1.25z" fill="#101212"/><path d="M22.88 77.69a.62.62 0 0 1-.62-.62V53.22a.625.625 0 0 1 1.25 0v23.85a.62.62 0 0 1-.63.62zM19.6 53.84a.62.62 0 0 1-.62-.62v-4.24H3.19a.625.625 0 0 1 0-1.25H19.6a.62.62 0 0 1 .63.63v4.86a.62.62 0 0 1-.63.62z" fill="#101212"/><path d="M19.6 53.84H3.19a.63.63 0 0 1 0-1.25H19.6a.63.63 0 1 1 0 1.25zm0 14.38H3.19a.63.63 0 0 1 0-1.25H19.6a.63.63 0 1 1 0 1.25zm0 5.27H3.19a.63.63 0 0 1 0-1.25H19.6a.63.63 0 1 1 0 1.25z" fill="#101212"/><path d="M19.6 77.69a.62.62 0 0 1-.62-.62V48.35a.625.625 0 0 1 1.25 0v28.72a.62.62 0 0 1-.63.62zm13.61-30.26h-.75a2.4 2.4 0 0 1-2.4-2.4v-1.71a.62.62 0 0 1 .63-.62H35a.62.62 0 0 1 .63.63v1.72a2.4 2.4 0 0 1-2.42 2.38zm-1.91-3.49v1.09a1.15 1.15 0 0 0 1.15 1.15h.75a1.15 1.15 0 0 0 1.15-1.15v-1.09h-3.06zm42.52 3.49h-.75a2.4 2.4 0 0 1-2.4-2.4v-1.71a.62.62 0 0 1 .63-.62h4.31a.62.62 0 0 1 .62.63v1.72a2.4 2.4 0 0 1-2.41 2.38zm-1.91-3.49v1.09a1.15 1.15 0 0 0 1.15 1.15h.75a1.15 1.15 0 0 0 1.15-1.15v-1.09H71.9zm1.91 22.34h-.75a2.4 2.4 0 0 1-2.4-2.4v-1.72a.62.62 0 0 1 .63-.62h4.31a.62.62 0 0 1 .62.63v1.72a2.4 2.4 0 0 1-2.41 2.39zm-1.91-3.49v1.09a1.15 1.15 0 0 0 1.15 1.15h.75a1.15 1.15 0 0 0 1.15-1.15v-1.09H71.9zM17.2 68.22a.62.62 0 0 1-.62-.62V53.22a.625.625 0 0 1 1.25 0v14.39a.62.62 0 0 1-.63.61z" fill="#101212"/><path d="M71.94 77.69H46.68a.62.62 0 0 1-.62-.62V4.22a.62.62 0 0 1 .63-.62h25.26a6.76 6.76 0 0 1 6.75 6.75v60.63a6.76 6.76 0 0 1-6.76 6.71zM47.3 76.44h24.64a5.5 5.5 0 0 0 5.5-5.5V10.31a5.5 5.5 0 0 0-5.5-5.5H47.3v71.63zm-3.29 1.25H6.09a3.53 3.53 0 0 1-3.53-3.53V7.09a3.53 3.53 0 0 1 3.53-3.53h37.92a.62.62 0 0 1 .63.63v72.88a.62.62 0 0 1-.63.62zM6.09 4.81a2.28 2.28 0 0 0-2.28 2.28v67.07a2.28 2.28 0 0 0 2.28 2.28h37.3V4.81H6.09z" fill="#101212"/><path d="M19.67 24.36h-3.54a3.72 3.72 0 0 1-3.71-3.71v-5.28a3.72 3.72 0 0 1 3.71-3.71h3.54a3.72 3.72 0 0 1 3.71 3.71v5.28a3.72 3.72 0 0 1-3.71 3.71zM16.13 12.9a2.47 2.47 0 0 0-2.46 2.46v5.28a2.47 2.47 0 0 0 2.46 2.46h3.54a2.47 2.47 0 0 0 2.46-2.46v-5.28a2.47 2.47 0 0 0-2.46-2.46h-3.54zM67.7 24.36a4.82 4.82 0 1 1 4.82-4.82 4.82 4.82 0 0 1-4.82 4.82zm0-8.38a3.57 3.57 0 1 0 3.57 3.57 3.57 3.57 0 0 0-3.57-3.57z" fill="#101212"/><path d="M67.7 20.22a.62.62 0 0 1-.51-1l1.43-2a.63.63 0 0 1 1 .73l-1.43 2a.63.63 0 0 1-.49.27z" fill="#101212"/></svg>