<svg xmlns="http://www.w3.org/2000/svg" viewBox="0 0 81.25 80.94"><title>type3</title><path d="M50.92 80.94H31.16a5 5 0 0 1-5-5 3.1 3.1 0 0 1 2.38-3 .63.63 0 0 1 .29 1.22 1.86 1.86 0 0 0-1.43 1.81 3.78 3.78 0 0 0 3.77 3.77h19.76a3.78 3.78 0 0 0 3.76-3.86 1.87 1.87 0 0 0-1.21-1.75.63.63 0 1 1 .43-1.17 3.12 3.12 0 0 1 2 2.92 5 5 0 0 1-4.99 5.06z" fill="#101212"/><path d="M45.59 77.45h-.29l-14.16-1.17a3.26 3.26 0 0 1-2.58-1.67l-6-10.82a2.8 2.8 0 0 1-.17-2.35l6.56-17.33a1.62 1.62 0 0 0 0-1l-.68-2.31a2.87 2.87 0 0 1 .25-2.2l8.62-15.36a3 3 0 0 1 2.35-1.55l7.17-.81a3 3 0 0 1 3.11 1.83l3 7.15a1.64 1.64 0 0 0 .9.89l.25.13a2.9 2.9 0 0 1 1.78 2.25l4.15 27.86a2.19 2.19 0 0 1-.18 1.24l-5.18 11.22a3.28 3.28 0 0 1-1.86 1.7l-5.84 2.1a3.54 3.54 0 0 1-1.2.2zm1.37-55.35h-.2l-7.17.81a1.76 1.76 0 0 0-1.33.89l-8.62 15.38a1.62 1.62 0 0 0-.14 1.24l.68 2.31a2.87 2.87 0 0 1-.07 1.82l-6.56 17.33a1.55 1.55 0 0 0 .09 1.3l6 10.82a2 2 0 0 0 1.59 1l14.16 1.17a2.27 2.27 0 0 0 1-.13l5.84-2.1a2 2 0 0 0 1.15-1.05l5.11-11.19a1 1 0 0 0 .08-.54l-4.08-27.85a1.64 1.64 0 0 0-1-1.28l-.34-.15a2.9 2.9 0 0 1-1.59-1.57l-3-7.15a1.75 1.75 0 0 0-1.6-1.05z" fill="#101212"/><path d="M32.11 40.03a.62.62 0 0 1-.3-1.18c.06 0 5.83-3.15 8.77-6.21a24.28 24.28 0 0 0 4.54-7.44.63.63 0 0 1 1.18.43 25.13 25.13 0 0 1-4.81 7.89c-3.08 3.2-8.84 6.31-9.08 6.44a.62.62 0 0 1-.3.07zm-5.94 20.31a.63.63 0 0 1-.33-1.16l5.65-3.47A43.1 43.1 0 0 0 43.43 44.8l6.4-8.55a.63.63 0 0 1 1 .75l-6.4 8.55a44.35 44.35 0 0 1-12.3 11.23l-5.64 3.47a.62.62 0 0 1-.32.09zm4.12 11.6a.63.63 0 0 1-.14-1.23l5-1.17a25.52 25.52 0 0 0 13.25-7.88l4.83-5.42a.623.623 0 1 1 .93.83l-4.83 5.42a26.76 26.76 0 0 1-13.9 8.27l-5 1.17zm14.27 1.39a.63.63 0 0 1-.25-1.2 25 25 0 0 0 10.55-8.6l.69-1a.63.63 0 0 1 1 .72l-.69 1a26.28 26.28 0 0 1-11.08 9 .63.63 0 0 1-.22.08zm36.07-28.95h-18a.63.63 0 0 1 0-1.25h18a.625.625 0 0 1 0 1.25zM61.92 29.2a.62.62 0 0 1-.35-1.14l8.47-5.7a.63.63 0 0 1 .7 1l-8.47 5.7a.63.63 0 0 1-.35.14zM50.31 16.11a.63.63 0 0 1-.58-.86l6-14.86a.626.626 0 0 1 1.16.47l-6 14.86a.62.62 0 0 1-.58.39zM33.6 20.88a.63.63 0 0 1-.59-.42L26.17.88a.63.63 0 0 1 1.18-.41l6.84 19.64a.62.62 0 0 1-.59.77zm-8.38 12a.62.62 0 0 1-.37-.12l-10.36-7.53a.63.63 0 1 1 .73-1l10.38 7.54a.63.63 0 0 1-.38 1.11zm-6.79 11.5H.63a.63.63 0 0 1 0-1.25h17.81a.625.625 0 0 1-.01 1.25zm-5.76 20.87a.63.63 0 0 1-.38-1.12l8.2-6.25a.63.63 0 0 1 .76 1l-8.21 6.23a.62.62 0 0 1-.37.14zm58.39.83a.62.62 0 0 1-.36-.12l-9.14-6.53a.62.62 0 0 1 .73-1l9.14 6.53a.62.62 0 0 1-.37 1.12z" fill="#101212"/></svg>