<svg xmlns="http://www.w3.org/2000/svg" viewBox="0 0 81.25 72.6"><title>type13</title><path d="M9.17 63.69a5.35 5.35 0 0 1-4.14-1.8.64.64 0 1 1 1-.8 4.36 4.36 0 0 0 6.31 0 .64.64 0 1 1 1 .8 5.37 5.37 0 0 1-4.17 1.8z" fill="#101212"/><path d="M16.44 63.69a5.35 5.35 0 0 1-4.11-1.8.64.64 0 1 1 1-.8 4.36 4.36 0 0 0 6.31 0 .64.64 0 1 1 1 .8 5.37 5.37 0 0 1-4.2 1.8z" fill="#101212"/><path d="M23.72 63.69a5.35 5.35 0 0 1-4.11-1.8.64.64 0 1 1 1-.8 4.36 4.36 0 0 0 6.31 0 .64.64 0 1 1 1 .8 5.37 5.37 0 0 1-4.2 1.8z" fill="#101212"/><path d="M31.03 63.69a5.35 5.35 0 0 1-4.12-1.8.64.64 0 1 1 1-.8 4.36 4.36 0 0 0 6.31 0 .64.64 0 1 1 1 .8 5.37 5.37 0 0 1-4.19 1.8z" fill="#101212"/><path d="M38.26 63.69a5.35 5.35 0 0 1-4.11-1.8.64.64 0 1 1 1-.8 4.36 4.36 0 0 0 6.31 0 .64.64 0 1 1 1 .8 5.37 5.37 0 0 1-4.2 1.8z" fill="#101212"/><path d="M45.53 63.69a5.37 5.37 0 0 1-4.11-1.8.64.64 0 1 1 1-.8 4.36 4.36 0 0 0 6.31 0 .64.64 0 1 1 1 .8 5.38 5.38 0 0 1-4.2 1.8z" fill="#101212"/><path d="M52.8 63.69a5.37 5.37 0 0 1-4.11-1.8.64.64 0 1 1 1-.8 4.36 4.36 0 0 0 6.31 0 .64.64 0 1 1 1 .8 5.37 5.37 0 0 1-4.2 1.8z" fill="#101212"/><path d="M60.03 63.69a5.37 5.37 0 0 1-4.11-1.8.64.64 0 1 1 1-.8 4.36 4.36 0 0 0 6.31 0 .64.64 0 0 1 1 .8 5.37 5.37 0 0 1-4.2 1.8z" fill="#101212"/><path d="M67.35 63.69a5.37 5.37 0 0 1-4.11-1.8.64.64 0 1 1 1-.8 4.36 4.36 0 0 0 6.31 0 .64.64 0 1 1 1 .8 5.37 5.37 0 0 1-4.2 1.8z" fill="#101212"/><path d="M74.62 63.69a5.37 5.37 0 0 1-4.11-1.8.64.64 0 1 1 1-.8 4.36 4.36 0 0 0 6.31 0 .64.64 0 0 1 1 .8 5.37 5.37 0 0 1-4.2 1.8zM4.26 67.96a5.35 5.35 0 0 1-4.12-1.8.64.64 0 1 1 1-.8 4.36 4.36 0 0 0 6.31 0 .64.64 0 1 1 1 .8 5.37 5.37 0 0 1-4.19 1.8zm72.77 0a5.35 5.35 0 0 1-4.11-1.8.64.64 0 0 1 1-.8 4.36 4.36 0 0 0 6.31 0 .64.64 0 0 1 1 .8 5.37 5.37 0 0 1-4.2 1.8z" fill="#101212"/><path d="M11.53 67.96a5.35 5.35 0 0 1-4.12-1.8.64.64 0 1 1 1-.8 4.36 4.36 0 0 0 6.31 0 .64.64 0 1 1 1 .8 5.37 5.37 0 0 1-4.19 1.8z" fill="#101212"/><path d="M18.8 67.96a5.35 5.35 0 0 1-4.12-1.8.64.64 0 1 1 1-.8 4.36 4.36 0 0 0 6.31 0 .64.64 0 1 1 1 .8 5.37 5.37 0 0 1-4.19 1.8z" fill="#101212"/><path d="M26.03 67.96a5.35 5.35 0 0 1-4.12-1.8.64.64 0 1 1 1-.8 4.36 4.36 0 0 0 6.31 0 .64.64 0 1 1 1 .8 5.37 5.37 0 0 1-4.19 1.8z" fill="#101212"/><path d="M33.35 67.96a5.35 5.35 0 0 1-4.12-1.8.64.64 0 1 1 1-.8 4.36 4.36 0 0 0 6.31 0 .64.64 0 1 1 1 .8 5.37 5.37 0 0 1-4.19 1.8z" fill="#101212"/><path d="M40.62 67.96a5.37 5.37 0 0 1-4.11-1.8.64.64 0 1 1 1-.8 4.36 4.36 0 0 0 6.31 0 .64.64 0 0 1 1 .8 5.37 5.37 0 0 1-4.2 1.8z" fill="#101212"/><path d="M47.89 67.96a5.37 5.37 0 0 1-4.11-1.8.64.64 0 1 1 1-.8 4.36 4.36 0 0 0 6.31 0 .64.64 0 0 1 1 .8 5.37 5.37 0 0 1-4.2 1.8z" fill="#101212"/><path d="M55.16 67.96a5.37 5.37 0 0 1-4.11-1.8.64.64 0 1 1 1-.8 4.36 4.36 0 0 0 6.31 0 .64.64 0 1 1 1 .8 5.37 5.37 0 0 1-4.2 1.8z" fill="#101212"/><path d="M62.44 67.96a5.37 5.37 0 0 1-4.11-1.8.64.64 0 1 1 1-.8 4.36 4.36 0 0 0 6.31 0 .64.64 0 1 1 1 .8 5.37 5.37 0 0 1-4.2 1.8z" fill="#101212"/><path d="M69.71 67.96a5.37 5.37 0 0 1-4.11-1.8.64.64 0 0 1 1-.8 4.36 4.36 0 0 0 6.31 0 .64.64 0 0 1 1 .8 5.38 5.38 0 0 1-4.2 1.8zM9.17 72.6a5.35 5.35 0 0 1-4.12-1.8.64.64 0 1 1 1-.8 4.36 4.36 0 0 0 6.31 0 .64.64 0 0 1 1 .8 5.37 5.37 0 0 1-4.19 1.8z" fill="#101212"/><path d="M16.44 72.6a5.35 5.35 0 0 1-4.12-1.8.64.64 0 0 1 1-.8 4.37 4.37 0 0 0 6.31 0 .64.64 0 0 1 1 .8 5.37 5.37 0 0 1-4.19 1.8z" fill="#101212"/><path d="M23.72 72.6a5.35 5.35 0 0 1-4.11-1.8.64.64 0 1 1 1-.8 4.36 4.36 0 0 0 6.31 0 .64.64 0 0 1 1 .8 5.37 5.37 0 0 1-4.2 1.8z" fill="#101212"/><path d="M31.03 72.6a5.35 5.35 0 0 1-4.12-1.8.64.64 0 1 1 1-.8 4.37 4.37 0 0 0 6.31 0 .64.64 0 1 1 1 .8 5.37 5.37 0 0 1-4.19 1.8z" fill="#101212"/><path d="M38.26 72.6a5.35 5.35 0 0 1-4.11-1.8.64.64 0 1 1 1-.8 4.36 4.36 0 0 0 6.31 0 .64.64 0 0 1 1 .8 5.37 5.37 0 0 1-4.2 1.8z" fill="#101212"/><path d="M45.53 72.6a5.37 5.37 0 0 1-4.11-1.8.64.64 0 0 1 1-.8 4.36 4.36 0 0 0 6.31 0 .64.64 0 0 1 1 .8 5.37 5.37 0 0 1-4.2 1.8z" fill="#101212"/><path d="M52.8 72.6a5.37 5.37 0 0 1-4.11-1.8.64.64 0 0 1 1-.8A4.36 4.36 0 0 0 56 70a.64.64 0 1 1 1 .8 5.37 5.37 0 0 1-4.2 1.8z" fill="#101212"/><path d="M60.03 72.6a5.37 5.37 0 0 1-4.11-1.8.64.64 0 0 1 1-.8 4.36 4.36 0 0 0 6.31 0 .64.64 0 0 1 1 .8 5.37 5.37 0 0 1-4.2 1.8z" fill="#101212"/><path d="M67.35 72.6a5.37 5.37 0 0 1-4.11-1.8.64.64 0 1 1 1-.8 4.36 4.36 0 0 0 6.31 0 .64.64 0 0 1 1 .8 5.37 5.37 0 0 1-4.2 1.8z" fill="#101212"/><path d="M74.62 72.6a5.37 5.37 0 0 1-4.11-1.8.64.64 0 1 1 1-.8 4.36 4.36 0 0 0 6.31 0 .64.64 0 0 1 1 .8 5.37 5.37 0 0 1-4.2 1.8zM27.45 62.23a.62.62 0 0 1-.62-.62V12.69l-4.86-8.32v31.72a.62.62 0 0 1-.62.63h-3.12a.62.62 0 0 1-.62-.62v-34a2 2 0 0 1 .61-1.48 2.07 2.07 0 0 1 1.53-.59 2 2 0 0 1 1.72 1l.42.73 6.14 10.45a.62.62 0 0 1 .09.32v49.08a.62.62 0 0 1-.67.62zm-8.6-26.75h1.87V2.24l-.34-.58a.79.79 0 0 0-.67-.41.88.88 0 0 0-.62.24.78.78 0 0 0-.23.58v33.41zm37.5 26.75a.62.62 0 0 1-.62-.62V12.53a.62.62 0 0 1 .09-.32l6.11-10.45.42-.73a2 2 0 0 1 1.71-1 2.14 2.14 0 0 1 1.53.59 2 2 0 0 1 .61 1.48v34a.62.62 0 0 1-.62.63h-3.12a.62.62 0 0 1-.62-.62V4.38l-4.86 8.32v48.91a.62.62 0 0 1-.63.62zm6.73-26.75h1.87V2.07a.78.78 0 0 0-.23-.58.82.82 0 0 0-.63-.24.78.78 0 0 0-.67.41l-.34.58v33.24z" fill="#101212"/><path d="M30.57 36.17a.62.62 0 0 1-.62-.62V12.69l-6.44-11a.78.78 0 0 0-.69-.41.63.63 0 0 1 0-1.25 2 2 0 0 1 1.77 1l6.53 11.18a.62.62 0 0 1 .09.31v23a.62.62 0 0 1-.64.65zm22.67 0a.62.62 0 0 1-.62-.62v-23a.62.62 0 0 1 .09-.31l6.53-11.18a2 2 0 0 1 1.77-1 .63.63 0 0 1 0 1.25.78.78 0 0 0-.69.41l-6.44 11v22.86a.62.62 0 0 1-.64.59zM30.57 63.68a.62.62 0 0 1-.62-.62V52.32a.625.625 0 1 1 1.25 0v10.73a.62.62 0 0 1-.63.63zm22.67 0a.62.62 0 0 1-.62-.62V52.32a.625.625 0 1 1 1.25 0v10.73a.62.62 0 0 1-.63.63zM30.57 49a.62.62 0 0 1-.62-.62V39.5a.625.625 0 1 1 1.25 0v8.88a.62.62 0 0 1-.63.62zm22.67 0a.62.62 0 0 1-.62-.62V39.5a.625.625 0 1 1 1.25 0v8.88a.62.62 0 0 1-.63.62z" fill="#101212"/><path d="M27.45 23.84h-6.11a.63.63 0 0 1 0-1.25h6.11a.63.63 0 0 1 0 1.25zm35.01 0h-6.11a.63.63 0 0 1 0-1.25h6.11a.63.63 0 0 1 0 1.25zm-9.22 0H30.57a.63.63 0 0 1 0-1.25h22.67a.63.63 0 0 1 0 1.25zm0 20.23H30.57a.63.63 0 0 1 0-1.25h22.67a.625.625 0 0 1 0 1.25zm-25.79 0H5.54a.63.63 0 0 1 0-1.25h21.91a.63.63 0 0 1 0 1.25zm50.82 0H56.35a.63.63 0 0 1 0-1.25h21.91a.63.63 0 1 1 .01 1.25zm-21.92-7.9h-28.9a.63.63 0 0 1 0-1.25h28.9a.625.625 0 0 1 0 1.25zm0 3.95h-28.9a.63.63 0 0 1 0-1.25h28.9a.625.625 0 0 1 0 1.25zm0 8.88h-28.9a.63.63 0 0 1 0-1.25h28.9a.625.625 0 0 1 0 1.25zm0 3.95h-28.9a.63.63 0 0 1 0-1.25h28.9a.625.625 0 0 1 0 1.25z" fill="#101212"/><path d="M33.08 42.49h-.05a.62.62 0 0 1-.55-.69l.13-1.2a.624.624 0 0 1 1.24.14l-.15 1.15a.63.63 0 0 1-.62.6zm17.74.19a.63.63 0 0 1-.62-.55l-.17-1.39a.63.63 0 1 1 1.24-.15l.17 1.39a.63.63 0 0 1-.55.7h-.07zm-16.43-7.89h-.1a.63.63 0 0 1-.51-.72l1.49-9a.63.63 0 1 1 1.23.21l-1.49 9a.63.63 0 0 1-.62.51zm15.02 0a.63.63 0 0 1-.62-.52l-1.51-9a.624.624 0 1 1 1.23-.21l1.51 9a.62.62 0 0 1-.51.72h-.1zM24.4 42.1a.63.63 0 0 1-.59-.83l1.46-4.26a.623.623 0 0 1 1.18.4l-1.42 4.26a.62.62 0 0 1-.63.43zm35.21.58a.63.63 0 0 1-.6-.43l-1.55-4.85a.63.63 0 1 1 1.19-.38l1.55 4.87a.62.62 0 0 1-.59.79zM30.57 24.04a.62.62 0 0 1-.59-.83l.07-.2a.63.63 0 0 1 1.18.4l-.07.2a.62.62 0 0 1-.59.43zm22.67 0a.63.63 0 0 1-.59-.42l-.07-.2a.623.623 0 0 1 1.18-.4l.07.2a.63.63 0 0 1-.59.82zM15.64 42.1a.63.63 0 0 1-.56-.91l2-4a.63.63 0 1 1 1.11.57l-2 4a.63.63 0 0 1-.55.34zm52.81 0a.62.62 0 0 1-.55-.34l-2.07-4a.626.626 0 1 1 1.11-.58l2.07 4a.63.63 0 0 1-.56.92zM22.44 28.83a.63.63 0 0 1-.56-.91l1.54-3a.624.624 0 1 1 1.11.57l-1.54 3a.63.63 0 0 1-.55.34zm38.95 0a.62.62 0 0 1-.56-.34l-1.5-3a.626.626 0 1 1 1.12-.56l1.5 3a.62.62 0 0 1-.28.84.62.62 0 0 1-.28.06zM5.54 44.07a.62.62 0 0 1-.52-1l12.69-18.56a.63.63 0 1 1 1 .71L6.03 43.8a.63.63 0 0 1-.49.27zm72.73 0a.63.63 0 0 1-.52-.27L65.03 25.24a.63.63 0 1 1 1-.71l12.69 18.56a.62.62 0 0 1-.45.98zM22.8 1.25h-3.07a.63.63 0 0 1 0-1.25h3.08a.63.63 0 0 1-.01 1.25zm41.23 0h-3a.63.63 0 0 1 0-1.25h3a.63.63 0 0 1 0 1.25zM41.9 42.68a.62.62 0 0 1-.62-.62v-1.39a.62.62 0 0 1 .62-.63.62.62 0 0 1 .62.62v1.39a.62.62 0 0 1-.62.63zm0-7.89a.62.62 0 0 1-.62-.62v-9a.625.625 0 1 1 1.25 0v9a.62.62 0 0 1-.63.62zM10.03 63.61a.62.62 0 0 1-.62-.62V43.45a.625.625 0 1 1 1.25 0v19.54a.62.62 0 0 1-.63.62zm6.3.08a.62.62 0 0 1-.62-.62V43.45a.625.625 0 1 1 1.25 0v19.62a.62.62 0 0 1-.63.62zm57.39-.08a.62.62 0 0 1-.62-.62V43.45a.63.63 0 0 1 1.25 0v19.54a.62.62 0 0 1-.63.62zm-6.25.08a.62.62 0 0 1-.62-.62V43.45a.625.625 0 0 1 1.25 0v19.62a.62.62 0 0 1-.63.62z" fill="#101212"/></svg>