<svg xmlns="http://www.w3.org/2000/svg" viewBox="0 0 81.25 80.47"><title>type12</title><path d="M47.36 9.17H34.01a.62.62 0 0 1-.62-.62V6.02a6 6 0 0 1 6-6h2.55a6 6 0 0 1 6 6v2.53a.62.62 0 0 1-.58.62zM34.64 7.92h12.09v-1.9a4.78 4.78 0 0 0-4.77-4.77h-2.55a4.78 4.78 0 0 0-4.77 4.77v1.9z" fill="#101212"/><path d="M54.02 80.47H27.35a5.41 5.41 0 0 1-5.4-5.4V18.58a9.47 9.47 0 0 1 6.78-9l5.11-1.49h13.68l5.11 1.49a9.47 9.47 0 0 1 6.78 9V75.1a5.41 5.41 0 0 1-5.39 5.37zM34.11 9.28l-5 1.46a8.21 8.21 0 0 0-5.88 7.84V75.1a4.16 4.16 0 0 0 4.15 4.15h26.64a4.16 4.16 0 0 0 4.15-4.15V18.58a8.21 8.21 0 0 0-5.88-7.84l-5-1.46H34.1z" fill="#101212"/><path d="M53.71 73.27H27.5a.62.62 0 0 1-.62-.62V23.1a.62.62 0 0 1 .63-.62h26.21a.62.62 0 0 1 .63.63v49.55a.62.62 0 0 1-.64.61zm-25.59-1.25h25v-48.3h-25v48.3zm8.1-62.85a.62.62 0 0 1-.62-.62v-4a.63.63 0 0 1 1.25 0v4a.62.62 0 0 1-.63.62zm2.11 0a.62.62 0 0 1-.62-.62v-4a.63.63 0 0 1 1.25 0v4a.62.62 0 0 1-.63.62zm2.16 0a.62.62 0 0 1-.62-.62v-4a.625.625 0 0 1 1.25 0v4a.62.62 0 0 1-.63.62zm2.16 0a.62.62 0 0 1-.62-.62v-4a.625.625 0 0 1 1.25 0v4a.62.62 0 0 1-.63.62zm2.15 0a.62.62 0 0 1-.62-.62v-4a.625.625 0 0 1 1.25 0v4a.62.62 0 0 1-.63.62zm29.95 71.3h-8.2a4.73 4.73 0 0 1-4.72-4.73V56.68a4.82 4.82 0 0 1 2.19-4 .62.62 0 1 1 .68 1 3.57 3.57 0 0 0-1.62 3v19.06a3.47 3.47 0 0 0 3.47 3.48h8.2a3.48 3.48 0 0 0 3.48-3.48V56.68a3.59 3.59 0 0 0-3.59-3.58h-.58a.63.63 0 0 1 0-1.25h.58a4.84 4.84 0 0 1 4.84 4.83v19.06a4.73 4.73 0 0 1-4.73 4.73zM67.4 50.74a.62.62 0 0 1-.62-.62v-3.44a.63.63 0 0 1 1.25 0v3.42a.62.62 0 0 1-.63.64zm6.65-.75a.62.62 0 0 1-.62-.62v-2.69a.63.63 0 0 1 1.25 0v2.69a.62.62 0 0 1-.63.62z" fill="#101212"/><path d="M74.05 53.1a.62.62 0 0 1-.62-.62v-.69a.63.63 0 0 1 1.25 0v.69a.62.62 0 0 1-.63.62zm.67-5.8h-8.07a1.81 1.81 0 0 1-1.81-1.81v-.34a1.81 1.81 0 0 1 1.81-1.81h8.07a1.81 1.81 0 0 1 1.81 1.81v.34a1.81 1.81 0 0 1-1.81 1.81zm-8.07-2.71a.56.56 0 0 0-.56.56v.34a.56.56 0 0 0 .56.56h8.07a.56.56 0 0 0 .56-.56v-.34a.56.56 0 0 0-.56-.56h-8.07z" fill="#101212"/><path d="M73.22 44.59h-.1a.63.63 0 0 1-.52-.72l1.07-6.62h-6l1.07 6.62a.63.63 0 1 1-1.23.2l-1.19-7.35a.62.62 0 0 1 .62-.73h7.42a.62.62 0 0 1 .62.73l-1.12 7.38a.63.63 0 0 1-.64.49zm-1 7.88a.62.62 0 0 1-.6-.47c-.19-.73 3.37-4.91 4.28-5.43a3.93 3.93 0 0 1 1.92-.53 2.46 2.46 0 0 1 2.35 1.38c.63 1.4-.18 3.24-1.86 4.18-1.44.85-5.58.87-6.09.87zm5.59-5.17a2.68 2.68 0 0 0-1.3.37 15.92 15.92 0 0 0-3.08 3.53 13.14 13.14 0 0 0 4.25-.67c1.08-.61 1.69-1.79 1.34-2.58a1.24 1.24 0 0 0-1.16-.65z" fill="#101212"/><path d="M66.96 54.96a3.4 3.4 0 0 1-3.54-2.47 2.32 2.32 0 0 1 .5-1.82 3.59 3.59 0 0 1 2.59-1.25c1.69-.12 5.77 1.6 6.22 1.79a.62.62 0 0 1 .1 1.1c-.39.26-3.85 2.52-5.54 2.64h-.32zm-.27-4.29h-.1a2.38 2.38 0 0 0-1.7.78 1.07 1.07 0 0 0-.24.84c.14.85 1.29 1.51 2.54 1.41a13.12 13.12 0 0 0 3.92-1.79 17.34 17.34 0 0 0-4.42-1.25z" fill="#101212"/><path d="M71.31 61.22h-.09a.63.63 0 0 1-.56-.69l.93-8.74a.63.63 0 1 1 1.24.13l-.93 8.74a.63.63 0 0 1-.59.56z" fill="#101212"/><path d="M80.63 59.95a.62.62 0 0 1-.42-.16l-8.39-7.47a.623.623 0 0 1 .83-.93l8.39 7.47a.63.63 0 0 1-.41 1.09zm-67.7 20.52H4.31A4.31 4.31 0 0 1 0 76.16V56.83a5.36 5.36 0 0 1 5.35-5.35h6.54a5.36 5.36 0 0 1 5.35 5.35v19.33a4.31 4.31 0 0 1-4.31 4.31zM5.35 52.73a4.1 4.1 0 0 0-4.1 4.1v19.33a3.06 3.06 0 0 0 3.06 3.06h8.62a3.06 3.06 0 0 0 3.06-3.06V56.83a4.1 4.1 0 0 0-4.1-4.1H5.35z" fill="#101212"/><path d="M12.97 53.02a.62.62 0 0 1-.62-.62v-4.3a1.6 1.6 0 0 0-1.6-1.6H6.5a1.61 1.61 0 0 0-1.6 1.6v4.27a.63.63 0 0 1-1.25 0V48.1a2.86 2.86 0 0 1 2.84-2.85h4.25a2.86 2.86 0 0 1 2.85 2.85v4.27a.62.62 0 0 1-.62.65z" fill="#101212"/><path d="M10.75 46.53a.62.62 0 0 1-.62-.62V38.1a1.5 1.5 0 0 0-3 0v7.78a.63.63 0 1 1-1.25 0V38.1a2.75 2.75 0 0 1 5.5 0v7.78a.62.62 0 0 1-.63.65zm-4.2 15.2H.63a.63.63 0 0 1 0-1.25h5.92a.63.63 0 0 1 0 1.25zm10.06 0h-5.92a.63.63 0 0 1 0-1.25h5.92a.63.63 0 0 1 0 1.25z" fill="#101212"/><path d="M8.62 76.22a2.7 2.7 0 0 1-2.7-2.7v-21.2a.62.62 0 0 1 .63-.62.62.62 0 0 1 .63.63v21.2a1.45 1.45 0 1 0 2.9 0V52.34a.62.62 0 0 1 .63-.62.62.62 0 0 1 .63.63v21.19a2.7 2.7 0 0 1-2.72 2.68z" fill="#101212"/></svg>