<svg xmlns="http://www.w3.org/2000/svg" viewBox="0 0 81.25 80.79"><title>type7</title><path d="M18.49 80.79h-4.44a1.57 1.57 0 0 1-1.51-2l17-62.93a5.24 5.24 0 0 1 5.06-3.88h5.16a3 3 0 0 1 2.89 2.22l1.15 4.33a.626.626 0 0 1-1.21.32l-1.21-4.32a1.75 1.75 0 0 0-1.69-1.3h-5.2a4 4 0 0 0-3.85 3l-17 62.93a.32.32 0 0 0 .31.4h4.54a.32.32 0 0 0 .31-.24l16.37-61.46a3 3 0 0 1 1.89-2.11 3 3 0 0 1 3.88 1.9l.28.89a.625.625 0 1 1-1.19.38l-.28-.89a1.73 1.73 0 0 0-.63-.88 1.76 1.76 0 0 0-1.63-.23 1.8 1.8 0 0 0-1.1 1.26L20.02 79.63a1.57 1.57 0 0 1-1.53 1.16zm-6-21.75h-.16a.62.62 0 0 1-.44-.76l4.76-17.89a.63.63 0 1 1 1.21.32l-4.73 17.82a.63.63 0 0 1-.64.51z" fill="#101212"/><path d="M18.16 37.88H18a.62.62 0 0 1-.44-.76l5.14-19.31a3 3 0 0 1 5.74-.14l.28.89a.625.625 0 1 1-1.19.38l-.28-.89a1.74 1.74 0 0 0-3.34.08l-5.14 19.31a.63.63 0 0 1-.61.44z" fill="#101212"/><path d="M6.01 80.79H1.57a1.57 1.57 0 0 1-1.51-2l17-62.95a5.23 5.23 0 0 1 5-3.87h5.17a3 3 0 0 1 2.89 2.22l.49 1.85a.626.626 0 0 1-1.21.32l-.46-1.83a1.75 1.75 0 0 0-1.69-1.3h-5.16a4 4 0 0 0-3.84 2.94l-17 62.95a.32.32 0 0 0 .31.4H6a.32.32 0 0 0 .31-.24l4.67-17.65a.625.625 0 1 1 1.21.31l-2.48 9.45-2.22 8.23a1.57 1.57 0 0 1-1.48 1.17z" fill="#101212"/><path d="M24.36 37.88H11.92a.63.63 0 0 1 0-1.25h12.44a.63.63 0 0 1 0 1.25zm-.87 3.27H11.03a.63.63 0 0 1 0-1.25h12.46a.625.625 0 0 1 0 1.25zm-4.83 17.89H6.21a.625.625 0 0 1 0-1.25h12.45a.625.625 0 0 1 0 1.25zm-.95 3.39H5.29a.63.63 0 0 1 0-1.25h12.42a.63.63 0 0 1 0 1.25z" fill="#101212"/><path d="M77.92 80.79h-6.26a5.24 5.24 0 0 1-4.53-2.69 6.63 6.63 0 0 0-1.15-1.43 16.86 16.86 0 0 0-7.17-3.61 31.3 31.3 0 0 0-7.63-1h-.39a30 30 0 0 0-6.58.7 17.48 17.48 0 0 0-7.19 3.19 7.31 7.31 0 0 0-1.8 2.08 5.26 5.26 0 0 1-4.58 2.77h-6.15a3.34 3.34 0 0 1-3.33-3.33v-6.94a.63.63 0 1 1 1.25 0v6.9a2.09 2.09 0 0 0 2.08 2.1h6.2a4 4 0 0 0 3.48-2.12 8.55 8.55 0 0 1 2.1-2.44 18.7 18.7 0 0 1 7.71-3.44 31.29 31.29 0 0 1 6.86-.73h.41a32.57 32.57 0 0 1 7.93 1.05 17.84 17.84 0 0 1 7.71 3.91 7.86 7.86 0 0 1 1.36 1.7 4 4 0 0 0 3.45 2.07h6.26a2.09 2.09 0 0 0 2.08-2.08V21.19a1.85 1.85 0 0 0-1.85-1.85H35.54a.625.625 0 0 1 0-1.25h42.61a3.1 3.1 0 0 1 3.1 3.1v56.27a3.34 3.34 0 0 1-3.33 3.33zm-4.06-11H22.1a.63.63 0 0 1 0-1.25h51.76a.645.645 0 0 1-.01 1.29zm0-3.44H23.01a.625.625 0 0 1 0-1.25h50.84a.645.645 0 0 1 0 1.29zM21.74 47.57a.62.62 0 0 1-.62-.62v-6.42a.63.63 0 1 1 1.25 0v6.46a.62.62 0 0 1-.63.62zm0-9.73a.62.62 0 0 1-.62-.62v-13.4a.63.63 0 0 1 1.25 0v13.43a.62.62 0 0 1-.63.63zm7.63-18.54H23.1a.625.625 0 0 1 0-1.25h6.27a.645.645 0 0 1 0 1.29z" fill="#101212"/><path d="M80.63 30.65H32.49a.63.63 0 0 1 0-1.25h47.47v-2.19H33.49a.63.63 0 0 1 0-1.25h47.18a.62.62 0 0 1 .63.63v3.44a.62.62 0 0 1-.67.62zm-54.31 0h-4.58a.62.62 0 0 1-.62-.62v-3.5a.62.62 0 0 1 .63-.62h5.51a.63.63 0 0 1 0 1.25h-4.88v2.19h4a.65.65 0 0 1-.06 1.3zm10.31 39.18H22.1a.63.63 0 0 1 0-1.25h14.53a.625.625 0 0 1 0 1.25zm0-3.44H23.01a.625.625 0 0 1 0-1.25h13.62a.625.625 0 0 1 0 1.25zm44 3.44H44.07a.63.63 0 0 1 0-1.25H80v-2.19H44.07a.63.63 0 0 1 0-1.25h36.55a.62.62 0 0 1 .63.63v3.44a.62.62 0 0 1-.62.62zm-6.78-5.03a.62.62 0 0 1-.62-.62V31.61a.63.63 0 1 1 1.25 0v32.56a.62.62 0 0 1-.63.63zm0-39.19a.62.62 0 0 1-.62-.62v-4.67a.63.63 0 0 1 1.25 0v4.67a.62.62 0 0 1-.63.62zm0 53.33a.62.62 0 0 1-.62-.62v-7.2a.63.63 0 0 1 1.25 0v7.2a.62.62 0 0 1-.63.62zM66.41 64.8a.62.62 0 0 1-.62-.62V31.61a.63.63 0 1 1 1.25 0v32.56a.62.62 0 0 1-.63.63zm0-39.19a.62.62 0 0 1-.62-.62v-4.67a.63.63 0 0 1 1.25 0v4.67a.62.62 0 0 1-.63.62zm0 49.31a.62.62 0 0 1-.62-.62v-3.19a.63.63 0 0 1 1.25 0v3.19a.62.62 0 0 1-.63.62zM58.96 64.8a.62.62 0 0 1-.62-.62V31.61a.63.63 0 0 1 1.25 0v32.56a.62.62 0 0 1-.63.63zm0-39.19a.62.62 0 0 1-.62-.62v-4.67a.63.63 0 1 1 1.25 0v4.67a.62.62 0 0 1-.63.62zM51.18 64.8a.62.62 0 0 1-.62-.62V31.61a.63.63 0 0 1 1.25 0v32.56a.62.62 0 0 1-.63.63zm0-39.19a.62.62 0 0 1-.62-.62v-4.67a.63.63 0 1 1 1.25 0v4.67a.62.62 0 0 1-.63.62zm-7.11 0a.62.62 0 0 1-.62-.62v-4.67a.63.63 0 1 1 1.25 0v4.67a.62.62 0 0 1-.63.62zm0 39.19a.62.62 0 0 1-.62-.62V31.61a.63.63 0 0 1 1.25 0v32.56a.62.62 0 0 1-.63.63zm-7.44 0a.62.62 0 0 1-.62-.62V31.61a.625.625 0 1 1 1.25 0v32.56a.62.62 0 0 1-.63.63zm0-39.19a.62.62 0 0 1-.62-.62v-4.67a.625.625 0 1 1 1.25 0v4.67a.62.62 0 0 1-.63.62zm0 48.8a.62.62 0 0 1-.62-.62v-2.68a.625.625 0 1 1 1.25 0v2.68a.62.62 0 0 1-.63.62zm-7.45 4.53a.62.62 0 0 1-.62-.62v-7.2a.625.625 0 1 1 1.25 0v7.2a.62.62 0 0 1-.63.62zm0-58.91a.62.62 0 0 1-.62-.62v-.69a.625.625 0 1 1 1.25 0v.69a.62.62 0 0 1-.63.62zm0 44.77a.62.62 0 0 1-.62-.62V48.91a.625.625 0 1 1 1.25 0v15.27a.62.62 0 0 1-.63.62zM69.49 6.46h-7.15a.62.62 0 0 1-.62-.62V4.09a2.84 2.84 0 0 1 2.84-2.84h16.06a.62.62 0 0 1 .63.63v1.75a.62.62 0 0 1-.62.63h-8.92a1.59 1.59 0 0 0-1.59 1.59.62.62 0 0 1-.63.61zm-6.52-1.25h6A2.84 2.84 0 0 1 71.74 3h8.29v-.47H64.56a1.59 1.59 0 0 0-1.59 1.59v1.13z" fill="#101212"/><path d="M80.63 15a.62.62 0 0 1-.62-.62V.62a.625.625 0 1 1 1.25 0v13.75a.62.62 0 0 1-.63.63zm-17.25 4.34a.62.62 0 0 1-.62-.62V5.83a.63.63 0 1 1 1.25 0v12.88a.62.62 0 0 1-.63.63zm4.95 0a.62.62 0 0 1-.62-.62V5.83a.625.625 0 1 1 1.25 0v12.88a.62.62 0 0 1-.63.63zm-1.92 0a.62.62 0 0 1-.62-.62V6.45a.63.63 0 0 1 1.25 0v12.27a.62.62 0 0 1-.63.62z" fill="#101212"/></svg>