<svg xmlns="http://www.w3.org/2000/svg" viewBox="0 0 85.24 62.77"><title>type8</title><path d="M42.5 56.35c-7.75 0-14.29-6.6-15.92-16a24.33 24.33 0 0 1-.37-3.43.625.625 0 1 1 1.25 0 23.08 23.08 0 0 0 .35 3.26c1.53 8.84 7.57 15 14.69 15s13.42-6.31 15-15c.14-.77.23-1.47.29-2.13a.61.61 0 0 1 .68-.57.62.62 0 0 1 .57.68c-.06.7-.16 1.44-.3 2.25-1.72 9.35-8.39 15.94-16.24 15.94z" fill="#101212"/><path d="M58.4 38.65a.63.63 0 0 1-.56-.89 20.58 20.58 0 0 0 1.88-5.9 21.8 21.8 0 0 0 .25-3.29c0-8.22-4.52-15.47-11-17.63a.63.63 0 0 1 .4-1.19c7 2.33 11.86 10.07 11.86 18.82a23 23 0 0 1-.27 3.48 21.82 21.82 0 0 1-2 6.26.63.63 0 0 1-.56.34z" fill="#101212"/><path d="M58.4 38.02h-.62v-.2a16.31 16.31 0 0 0-.24-2.62c-1.52-7.67-7.65-13.23-14.59-13.23a14.64 14.64 0 0 0-8.08 2.39 13.68 13.68 0 0 0-2.34 2 .63.63 0 0 1-.9-.86 14.92 14.92 0 0 1 2.56-2.14 15.88 15.88 0 0 1 8.77-2.6c7.53 0 14.18 6 15.82 14.23a17.55 17.55 0 0 1 .27 2.82v.23zm1.93-5.5a.63.63 0 0 1-.54-.94 21.81 21.81 0 0 0 2.77-10.81c0-8.51-4.62-16-11.23-18.16a.626.626 0 0 1 .39-1.19c7.12 2.35 12.09 10.31 12.09 19.35a23.05 23.05 0 0 1-2.93 11.43.62.62 0 0 1-.55.32z" fill="#101212"/><path d="M26.83 37.52a.62.62 0 0 1-.58-.4 17 17 0 0 1-1.12-6.09 16 16 0 0 1 .49-3.93c2.06-8.2 10.49-14.39 20.5-15.06a.62.62 0 0 1 .67.64l-.2 6.06a1.63 1.63 0 0 1-1.4 1.55 23.67 23.67 0 0 0-10.3 4.07 20.54 20.54 0 0 0-2.38 2l-.09.09a17.14 17.14 0 0 0-3.89 5.78 15.74 15.74 0 0 0-1.07 4.72.62.62 0 0 1-.53.58h-.1zm18.68-24.17c-9.17.86-16.8 6.57-18.68 14.06a14.81 14.81 0 0 0-.45 3.63 16.15 16.15 0 0 0 .28 2.95 16.11 16.11 0 0 1 .71-2.23 18.37 18.37 0 0 1 4.16-6.19l.09-.09a21.78 21.78 0 0 1 2.53-2.12A24.92 24.92 0 0 1 45 19.07a.39.39 0 0 0 .34-.36z" fill="#101212"/><path d="M26.21 27.84a.63.63 0 0 1-.61-.49 19.87 19.87 0 0 1-.48-4.37c0-12.39 11.31-22.49 25.76-23a1.41 1.41 0 0 1 1.13.53 1.36 1.36 0 0 1 .24 1.22l-2.9 10.17a1.78 1.78 0 0 1-1.69 1.3h-1.47a.63.63 0 1 1-.07-1.25h1.52a.54.54 0 0 0 .51-.39l2.9-10.17a.11.11 0 0 0 0-.11.11.11 0 0 0-.11 0c-13.77.48-24.55 10-24.55 21.74a18.6 18.6 0 0 0 .45 4.09.63.63 0 0 1-.47.75zm6.94 34.93H4.83a4.83 4.83 0 0 1-3.87-7.72c5.31-7.16 14.82-12.79 26.09-15.45a.63.63 0 1 1 .29 1.22c-11 2.59-20.23 8.05-25.37 15a3.58 3.58 0 0 0 2.86 5.73h28.33a.62.62 0 0 1-.01 1.22zm47.26 0H36.35a2.69 2.69 0 0 1-2.21-1.24 2.64 2.64 0 0 1-.46-1.42 2.77 2.77 0 0 1 2.67-2.66h9.16a.625.625 0 0 1 0 1.25h-9.16a1.53 1.53 0 0 0-1.42 1.41 1.41 1.41 0 0 0 .25.74 1.47 1.47 0 0 0 1.17.68h44.06a3.58 3.58 0 0 0 2.87-5.73c-5.14-6.92-14.36-12.37-25.31-15a.627.627 0 0 1 .29-1.22c11.23 2.66 20.71 8.29 26 15.44a4.83 4.83 0 0 1-3.85 7.75z" fill="#101212"/><path d="M51.97 57.98a.63.63 0 1 1 0-1.25c2.48 0 4.43-1 6.69-2.2a25.58 25.58 0 0 1 7.28-2.82 25 25 0 0 1 12.37 1.07.627.627 0 0 1-.45 1.17 21.21 21.21 0 0 0-18.65 1.69c-2.28 1.21-4.46 2.34-7.24 2.34zm-19.51 0c-2.79 0-5-1.14-7.27-2.34a21.22 21.22 0 0 0-18.63-1.69.627.627 0 0 1-.45-1.17 25.08 25.08 0 0 1 12.37-1.07 25.58 25.58 0 0 1 7.28 2.82c2.26 1.18 4.21 2.2 6.69 2.2a.625.625 0 0 1 .01 1.25zm10.04-7.76a9 9 0 0 1-6.34-2.58l-.1-.09a.63.63 0 0 1 .88-.89l.09.09a7.83 7.83 0 0 0 11-.09.626.626 0 1 1 .89.88 9 9 0 0 1-6.42 2.68zM30.9 39.11a.63.63 0 0 1-.44-1.06 6.1 6.1 0 0 1 8.57-.06l-.38.5-.44.44-.06-.06a4.84 4.84 0 0 0-6.81.05.63.63 0 0 1-.44.19zm15.46 0a.63.63 0 0 1-.44-1.06 6.09 6.09 0 0 1 8.57-.06.66.66 0 0 1 .05.9.59.59 0 0 1-.84.07l-.06-.06a4.84 4.84 0 0 0-6.83 0 .63.63 0 0 1-.45.21z" fill="#101212"/></svg>