<svg xmlns="http://www.w3.org/2000/svg" viewBox="0 0 81.25 80.71"><title>type11</title><path d="M80.54 34.34a.62.62 0 0 1-.26-.06L45.49 17.99a.63.63 0 0 1-.2-.14l-15-16.41a.61.61 0 0 0-.42-.18.55.55 0 0 0-.41.19L1.27 34.12a.63.63 0 0 1-.95-.82L28.49.63a1.81 1.81 0 0 1 2.7 0l14.95 16.32 34.67 16.24a.62.62 0 0 1-.27 1.15zm-2.99 41.01H3.62A3.62 3.62 0 0 1 0 71.73V59.41a3.62 3.62 0 0 1 3.62-3.62h73.93a3.62 3.62 0 0 1 3.62 3.62v12.32a3.62 3.62 0 0 1-3.62 3.62zM3.62 57.04a2.37 2.37 0 0 0-2.37 2.37v12.32a2.37 2.37 0 0 0 2.37 2.37h73.93a2.37 2.37 0 0 0 2.37-2.37V59.41a2.37 2.37 0 0 0-2.37-2.37H3.62zm1.12 23.67a5.82 5.82 0 0 1-4.47-2 .64.64 0 0 1 1-.8 4.85 4.85 0 0 0 7 0 .64.64 0 0 1 1 .8 5.84 5.84 0 0 1-4.53 2z" fill="#101212"/><path d="M12.72 80.71a5.82 5.82 0 0 1-4.47-2 .64.64 0 0 1 1-.8 4.86 4.86 0 0 0 7 0 .64.64 0 1 1 1 .8 5.84 5.84 0 0 1-4.53 2z" fill="#101212"/><path d="M20.71 80.71a5.82 5.82 0 0 1-4.47-2 .64.64 0 1 1 1-.8 4.86 4.86 0 0 0 7 0 .64.64 0 0 1 1 .8 5.84 5.84 0 0 1-4.53 2z" fill="#101212"/><path d="M28.7 80.71a5.82 5.82 0 0 1-4.47-2 .64.64 0 1 1 1-.8 4.86 4.86 0 0 0 7 0 .64.64 0 0 1 1 .8 5.84 5.84 0 0 1-4.53 2z" fill="#101212"/><path d="M36.69 80.71a5.82 5.82 0 0 1-4.47-2 .64.64 0 0 1 1-.8 4.85 4.85 0 0 0 7 0 .64.64 0 0 1 1 .8 5.83 5.83 0 0 1-4.53 2z" fill="#101212"/><path d="M44.67 80.71a5.83 5.83 0 0 1-4.47-2 .64.64 0 0 1 1-.8 4.86 4.86 0 0 0 7 0 .64.64 0 1 1 1 .8 5.84 5.84 0 0 1-4.53 2z" fill="#101212"/><path d="M52.66 80.71a5.83 5.83 0 0 1-4.47-2 .64.64 0 1 1 1-.8 4.85 4.85 0 0 0 7 0 .64.64 0 1 1 1 .8 5.84 5.84 0 0 1-4.53 2z" fill="#101212"/><path d="M60.65 80.71a5.83 5.83 0 0 1-4.47-2 .64.64 0 1 1 1-.8 4.86 4.86 0 0 0 7 0 .64.64 0 0 1 1 .8 5.84 5.84 0 0 1-4.53 2z" fill="#101212"/><path d="M68.64 80.71a5.83 5.83 0 0 1-4.47-2 .64.64 0 0 1 1-.8 4.86 4.86 0 0 0 7 0 .64.64 0 0 1 1 .8 5.84 5.84 0 0 1-4.53 2z" fill="#101212"/><path d="M76.63 80.71a5.83 5.83 0 0 1-4.47-2 .64.64 0 1 1 1-.8 4.86 4.86 0 0 0 7 0 .64.64 0 1 1 1 .8 5.84 5.84 0 0 1-4.53 2zm1.71-7.55a.62.62 0 0 1-.62-.62V58.61a.63.63 0 0 1 1.25 0v13.92a.62.62 0 0 1-.63.63z" fill="#101212"/><path d="M77.78 73.16a.62.62 0 0 1-.39-.14l-8.75-7a.634.634 0 0 1 .78-1l8.75 7a.63.63 0 0 1-.39 1.14zm-10.4-8.27a.64.64 0 0 1-.39-.14l-7.1-5.65a.634.634 0 1 1 .78-1l7.08 5.63a.62.62 0 0 1-.37 1.16zm7.11 8.27a.62.62 0 0 1-.39-.14l-7.08-5.63a.62.62 0 0 1 .36-1.13.63.63 0 0 1 .39.14l7.1 5.65a.63.63 0 0 1-.38 1.11zm-8.76-6.94a.62.62 0 0 1-.39-.14l-8.76-7a.634.634 0 0 1 .78-1l8.76 7a.62.62 0 0 1-.39 1.14z" fill="#101212"/><path d="M60.27 73.16a.63.63 0 0 1-.39-1.11l7.1-5.65h.05l10.35-8.23a.634.634 0 1 1 .78 1l-10.4 8.27h-.05l-7.05 5.61a.62.62 0 0 1-.39.11zm-3.29 0a.62.62 0 0 1-.39-1.11l10.4-8.27h.05l7.05-5.61a.634.634 0 1 1 .78 1l-7.1 5.65h-.05l-10.35 8.24a.62.62 0 0 1-.39.1zm-6 0a.62.62 0 0 1-.39-.14L33.09 59.1a.634.634 0 0 1 .78-1l17.51 13.92a.63.63 0 0 1-.4 1.14zm-3.29 0a.62.62 0 0 1-.39-.14L29.8 59.1a.634.634 0 1 1 .78-1l17.5 13.92a.63.63 0 0 1-.39 1.14z" fill="#101212"/><path d="M42.24 66.22a.62.62 0 0 1-.39-1.11l8.75-7a.634.634 0 0 1 .78 1l-8.75 7a.62.62 0 0 1-.39.11zm-8.75 6.94a.62.62 0 0 1-.39-1.11l7.11-5.65a.634.634 0 1 1 .78 1l-7.11 5.65a.62.62 0 0 1-.39.11zm7.1-8.27a.62.62 0 0 1-.39-1.11l7.1-5.65a.634.634 0 1 1 .78 1l-7.1 5.65a.62.62 0 0 1-.39.11zm-10.4 8.27a.63.63 0 0 1-.39-1.11l8.75-7a.634.634 0 1 1 .78 1l-8.75 7a.62.62 0 0 1-.39.11zm-6 0a.62.62 0 0 1-.39-.14l-8.75-7a.634.634 0 0 1 .78-1l8.75 7a.63.63 0 0 1-.39 1.14zm-10.4-8.27a.64.64 0 0 1-.39-.14L6.3 59.1a.634.634 0 0 1 .78-1l7.08 5.63a.62.62 0 0 1-.37 1.16zm7.11 8.27a.62.62 0 0 1-.39-.14l-7.08-5.63a.62.62 0 0 1 .36-1.13.63.63 0 0 1 .39.14l7.1 5.65a.63.63 0 0 1-.38 1.11zm-8.75-6.94a.62.62 0 0 1-.39-.14l-8.76-7a.634.634 0 1 1 .78-1l8.76 7a.62.62 0 0 1-.39 1.14z" fill="#101212"/><path d="M6.69 73.16a.63.63 0 0 1-.39-1.11l7.1-5.65h.05l10.35-8.23a.634.634 0 1 1 .78 1l-10.4 8.27h-.05l-7.05 5.61a.62.62 0 0 1-.39.11zm-3.3 0A.62.62 0 0 1 3 72.05l10.4-8.27h.05l7.04-5.66a.634.634 0 0 1 .78 1l-7.1 5.65h-.05L3.77 73.01a.62.62 0 0 1-.38.15zm31.28-16.11a.62.62 0 0 1-.62-.62V43.87a1.21 1.21 0 0 0-1.21-1.21h-6a1.21 1.21 0 0 0-1.21 1.21v12.55a.625.625 0 1 1-1.25 0V43.87a2.46 2.46 0 0 1 2.46-2.46h6a2.46 2.46 0 0 1 2.46 2.46v12.55a.62.62 0 0 1-.63.63zM29.83 28.1a5.35 5.35 0 1 1 5.35-5.35 5.35 5.35 0 0 1-5.35 5.35zm0-9.45a4.1 4.1 0 1 0 4.1 4.1 4.1 4.1 0 0 0-4.1-4.1z" fill="#101212"/><path d="M29.83 26.37a3.62 3.62 0 1 1 3.62-3.62 3.62 3.62 0 0 1-3.62 3.62zm0-6a2.37 2.37 0 1 0 2.37 2.37 2.37 2.37 0 0 0-2.37-2.35zM78.4 36.64H3.09a2.92 2.92 0 0 1-2.92-2.92.625.625 0 1 1 1.25 0 1.67 1.67 0 0 0 1.67 1.67H78.4a1.52 1.52 0 0 0 1.52-1.52v-.15a.625.625 0 1 1 1.25 0v.15a2.77 2.77 0 0 1-2.77 2.77z" fill="#101212"/><path d="M10.98 41.76a.63.63 0 0 1 0-1.25 2 2 0 0 0 0-3.84.63.63 0 0 1 0-1.25 3.19 3.19 0 0 1 0 6.34zm-2.68 0a3.2 3.2 0 0 1 0-6.34.63.63 0 0 1 0 1.25 2 2 0 0 0 0 3.84.63.63 0 1 1 0 1.25z" fill="#101212"/><path d="M10.98 46.86a.63.63 0 0 1 0-1.25 2 2 0 0 0 0-3.84.63.63 0 0 1 0-1.25 3.19 3.19 0 0 1 0 6.34zm-2.68 0a3.2 3.2 0 0 1 0-6.34.63.63 0 1 1 0 1.25 2 2 0 0 0 0 3.84.63.63 0 0 1 0 1.25z" fill="#101212"/><path d="M10.98 51.95a.63.63 0 0 1 0-1.25 2 2 0 0 0 0-3.84.63.63 0 0 1 0-1.25 3.19 3.19 0 0 1 0 6.34zm-2.68 0a3.2 3.2 0 0 1 0-6.34.63.63 0 0 1 0 1.25 2 2 0 0 0 0 3.84.63.63 0 0 1 0 1.25z" fill="#101212"/><path d="M10.98 57.04a.63.63 0 0 1 0-1.25 2 2 0 0 0 0-3.84.63.63 0 0 1 0-1.25 3.19 3.19 0 0 1 0 6.34zm-2.68 0a3.2 3.2 0 0 1 0-6.34.63.63 0 0 1 0 1.25 2 2 0 0 0 0 3.84.63.63 0 0 1 0 1.25zm40.37-15.28a3.19 3.19 0 0 1 0-6.34.625.625 0 0 1 0 1.25 2 2 0 0 0 0 3.84.625.625 0 0 1 0 1.25zm2.68 0a.63.63 0 1 1 0-1.25 2 2 0 0 0 0-3.84.63.63 0 0 1 0-1.25 3.2 3.2 0 0 1 0 6.34z" fill="#101212"/><path d="M48.67 46.86a3.19 3.19 0 0 1 0-6.34.625.625 0 0 1 0 1.25 2 2 0 0 0 0 3.84.625.625 0 0 1 0 1.25zm2.68 0a.63.63 0 0 1 0-1.25 2 2 0 0 0 0-3.84.63.63 0 1 1 0-1.25 3.2 3.2 0 0 1 0 6.34z" fill="#101212"/><path d="M48.67 51.95a3.19 3.19 0 0 1 0-6.34.625.625 0 0 1 0 1.25 2 2 0 0 0 0 3.84.625.625 0 0 1 0 1.25zm2.68 0a.63.63 0 0 1 0-1.25 2 2 0 0 0 0-3.84.63.63 0 0 1 0-1.25 3.2 3.2 0 0 1 0 6.34z" fill="#101212"/><path d="M48.67 57.04a3.19 3.19 0 0 1 0-6.34.625.625 0 0 1 0 1.25 2 2 0 0 0 0 3.84.625.625 0 0 1 0 1.25zm2.68 0a.63.63 0 0 1 0-1.25 2 2 0 0 0 0-3.84.63.63 0 0 1 0-1.25 3.2 3.2 0 0 1 0 6.34zm-6.47-17.82h-30.1a.63.63 0 0 1 0-1.25h30.1a.625.625 0 0 1 0 1.25zm19.92-8.64H8.4a.63.63 0 0 1 0-1.25h56.4a.63.63 0 0 1 0 1.25zm-40.76-5.09H12.8a.625.625 0 0 1 0-1.25h11.24a.63.63 0 0 1 0 1.25zm28.94 0H35.61a.63.63 0 0 1 0-1.25h17.36a.63.63 0 0 1 .01 1.25zm-28.6-4.8h-7.42a.625.625 0 0 1 0-1.25h7.42a.625.625 0 0 1 0 1.25zm19.01 0h-8.12a.63.63 0 0 1 0-1.25h8.12a.63.63 0 0 1 0 1.25zm-4.9-5.38H21.61a.63.63 0 0 1 0-1.25h16.88a.63.63 0 0 1 0 1.25zm-4.61-5.09h-7.86a.63.63 0 0 1 0-1.25h7.86a.63.63 0 0 1 0 1.25zM23.42 44.31h-8.64a.63.63 0 0 1 0-1.25h8.64a.63.63 0 1 1 0 1.25zm21.46 0h-8.64a.63.63 0 1 1 0-1.25h8.64a.63.63 0 0 1 0 1.25zM23.42 49.4h-8.64a.63.63 0 0 1 0-1.25h8.64a.63.63 0 0 1 0 1.25zm21.46 0h-8.64a.63.63 0 0 1 0-1.25h8.64a.63.63 0 0 1 0 1.25zm-21.46 5.1h-8.64a.63.63 0 0 1 0-1.25h8.64a.63.63 0 0 1 0 1.25zm21.46 0h-8.64a.63.63 0 0 1 0-1.25h8.64a.625.625 0 0 1 0 1.25zm31.75 2.54a.62.62 0 0 1-.62-.62V36.01a.625.625 0 1 1 1.25 0v20.41a.62.62 0 0 1-.63.62zm-3.99 0a.62.62 0 0 1-.62-.62V36.01a.63.63 0 0 1 1.25 0v20.41a.62.62 0 0 1-.63.62zM10.49 23.13a.62.62 0 0 1-.62-.62V9.37a.62.62 0 0 1 .63-.62h5.1a.62.62 0 0 1 .63.63v7.23a.63.63 0 0 1-1.25 0v-6.6h-3.85v12.52a.62.62 0 0 1-.64.6z" fill="#101212"/><path d="M72.58 34.34H5.42a1.47 1.47 0 0 1-1.11-2.43L28.49 3.98a1.87 1.87 0 0 1 2.7 0l14.14 15.59 27.83 12a1.47 1.47 0 0 1-.58 2.77zM29.85 4.61a.55.55 0 0 0-.42.19L5.26 32.73a.22.22 0 0 0 .16.36h67.16a.22.22 0 0 0 .09-.41l-28-12a.63.63 0 0 1-.22-.15L30.22 4.84a.55.55 0 0 0-.37-.23zm-1.58 68.55a.62.62 0 0 1-.62-.62V58.61a.63.63 0 0 1 1.25 0v13.92a.62.62 0 0 1-.63.63zm-2.2 0a.62.62 0 0 1-.62-.62V58.61a.625.625 0 0 1 1.25 0v13.92a.62.62 0 0 1-.63.63zm29.24 0a.62.62 0 0 1-.62-.62V58.61a.625.625 0 0 1 1.25 0v13.92a.62.62 0 0 1-.63.63zm-2.19 0a.62.62 0 0 1-.62-.62V58.61a.63.63 0 0 1 1.25 0v13.92a.62.62 0 0 1-.63.63zm-50.29 0a.62.62 0 0 1-.62-.62V58.61a.63.63 0 0 1 1.25 0v13.92a.62.62 0 0 1-.63.63z" fill="#101212"/><path d="M80.54 59.22H.63a.63.63 0 0 1 0-1.25h79.92a.63.63 0 0 1-.01 1.25zm0 13.94H.63a.63.63 0 0 1 0-1.25h79.92a.63.63 0 0 1-.01 1.25z" fill="#101212"/></svg>