<svg xmlns="http://www.w3.org/2000/svg" viewBox="0 0 81.25 77.47"><title>type5</title><path d="M59.03 59.51a3.08 3.08 0 0 1-1.19-.24l-40.6-16.88a3.12 3.12 0 0 1-1.37-4.64l25.08-36.4a3.11 3.11 0 0 1 4.82-.38l21.44 22.65a.63.63 0 1 1-.91.86L44.87 1.87a1.86 1.86 0 0 0-2.89.23L16.9 38.5a1.87 1.87 0 0 0 .82 2.78l40.64 16.88a1.87 1.87 0 0 0 2.25-.66l10.42-15.2a.63.63 0 0 1 1 .71L61.65 58.17a3.13 3.13 0 0 1-2.62 1.34z" fill="#101212"/><path d="M26.65 46.25a.63.63 0 0 1-.24 0l-2.7-1.12a.62.62 0 0 1-.27-.93l26.19-38a.63.63 0 0 1 .47-.27.62.62 0 0 1 .5.19l2 2.13a.63.63 0 0 1 .06.78l-10.8 15.63a.62.62 0 0 1-1-.71L51.38 8.68l-1.13-1.2L24.9 44.22l1.53.65 10.18-14.78a.63.63 0 0 1 1 .71L27.17 45.98a.63.63 0 0 1-.52.27zm27.07 11.24a.62.62 0 0 1-.24 0l-2.71-1.12a.63.63 0 0 1-.28-.93l12.17-17.66a.62.62 0 1 1 1 .71l-11.73 17 1.53.63 11.57-16.81a.62.62 0 1 1 1 .71l-11.85 17.2a.62.62 0 0 1-.46.27zm2.61-34.39a.62.62 0 0 1-.43-.17l-7.26-6.88a.63.63 0 1 1 .86-.91l7.26 6.88a.63.63 0 0 1-.43 1.08zM44.58 12.63a.62.62 0 0 1-.45-.19l-4.95-5.11a.63.63 0 1 1 .9-.87l4.95 5.11a.62.62 0 0 1-.45 1.06zm8.1 38.01a.62.62 0 0 1-.27-.06L31.8 40.87a.624.624 0 0 1 .53-1.13l20.61 9.75a.62.62 0 0 1-.26 1.15zm8.95 4.54a.62.62 0 0 1-.22 0l-3.63-1.36a.625.625 0 1 1 .44-1.17l3.63 1.36a.63.63 0 0 1-.22 1.17zM27.12 37.97a.62.62 0 0 1-.25-.05l-6.53-2.8a.625.625 0 1 1 .49-1.15l6.53 2.8a.62.62 0 0 1-.24 1.2zm19.64-13.91a.62.62 0 0 1-.41-.15l-1.95-1.68a.624.624 0 0 1 .81-.95l1.95 1.68a.63.63 0 0 1-.4 1.1zm-6.54-5.1a.62.62 0 0 1-.4-.15l-5.34-4.53a.643.643 0 0 1 .81-1l5.33 4.59a.63.63 0 0 1-.4 1.09zm15.67 27.01a.62.62 0 0 1-.31-.08L36.03 34.63a.63.63 0 0 1 .62-1.08l19.57 11.26a.63.63 0 0 1-.33 1.16zm8.57 5.1a.62.62 0 0 1-.29-.07l-3.36-1.75a.63.63 0 1 1 .58-1.11l3.36 1.73a.63.63 0 0 1-.29 1.2zM31.49 31.63a.62.62 0 0 1-.3-.08l-6.16-3.37a.622.622 0 1 1 .6-1.09l6.14 3.38a.62.62 0 0 1-.28 1.16zm13.43-.09a.63.63 0 1 1 .63-.62.62.62 0 0 1-.63.63zm14.18 9.77a.63.63 0 0 1-.35-.11l-4.24-2.92a.63.63 0 0 1 .71-1l4.24 2.92a.63.63 0 0 1-.36 1.11zm8.19 5.65a.62.62 0 0 1-.35-.11l-3.1-2.13a.62.62 0 0 1 .71-1l3.1 2.13a.62.62 0 0 1-.36 1.11zM35.85 25.3a.62.62 0 0 1-.35-.11l-5.74-4a.62.62 0 0 1 .71-1l5.74 4a.62.62 0 0 1-.36 1.11z" fill="#101212"/><path d="M68.64 43.3a.62.62 0 0 1-.49-.24 17.16 17.16 0 0 0-3-2.9 16.47 16.47 0 0 0-2.31-1.52 17.47 17.47 0 0 0-6.51-2.06l-3-.3-11.82-1.18a5.75 5.75 0 0 1-5-4.53 5.47 5.47 0 0 1-.12-1.14 5.79 5.79 0 0 1 4.86-5.73 6.26 6.26 0 0 1 .85-.07l35.61-.28a3.46 3.46 0 0 1 2.42 1 3.39 3.39 0 0 1 1 2.41l.1 13.06a3.42 3.42 0 0 1-3.39 3.44l-9.22.07zm-15-8.25l2.91.29a18.71 18.71 0 0 1 7 2.21 17.62 17.62 0 0 1 2.48 1.63 18.4 18.4 0 0 1 3 2.87l8.92-.07a2.16 2.16 0 0 0 2.15-2.18L80 26.74a2.15 2.15 0 0 0-.65-1.52 2.22 2.22 0 0 0-1.53-.62l-35.72.27a5.11 5.11 0 0 0-.67.05 4.53 4.53 0 0 0-3.79 4.49 4.2 4.2 0 0 0 .1.89 4.5 4.5 0 0 0 3.9 3.57l11.88 1.19h.07zm-9.95-3.23a2.7 2.7 0 0 1-2.09-4.41.637.637 0 0 1 1 .79 1.45 1.45 0 0 0 1.12 2.37 1.45 1.45 0 0 0 1.25-.73.627.627 0 1 1 1.09.62 2.7 2.7 0 0 1-2.32 1.36zM.83 77.47a.63.63 0 0 1-.62-.62L.03 51.21c-.06-7.24 3.23-14.2 9.26-19.61 5-4.45 11.34-7.36 16.23-7.4a.61.61 0 0 1 .63.62.62.62 0 0 1-.62.63c-4.61 0-10.65 2.81-15.41 7.08-5.76 5.16-8.9 11.79-8.84 18.67l.17 25.67a.63.63 0 0 1-.62.63z" fill="#101212"/><path d="M8.34 77.41a.63.63 0 0 1-.62-.62l-.2-25.64c-.09-11.34 7.83-19.78 15.28-23.89a.622.622 0 1 1 .6 1.09c-7.13 3.94-14.72 12-14.63 22.79l.2 25.64a.63.63 0 0 1-.62.63z" fill="#101212"/><path d="M11.03 77.39a.63.63 0 0 1-.62-.62l-.15-21.9c-.05-6.75 1.15-11.27 3.9-14.63a.637.637 0 1 1 1 .79c-2.55 3.13-3.67 7.39-3.62 13.83l.17 21.9a.62.62 0 0 1-.62.63zm34.42-46.62a.63.63 0 0 1-.52-1 1.44 1.44 0 0 0 .17-.7 1.45 1.45 0 0 0-1.46-1.44 1.46 1.46 0 0 0-1.11.53.637.637 0 1 1-1-.79 2.7 2.7 0 0 1 2.07-1 2.7 2.7 0 0 1 2.35 4 .62.62 0 0 1-.5.4z" fill="#101212"/></svg>