<svg xmlns="http://www.w3.org/2000/svg" viewBox="0 0 124.03733 21.096399" height="21.096" width="124.037"><defs><clipPath id="a"><path d="M0 15.822h93.028V0H0z"/></clipPath></defs><g clip-path="url(#a)" transform="matrix(1.33333 0 0 -1.33333 0 21.096)"><path d="M14.706 15.61c.736-.367 7.645-5.871 7.645-7.708 0-1.946-5.866-6.392-7.334-7.437C14.767.289 13.829 0 13.829 0s4.027 5.685 4.028 7.902c0 2.222-4.028 7.92-4.028 7.92s.585-.065.877-.211" fill="#fdcd35"/><path d="M6.01 7.306H2.261V3.08h3.432c1.547 0 3.193.18 3.193 2.103 0 1.845-1.626 2.123-2.876 2.123m-.376 5.713H2.261V9.23l3.69-.02c1.31 0 2.38.556 2.38 1.905 0 1.388-1.03 1.904-2.697 1.904m.237 1.964c2.896 0 4.761-1.15 4.761-3.512 0-1.686-1.012-2.678-2.182-3.055 1.25-.356 2.738-1.308 2.738-3.47 0-3.155-3.075-3.849-5.277-3.849H.001v13.886zm29.729.257a8.862 8.862 0 0 0 3.947-.912v-2.201c-.97.674-2.26 1.03-3.57 1.03-2.658 0-5.416-1.566-5.435-5.235 0-3.412 2.817-5 5.475-5 1.428 0 2.717.378 3.63 1.072V1.752A9.182 9.182 0 0 0 35.62.84c-3.59 0-7.399 2.34-7.379 7.082 0 4.938 3.71 7.319 7.36 7.319m8.915-9.165h5.396l-2.44 5.932c-.08.217-.16.436-.26.773a10.954 10.954 0 0 0-.257-.773zm-4.404-4.98l5.872 13.887h2.479l5.85-13.886h-2.38l-1.23 2.996h-6.961l-1.23-2.996zM57.119.84c-.635 0-1.33.118-1.983.316V3.16a5.257 5.257 0 0 1 1.606-.257c1.15 0 1.904.436 2.46 1.547l.258.516-5.634 10.018h2.52l4.264-7.935 3.55 7.935h2.46L61.584 4.251C60.352 1.612 58.765.84 57.119.84m22.325 14.143V1.097h-2.261v5.91h-7.32v-5.91h-2.261v13.886h2.26V9.09h7.32v5.892zM83.526.84a7.02 7.02 0 0 0-1.983.316V3.16a5.262 5.262 0 0 1 1.606-.257c1.15 0 1.904.436 2.46 1.547l.258.516-5.633 10.018h2.519l4.264-7.935 3.55 7.935h2.46L87.99 4.251C86.759 1.612 85.172.84 83.526.84" fill="#151616"/></g></svg>