<svg xmlns="http://www.w3.org/2000/svg" viewBox="0 0 81.25 72.6"><title>type13</title><path d="M41.14,454.8A5.35,5.35,0,0,1,37,453a0.62,0.62,0,1,1,1-.8,4.36,4.36,0,0,0,6.31,0,0.63,0.63,0,1,1,1,.8A5.37,5.37,0,0,1,41.14,454.8Z" transform="translate(-31.97 -391.11)" fill="#101212"/><path d="M48.41,454.8A5.35,5.35,0,0,1,44.3,453a0.62,0.62,0,1,1,1-.8,4.36,4.36,0,0,0,6.31,0,0.63,0.63,0,1,1,1,.8A5.37,5.37,0,0,1,48.41,454.8Z" transform="translate(-31.97 -391.11)" fill="#101212"/><path d="M55.69,454.8a5.35,5.35,0,0,1-4.11-1.8,0.62,0.62,0,1,1,1-.8,4.36,4.36,0,0,0,6.31,0,0.63,0.63,0,1,1,1,.8A5.37,5.37,0,0,1,55.69,454.8Z" transform="translate(-31.97 -391.11)" fill="#101212"/><path d="M63,454.8a5.35,5.35,0,0,1-4.12-1.8,0.62,0.62,0,1,1,1-.8,4.36,4.36,0,0,0,6.31,0,0.63,0.63,0,1,1,1,.8A5.37,5.37,0,0,1,63,454.8Z" transform="translate(-31.97 -391.11)" fill="#101212"/><path d="M70.23,454.8a5.35,5.35,0,0,1-4.11-1.8,0.62,0.62,0,1,1,1-.8,4.36,4.36,0,0,0,6.31,0,0.63,0.63,0,1,1,1,.8A5.37,5.37,0,0,1,70.23,454.8Z" transform="translate(-31.97 -391.11)" fill="#101212"/><path d="M77.5,454.8a5.37,5.37,0,0,1-4.11-1.8,0.63,0.63,0,1,1,1-.8,4.36,4.36,0,0,0,6.31,0,0.63,0.63,0,1,1,1,.8A5.38,5.38,0,0,1,77.5,454.8Z" transform="translate(-31.97 -391.11)" fill="#101212"/><path d="M84.77,454.8a5.37,5.37,0,0,1-4.11-1.8,0.63,0.63,0,1,1,1-.8,4.36,4.36,0,0,0,6.31,0,0.63,0.63,0,1,1,1,.8A5.37,5.37,0,0,1,84.77,454.8Z" transform="translate(-31.97 -391.11)" fill="#101212"/><path d="M92,454.8a5.37,5.37,0,0,1-4.11-1.8,0.63,0.63,0,1,1,1-.8,4.36,4.36,0,0,0,6.31,0,0.63,0.63,0,0,1,1,.8A5.37,5.37,0,0,1,92,454.8Z" transform="translate(-31.97 -391.11)" fill="#101212"/><path d="M99.32,454.8a5.37,5.37,0,0,1-4.11-1.8,0.63,0.63,0,1,1,1-.8,4.36,4.36,0,0,0,6.31,0,0.63,0.63,0,1,1,1,.8A5.37,5.37,0,0,1,99.32,454.8Z" transform="translate(-31.97 -391.11)" fill="#101212"/><path d="M106.59,454.8a5.37,5.37,0,0,1-4.11-1.8,0.63,0.63,0,1,1,1-.8,4.36,4.36,0,0,0,6.31,0,0.63,0.63,0,0,1,1,.8A5.37,5.37,0,0,1,106.59,454.8Z" transform="translate(-31.97 -391.11)" fill="#101212"/><path d="M36.23,459.07a5.35,5.35,0,0,1-4.12-1.8,0.62,0.62,0,1,1,1-.8,4.36,4.36,0,0,0,6.31,0,0.63,0.63,0,1,1,1,.8A5.37,5.37,0,0,1,36.23,459.07Z" transform="translate(-31.97 -391.11)" fill="#101212"/><path d="M109,459.07a5.35,5.35,0,0,1-4.11-1.8,0.62,0.62,0,0,1,1-.8,4.36,4.36,0,0,0,6.31,0,0.63,0.63,0,0,1,1,.8A5.37,5.37,0,0,1,109,459.07Z" transform="translate(-31.97 -391.11)" fill="#101212"/><path d="M43.5,459.07a5.35,5.35,0,0,1-4.12-1.8,0.62,0.62,0,1,1,1-.8,4.36,4.36,0,0,0,6.31,0,0.63,0.63,0,1,1,1,.8A5.37,5.37,0,0,1,43.5,459.07Z" transform="translate(-31.97 -391.11)" fill="#101212"/><path d="M50.77,459.07a5.35,5.35,0,0,1-4.12-1.8,0.62,0.62,0,1,1,1-.8,4.36,4.36,0,0,0,6.31,0,0.63,0.63,0,1,1,1,.8A5.37,5.37,0,0,1,50.77,459.07Z" transform="translate(-31.97 -391.11)" fill="#101212"/><path d="M58,459.07a5.35,5.35,0,0,1-4.12-1.8,0.62,0.62,0,1,1,1-.8,4.36,4.36,0,0,0,6.31,0,0.63,0.63,0,1,1,1,.8A5.37,5.37,0,0,1,58,459.07Z" transform="translate(-31.97 -391.11)" fill="#101212"/><path d="M65.32,459.07a5.35,5.35,0,0,1-4.12-1.8,0.62,0.62,0,1,1,1-.8,4.36,4.36,0,0,0,6.31,0,0.63,0.63,0,1,1,1,.8A5.37,5.37,0,0,1,65.32,459.07Z" transform="translate(-31.97 -391.11)" fill="#101212"/><path d="M72.59,459.07a5.37,5.37,0,0,1-4.11-1.8,0.63,0.63,0,1,1,1-.8,4.36,4.36,0,0,0,6.31,0,0.63,0.63,0,0,1,1,.8A5.37,5.37,0,0,1,72.59,459.07Z" transform="translate(-31.97 -391.11)" fill="#101212"/><path d="M79.86,459.07a5.37,5.37,0,0,1-4.11-1.8,0.63,0.63,0,1,1,1-.8,4.36,4.36,0,0,0,6.31,0,0.63,0.63,0,0,1,1,.8A5.37,5.37,0,0,1,79.86,459.07Z" transform="translate(-31.97 -391.11)" fill="#101212"/><path d="M87.13,459.07a5.37,5.37,0,0,1-4.11-1.8,0.63,0.63,0,1,1,1-.8,4.36,4.36,0,0,0,6.31,0,0.63,0.63,0,1,1,1,.8A5.37,5.37,0,0,1,87.13,459.07Z" transform="translate(-31.97 -391.11)" fill="#101212"/><path d="M94.41,459.07a5.37,5.37,0,0,1-4.11-1.8,0.63,0.63,0,1,1,1-.8,4.36,4.36,0,0,0,6.31,0,0.63,0.63,0,1,1,1,.8A5.37,5.37,0,0,1,94.41,459.07Z" transform="translate(-31.97 -391.11)" fill="#101212"/><path d="M101.68,459.07a5.37,5.37,0,0,1-4.11-1.8,0.63,0.63,0,0,1,1-.8,4.36,4.36,0,0,0,6.31,0,0.63,0.63,0,0,1,1,.8A5.38,5.38,0,0,1,101.68,459.07Z" transform="translate(-31.97 -391.11)" fill="#101212"/><path d="M41.14,463.71a5.35,5.35,0,0,1-4.12-1.8,0.62,0.62,0,1,1,1-.8,4.36,4.36,0,0,0,6.31,0,0.63,0.63,0,0,1,1,.8A5.37,5.37,0,0,1,41.14,463.71Z" transform="translate(-31.97 -391.11)" fill="#101212"/><path d="M48.41,463.71a5.35,5.35,0,0,1-4.12-1.8,0.62,0.62,0,0,1,1-.8,4.37,4.37,0,0,0,6.31,0,0.63,0.63,0,0,1,1,.8A5.37,5.37,0,0,1,48.41,463.71Z" transform="translate(-31.97 -391.11)" fill="#101212"/><path d="M55.69,463.71a5.35,5.35,0,0,1-4.11-1.8,0.62,0.62,0,1,1,1-.8,4.36,4.36,0,0,0,6.31,0,0.63,0.63,0,0,1,1,.8A5.37,5.37,0,0,1,55.69,463.71Z" transform="translate(-31.97 -391.11)" fill="#101212"/><path d="M63,463.71a5.35,5.35,0,0,1-4.12-1.8,0.62,0.62,0,1,1,1-.8,4.37,4.37,0,0,0,6.31,0,0.63,0.63,0,1,1,1,.8A5.37,5.37,0,0,1,63,463.71Z" transform="translate(-31.97 -391.11)" fill="#101212"/><path d="M70.23,463.71a5.35,5.35,0,0,1-4.11-1.8,0.62,0.62,0,1,1,1-.8,4.36,4.36,0,0,0,6.31,0,0.63,0.63,0,0,1,1,.8A5.37,5.37,0,0,1,70.23,463.71Z" transform="translate(-31.97 -391.11)" fill="#101212"/><path d="M77.5,463.71a5.37,5.37,0,0,1-4.11-1.8,0.63,0.63,0,0,1,1-.8,4.36,4.36,0,0,0,6.31,0,0.63,0.63,0,0,1,1,.8A5.37,5.37,0,0,1,77.5,463.71Z" transform="translate(-31.97 -391.11)" fill="#101212"/><path d="M84.77,463.71a5.37,5.37,0,0,1-4.11-1.8,0.63,0.63,0,0,1,1-.8,4.36,4.36,0,0,0,6.31,0,0.63,0.63,0,1,1,1,.8A5.37,5.37,0,0,1,84.77,463.71Z" transform="translate(-31.97 -391.11)" fill="#101212"/><path d="M92,463.71a5.37,5.37,0,0,1-4.11-1.8,0.63,0.63,0,0,1,1-.8,4.36,4.36,0,0,0,6.31,0,0.63,0.63,0,0,1,1,.8A5.37,5.37,0,0,1,92,463.71Z" transform="translate(-31.97 -391.11)" fill="#101212"/><path d="M99.32,463.71a5.37,5.37,0,0,1-4.11-1.8,0.63,0.63,0,1,1,1-.8,4.36,4.36,0,0,0,6.31,0,0.63,0.63,0,0,1,1,.8A5.37,5.37,0,0,1,99.32,463.71Z" transform="translate(-31.97 -391.11)" fill="#101212"/><path d="M106.59,463.71a5.37,5.37,0,0,1-4.11-1.8,0.63,0.63,0,1,1,1-.8,4.36,4.36,0,0,0,6.31,0,0.63,0.63,0,0,1,1,.8A5.37,5.37,0,0,1,106.59,463.71Z" transform="translate(-31.97 -391.11)" fill="#101212"/><path d="M59.42,453.34a0.62,0.62,0,0,1-.62-0.62V403.8l-4.86-8.32v31.72a0.62,0.62,0,0,1-.62.63H50.2a0.62,0.62,0,0,1-.62-0.62v-34a2,2,0,0,1,.61-1.48,2.07,2.07,0,0,1,1.53-.59,2,2,0,0,1,1.72,1l0.42,0.73h0L60,403.32a0.62,0.62,0,0,1,.09.32v49.08A0.62,0.62,0,0,1,59.42,453.34Zm-8.6-26.75h1.87V393.35l-0.34-.58a0.79,0.79,0,0,0-.67-0.41,0.88,0.88,0,0,0-.62.24,0.78,0.78,0,0,0-.23.58v33.41Z" transform="translate(-31.97 -391.11)" fill="#101212"/><path d="M88.32,453.34a0.62,0.62,0,0,1-.62-0.62V403.64a0.62,0.62,0,0,1,.09-0.32l6.11-10.45h0l0.42-.73a2,2,0,0,1,1.71-1,2.14,2.14,0,0,1,1.53.59,2,2,0,0,1,.61,1.48v34a0.62,0.62,0,0,1-.62.63H94.43a0.62,0.62,0,0,1-.62-0.62V395.49l-4.86,8.32v48.91A0.62,0.62,0,0,1,88.32,453.34Zm6.73-26.75h1.87V393.18a0.78,0.78,0,0,0-.23-0.58,0.82,0.82,0,0,0-.63-0.24,0.78,0.78,0,0,0-.67.41l-0.34.58v33.24Z" transform="translate(-31.97 -391.11)" fill="#101212"/><path d="M62.54,427.28a0.62,0.62,0,0,1-.62-0.62V403.8l-6.44-11a0.78,0.78,0,0,0-.69-0.41,0.63,0.63,0,0,1,0-1.25,2,2,0,0,1,1.77,1l6.53,11.18a0.62,0.62,0,0,1,.09.31v23A0.62,0.62,0,0,1,62.54,427.28Z" transform="translate(-31.97 -391.11)" fill="#101212"/><path d="M85.21,427.28a0.62,0.62,0,0,1-.62-0.62v-23a0.62,0.62,0,0,1,.09-0.31l6.53-11.18a2,2,0,0,1,1.77-1,0.63,0.63,0,0,1,0,1.25,0.78,0.78,0,0,0-.69.41l-6.44,11v22.86A0.62,0.62,0,0,1,85.21,427.28Z" transform="translate(-31.97 -391.11)" fill="#101212"/><path d="M62.54,454.79a0.62,0.62,0,0,1-.62-0.62V443.43a0.62,0.62,0,1,1,1.25,0v10.73A0.62,0.62,0,0,1,62.54,454.79Z" transform="translate(-31.97 -391.11)" fill="#101212"/><path d="M85.21,454.79a0.62,0.62,0,0,1-.62-0.62V443.43a0.62,0.62,0,1,1,1.25,0v10.73A0.62,0.62,0,0,1,85.21,454.79Z" transform="translate(-31.97 -391.11)" fill="#101212"/><path d="M62.54,440.11a0.62,0.62,0,0,1-.62-0.62v-8.88a0.62,0.62,0,1,1,1.25,0v8.88A0.62,0.62,0,0,1,62.54,440.11Z" transform="translate(-31.97 -391.11)" fill="#101212"/><path d="M85.21,440.11a0.62,0.62,0,0,1-.62-0.62v-8.88a0.62,0.62,0,1,1,1.25,0v8.88A0.62,0.62,0,0,1,85.21,440.11Z" transform="translate(-31.97 -391.11)" fill="#101212"/><path d="M59.42,414.95H53.31a0.63,0.63,0,0,1,0-1.25h6.11A0.63,0.63,0,0,1,59.42,414.95Z" transform="translate(-31.97 -391.11)" fill="#101212"/><path d="M94.43,414.95H88.32a0.63,0.63,0,0,1,0-1.25h6.11A0.63,0.63,0,0,1,94.43,414.95Z" transform="translate(-31.97 -391.11)" fill="#101212"/><path d="M85.21,414.95H62.54a0.63,0.63,0,0,1,0-1.25H85.21A0.63,0.63,0,0,1,85.21,414.95Z" transform="translate(-31.97 -391.11)" fill="#101212"/><path d="M85.21,435.18H62.54a0.63,0.63,0,0,1,0-1.25H85.21A0.62,0.62,0,0,1,85.21,435.18Z" transform="translate(-31.97 -391.11)" fill="#101212"/><path d="M59.42,435.18H37.51a0.63,0.63,0,0,1,0-1.25H59.42A0.63,0.63,0,0,1,59.42,435.18Z" transform="translate(-31.97 -391.11)" fill="#101212"/><path d="M110.24,435.18H88.32a0.63,0.63,0,0,1,0-1.25h21.91A0.63,0.63,0,1,1,110.24,435.18Z" transform="translate(-31.97 -391.11)" fill="#101212"/><path d="M88.32,427.28H59.42a0.63,0.63,0,0,1,0-1.25h28.9A0.62,0.62,0,0,1,88.32,427.28Z" transform="translate(-31.97 -391.11)" fill="#101212"/><path d="M88.32,431.23H59.42a0.63,0.63,0,0,1,0-1.25h28.9A0.62,0.62,0,0,1,88.32,431.23Z" transform="translate(-31.97 -391.11)" fill="#101212"/><path d="M88.32,440.11H59.42a0.63,0.63,0,0,1,0-1.25h28.9A0.62,0.62,0,0,1,88.32,440.11Z" transform="translate(-31.97 -391.11)" fill="#101212"/><path d="M88.32,444.06H59.42a0.63,0.63,0,0,1,0-1.25h28.9A0.62,0.62,0,0,1,88.32,444.06Z" transform="translate(-31.97 -391.11)" fill="#101212"/><path d="M65.05,433.6H65a0.62,0.62,0,0,1-.55-0.69l0.13-1.2a0.62,0.62,0,0,1,1.24.14L65.67,433A0.63,0.63,0,0,1,65.05,433.6Z" transform="translate(-31.97 -391.11)" fill="#101212"/><path d="M82.79,433.79a0.63,0.63,0,0,1-.62-0.55L82,431.85a0.63,0.63,0,1,1,1.24-.15l0.17,1.39a0.63,0.63,0,0,1-.55.7H82.79Z" transform="translate(-31.97 -391.11)" fill="#101212"/><path d="M66.36,425.9h-0.1a0.63,0.63,0,0,1-.51-0.72l1.49-9a0.63,0.63,0,1,1,1.23.21l-1.49,9A0.63,0.63,0,0,1,66.36,425.9Z" transform="translate(-31.97 -391.11)" fill="#101212"/><path d="M81.38,425.9a0.63,0.63,0,0,1-.62-0.52l-1.51-9a0.62,0.62,0,1,1,1.23-.21l1.51,9a0.62,0.62,0,0,1-.51.72h-0.1Z" transform="translate(-31.97 -391.11)" fill="#101212"/><path d="M56.37,433.21a0.63,0.63,0,0,1-.59-0.83l1.46-4.26a0.62,0.62,0,0,1,1.18.4L57,432.78A0.62,0.62,0,0,1,56.37,433.21Z" transform="translate(-31.97 -391.11)" fill="#101212"/><path d="M91.58,433.79a0.63,0.63,0,0,1-.6-0.43l-1.55-4.85a0.63,0.63,0,1,1,1.19-.38L92.17,433A0.62,0.62,0,0,1,91.58,433.79Z" transform="translate(-31.97 -391.11)" fill="#101212"/><path d="M62.54,415.15a0.62,0.62,0,0,1-.59-0.83l0.07-.2a0.63,0.63,0,0,1,1.18.4l-0.07.2A0.62,0.62,0,0,1,62.54,415.15Z" transform="translate(-31.97 -391.11)" fill="#101212"/><path d="M85.21,415.15a0.63,0.63,0,0,1-.59-0.42l-0.07-.2a0.62,0.62,0,0,1,1.18-.4l0.07,0.2A0.63,0.63,0,0,1,85.21,415.15Z" transform="translate(-31.97 -391.11)" fill="#101212"/><path d="M47.61,433.21a0.63,0.63,0,0,1-.56-0.91l2-4a0.63,0.63,0,1,1,1.11.57l-2,4A0.63,0.63,0,0,1,47.61,433.21Z" transform="translate(-31.97 -391.11)" fill="#101212"/><path d="M100.42,433.21a0.62,0.62,0,0,1-.55-0.34l-2.07-4a0.62,0.62,0,1,1,1.11-.58l2.07,4A0.63,0.63,0,0,1,100.42,433.21Z" transform="translate(-31.97 -391.11)" fill="#101212"/><path d="M54.41,419.94a0.63,0.63,0,0,1-.56-0.91l1.54-3a0.62,0.62,0,1,1,1.11.57l-1.54,3A0.63,0.63,0,0,1,54.41,419.94Z" transform="translate(-31.97 -391.11)" fill="#101212"/><path d="M93.36,419.94a0.62,0.62,0,0,1-.56-0.34l-1.5-3a0.62,0.62,0,1,1,1.12-.56l1.5,3a0.62,0.62,0,0,1-.28.84A0.62,0.62,0,0,1,93.36,419.94Z" transform="translate(-31.97 -391.11)" fill="#101212"/><path d="M37.51,435.18a0.62,0.62,0,0,1-.52-1l12.69-18.56a0.63,0.63,0,1,1,1,.71L38,434.91A0.63,0.63,0,0,1,37.51,435.18Z" transform="translate(-31.97 -391.11)" fill="#101212"/><path d="M110.24,435.18a0.63,0.63,0,0,1-.52-0.27L97,416.35a0.63,0.63,0,1,1,1-.71l12.69,18.56A0.62,0.62,0,0,1,110.24,435.18Z" transform="translate(-31.97 -391.11)" fill="#101212"/><path d="M54.77,392.36H51.7a0.63,0.63,0,0,1,0-1.25h3.08A0.63,0.63,0,0,1,54.77,392.36Z" transform="translate(-31.97 -391.11)" fill="#101212"/><path d="M96,392.36H93a0.63,0.63,0,0,1,0-1.25H96A0.63,0.63,0,0,1,96,392.36Z" transform="translate(-31.97 -391.11)" fill="#101212"/><path d="M73.87,433.79a0.62,0.62,0,0,1-.62-0.62v-1.39a0.62,0.62,0,0,1,.62-0.63h0a0.62,0.62,0,0,1,.62.62v1.39a0.62,0.62,0,0,1-.62.63h0Z" transform="translate(-31.97 -391.11)" fill="#101212"/><path d="M73.87,425.9a0.62,0.62,0,0,1-.62-0.62v-9a0.62,0.62,0,1,1,1.25,0v9A0.62,0.62,0,0,1,73.87,425.9Z" transform="translate(-31.97 -391.11)" fill="#101212"/><path d="M42,454.72a0.62,0.62,0,0,1-.62-0.62V434.56a0.62,0.62,0,1,1,1.25,0V454.1A0.62,0.62,0,0,1,42,454.72Z" transform="translate(-31.97 -391.11)" fill="#101212"/><path d="M48.3,454.8a0.62,0.62,0,0,1-.62-0.62V434.56a0.62,0.62,0,1,1,1.25,0v19.62A0.62,0.62,0,0,1,48.3,454.8Z" transform="translate(-31.97 -391.11)" fill="#101212"/><path d="M105.69,454.72a0.62,0.62,0,0,1-.62-0.62V434.56a0.63,0.63,0,0,1,1.25,0V454.1A0.62,0.62,0,0,1,105.69,454.72Z" transform="translate(-31.97 -391.11)" fill="#101212"/><path d="M99.44,454.8a0.62,0.62,0,0,1-.62-0.62V434.56a0.62,0.62,0,0,1,1.25,0v19.62A0.62,0.62,0,0,1,99.44,454.8Z" transform="translate(-31.97 -391.11)" fill="#101212"/></svg>