<svg xmlns="http://www.w3.org/2000/svg" viewBox="0 0 81.25 80.47"><title>type12</title><path d="M434.14,278.07H420.79a0.62,0.62,0,0,1-.62-0.62v-2.53a6,6,0,0,1,6-6h2.55a6,6,0,0,1,6,6v2.53A0.62,0.62,0,0,1,434.14,278.07Zm-12.72-1.25h12.09v-1.9a4.78,4.78,0,0,0-4.77-4.77h-2.55a4.78,4.78,0,0,0-4.77,4.77v1.9Z" transform="translate(-386.78 -268.9)" fill="#101212"/><path d="M440.8,349.37H414.13a5.41,5.41,0,0,1-5.4-5.4V287.48a9.47,9.47,0,0,1,6.78-9l5.11-1.49,0.17,0h13.34l0.17,0,5.11,1.49a9.47,9.47,0,0,1,6.78,9V344A5.41,5.41,0,0,1,440.8,349.37Zm-19.91-71.19-5,1.46a8.21,8.21,0,0,0-5.88,7.84V344a4.16,4.16,0,0,0,4.15,4.15H440.8a4.16,4.16,0,0,0,4.15-4.15V287.48a8.21,8.21,0,0,0-5.88-7.84l-5-1.46H420.88Z" transform="translate(-386.78 -268.9)" fill="#101212"/><path d="M440.49,342.17H414.28a0.62,0.62,0,0,1-.62-0.62V292a0.62,0.62,0,0,1,.63-0.62h26.21a0.62,0.62,0,0,1,.63.63v49.55A0.62,0.62,0,0,1,440.49,342.17Zm-25.59-1.25h25v-48.3h-25v48.3Z" transform="translate(-386.78 -268.9)" fill="#101212"/><path d="M423,278.07a0.62,0.62,0,0,1-.62-0.62v-4a0.63,0.63,0,0,1,1.25,0v4A0.62,0.62,0,0,1,423,278.07Z" transform="translate(-386.78 -268.9)" fill="#101212"/><path d="M425.11,278.07a0.62,0.62,0,0,1-.62-0.62v-4a0.63,0.63,0,0,1,1.25,0v4A0.62,0.62,0,0,1,425.11,278.07Z" transform="translate(-386.78 -268.9)" fill="#101212"/><path d="M427.27,278.07a0.62,0.62,0,0,1-.62-0.62v-4a0.62,0.62,0,0,1,1.25,0v4A0.62,0.62,0,0,1,427.27,278.07Z" transform="translate(-386.78 -268.9)" fill="#101212"/><path d="M429.43,278.07a0.62,0.62,0,0,1-.62-0.62v-4a0.62,0.62,0,0,1,1.25,0v4A0.62,0.62,0,0,1,429.43,278.07Z" transform="translate(-386.78 -268.9)" fill="#101212"/><path d="M431.58,278.07a0.62,0.62,0,0,1-.62-0.62v-4a0.62,0.62,0,0,1,1.25,0v4A0.62,0.62,0,0,1,431.58,278.07Z" transform="translate(-386.78 -268.9)" fill="#101212"/><path d="M461.53,349.37h-8.2a4.73,4.73,0,0,1-4.72-4.73V325.58a4.82,4.82,0,0,1,2.19-4,0.62,0.62,0,1,1,.68,1,3.57,3.57,0,0,0-1.62,3v19.06a3.47,3.47,0,0,0,3.47,3.48h8.2a3.48,3.48,0,0,0,3.48-3.48V325.58a3.59,3.59,0,0,0-3.59-3.58h-0.58a0.63,0.63,0,0,1,0-1.25h0.58a4.84,4.84,0,0,1,4.84,4.83v19.06A4.73,4.73,0,0,1,461.53,349.37Z" transform="translate(-386.78 -268.9)" fill="#101212"/><path d="M454.18,319.64a0.62,0.62,0,0,1-.62-0.62v-3.44a0.63,0.63,0,0,1,1.25,0V319A0.62,0.62,0,0,1,454.18,319.64Z" transform="translate(-386.78 -268.9)" fill="#101212"/><path d="M460.83,318.89a0.62,0.62,0,0,1-.62-0.62v-2.69a0.63,0.63,0,0,1,1.25,0v2.69A0.62,0.62,0,0,1,460.83,318.89Z" transform="translate(-386.78 -268.9)" fill="#101212"/><path d="M460.83,322a0.62,0.62,0,0,1-.62-0.62v-0.69a0.63,0.63,0,0,1,1.25,0v0.69A0.62,0.62,0,0,1,460.83,322Z" transform="translate(-386.78 -268.9)" fill="#101212"/><path d="M461.5,316.2h-8.07a1.81,1.81,0,0,1-1.81-1.81v-0.34a1.81,1.81,0,0,1,1.81-1.81h8.07a1.81,1.81,0,0,1,1.81,1.81v0.34A1.81,1.81,0,0,1,461.5,316.2Zm-8.07-2.71a0.56,0.56,0,0,0-.56.56v0.34a0.56,0.56,0,0,0,.56.56h8.07a0.56,0.56,0,0,0,.56-0.56v-0.34a0.56,0.56,0,0,0-.56-0.56h-8.07Z" transform="translate(-386.78 -268.9)" fill="#101212"/><path d="M460,313.49h-0.1a0.63,0.63,0,0,1-.52-0.72l1.07-6.62h-6l1.07,6.62a0.63,0.63,0,1,1-1.23.2l-1.19-7.35a0.62,0.62,0,0,1,.62-0.73h7.42a0.62,0.62,0,0,1,.62.73L460.64,313A0.63,0.63,0,0,1,460,313.49Z" transform="translate(-386.78 -268.9)" fill="#101212"/><path d="M459,321.37a0.62,0.62,0,0,1-.6-0.47c-0.19-.73,3.37-4.91,4.28-5.43a3.93,3.93,0,0,1,1.92-.53,2.46,2.46,0,0,1,2.35,1.38c0.63,1.4-.18,3.24-1.86,4.18C463.65,321.35,459.51,321.37,459,321.37Zm5.59-5.17a2.68,2.68,0,0,0-1.3.37,15.92,15.92,0,0,0-3.08,3.53,13.14,13.14,0,0,0,4.25-.67c1.08-.61,1.69-1.79,1.34-2.58A1.24,1.24,0,0,0,464.64,316.2Z" transform="translate(-386.78 -268.9)" fill="#101212"/><path d="M453.74,323.86a3.4,3.4,0,0,1-3.54-2.47,2.32,2.32,0,0,1,.5-1.82,3.59,3.59,0,0,1,2.59-1.25c1.69-.12,5.77,1.6,6.22,1.79a0.62,0.62,0,0,1,.1,1.1c-0.39.26-3.85,2.52-5.54,2.64h-0.32Zm-0.27-4.29h-0.1a2.38,2.38,0,0,0-1.7.78,1.07,1.07,0,0,0-.24.84c0.14,0.85,1.29,1.51,2.54,1.41a13.12,13.12,0,0,0,3.92-1.79A17.34,17.34,0,0,0,453.47,319.56Z" transform="translate(-386.78 -268.9)" fill="#101212"/><path d="M458.09,330.12H458a0.63,0.63,0,0,1-.56-0.69l0.93-8.74a0.63,0.63,0,1,1,1.24.13l-0.93,8.74A0.63,0.63,0,0,1,458.09,330.12Z" transform="translate(-386.78 -268.9)" fill="#101212"/><path d="M467.41,328.85a0.62,0.62,0,0,1-.42-0.16l-8.39-7.47a0.62,0.62,0,0,1,.83-0.93l8.39,7.47A0.63,0.63,0,0,1,467.41,328.85Z" transform="translate(-386.78 -268.9)" fill="#101212"/><path d="M399.71,349.37h-8.62a4.31,4.31,0,0,1-4.31-4.31V325.73a5.36,5.36,0,0,1,5.35-5.35h6.54a5.36,5.36,0,0,1,5.35,5.35v19.33A4.31,4.31,0,0,1,399.71,349.37Zm-7.58-27.74a4.1,4.1,0,0,0-4.1,4.1v19.33a3.06,3.06,0,0,0,3.06,3.06h8.62a3.06,3.06,0,0,0,3.06-3.06V325.73a4.1,4.1,0,0,0-4.1-4.1h-6.54Z" transform="translate(-386.78 -268.9)" fill="#101212"/><path d="M399.75,321.92a0.62,0.62,0,0,1-.62-0.62V317a1.6,1.6,0,0,0-1.6-1.6h-4.25a1.61,1.61,0,0,0-1.6,1.6v4.27a0.63,0.63,0,0,1-1.25,0V317a2.86,2.86,0,0,1,2.84-2.85h4.25a2.86,2.86,0,0,1,2.85,2.85v4.27A0.62,0.62,0,0,1,399.75,321.92Z" transform="translate(-386.78 -268.9)" fill="#101212"/><path d="M397.53,315.43a0.62,0.62,0,0,1-.62-0.62V307a1.5,1.5,0,0,0-3,0v7.78a0.63,0.63,0,1,1-1.25,0V307a2.75,2.75,0,0,1,5.5,0v7.78A0.62,0.62,0,0,1,397.53,315.43Z" transform="translate(-386.78 -268.9)" fill="#101212"/><path d="M393.33,330.63h-5.92a0.63,0.63,0,0,1,0-1.25h5.92A0.63,0.63,0,0,1,393.33,330.63Z" transform="translate(-386.78 -268.9)" fill="#101212"/><path d="M403.39,330.63h-5.92a0.63,0.63,0,0,1,0-1.25h5.92A0.63,0.63,0,0,1,403.39,330.63Z" transform="translate(-386.78 -268.9)" fill="#101212"/><path d="M395.4,345.12a2.7,2.7,0,0,1-2.7-2.7v-21.2a0.62,0.62,0,0,1,.63-0.62h0a0.62,0.62,0,0,1,.63.63v21.2a1.45,1.45,0,1,0,2.9,0V321.24a0.62,0.62,0,0,1,.63-0.62h0a0.62,0.62,0,0,1,.63.63v21.19A2.7,2.7,0,0,1,395.4,345.12Z" transform="translate(-386.78 -268.9)" fill="#101212"/></svg>