<svg xmlns="http://www.w3.org/2000/svg" viewBox="0 0 81.25 84.71"><title>type2</title><path d="M215.25,108.49H166.48a4.83,4.83,0,0,1-4.83-4.83V65.16a4.83,4.83,0,0,1,4.83-4.83h48.78a4.83,4.83,0,0,1,4.83,4.83v38.51A4.83,4.83,0,0,1,215.25,108.49ZM166.48,61.58a3.58,3.58,0,0,0-3.58,3.58v38.51a3.58,3.58,0,0,0,3.58,3.58h48.78a3.58,3.58,0,0,0,3.58-3.58V65.16a3.58,3.58,0,0,0-3.58-3.58H166.48Z" transform="translate(-150.24 -30.24)" fill="#101212"/><path d="M227.33,114.95H154.4a4.16,4.16,0,0,1-4.16-4.16V48a3.12,3.12,0,0,1,3.12-3.12h75A3.12,3.12,0,0,1,231.49,48v62.82A4.16,4.16,0,0,1,227.33,114.95Zm-74-68.85A1.87,1.87,0,0,0,151.49,48v62.82a2.91,2.91,0,0,0,2.91,2.91h72.93a2.91,2.91,0,0,0,2.91-2.91V48a1.87,1.87,0,0,0-1.87-1.87h-75Z" transform="translate(-150.24 -30.24)" fill="#101212"/><path d="M153.94,45.21a0.62,0.62,0,0,1-.62-0.62c0-3.73,4.87-6.65,11.08-6.65,0.48,0,1,0,1.42.05a13.37,13.37,0,0,1,7.79,2.88,0.62,0.62,0,0,1-.84.93,12.12,12.12,0,0,0-7-2.56c-0.44,0-.88,0-1.33,0-5.33,0-9.83,2.48-9.83,5.4A0.62,0.62,0,0,1,153.94,45.21Z" transform="translate(-150.24 -30.24)" fill="#101212"/><path d="M192.43,45.21a0.62,0.62,0,0,1-.62-0.62,3.2,3.2,0,0,0-.39-1.5,4.94,4.94,0,0,0-1.05-1.29,12.13,12.13,0,0,0-7-2.56c-0.44,0-.9-0.06-1.35-0.06-3.45,0-6.57,1-8.38,2.61a4.71,4.71,0,0,0-1,1.15,3.13,3.13,0,0,0-.48,1.64,0.63,0.63,0,0,1-1.25,0,4.35,4.35,0,0,1,.66-2.28,5.89,5.89,0,0,1,1.21-1.44c2-1.83,5.46-2.92,9.17-2.93,0.53,0,1,0,1.49.06a13.36,13.36,0,0,1,7.75,2.87,6.21,6.21,0,0,1,1.32,1.63,4.45,4.45,0,0,1,.54,2.09A0.62,0.62,0,0,1,192.43,45.21Z" transform="translate(-150.24 -30.24)" fill="#101212"/><path d="M199.6,37.55l-0.19,0a0.63,0.63,0,0,1-.41-0.78,2.28,2.28,0,0,0,.1-0.7,2.86,2.86,0,0,0-.72-1.82c-1.36-1.66-4.35-2.73-7.61-2.73s-6.26,1.07-7.61,2.73a2.84,2.84,0,0,0-.72,1.82,2.29,2.29,0,0,0,.1.7,0.63,0.63,0,0,1-1.19.38,3.58,3.58,0,0,1-.16-1.08,4,4,0,0,1,1-2.61c1.6-2,4.89-3.19,8.58-3.19s7,1.22,8.58,3.19a4.07,4.07,0,0,1,1,2.61,3.57,3.57,0,0,1-.16,1.08A0.63,0.63,0,0,1,199.6,37.55Z" transform="translate(-150.24 -30.24)" fill="#101212"/><path d="M165.77,37.6a0.63,0.63,0,0,1-.6-0.43A3.69,3.69,0,0,1,165,36c0-3.25,4.21-5.8,9.59-5.8,3.68,0,7,1.22,8.58,3.19a0.63,0.63,0,1,1-1,.79c-1.36-1.66-4.35-2.73-7.61-2.73-4.52,0-8.34,2.08-8.34,4.55a2.45,2.45,0,0,0,.1.7A0.62,0.62,0,0,1,165.77,37.6Z" transform="translate(-150.24 -30.24)" fill="#101212"/><path d="M215.78,37.6a0.63,0.63,0,0,1-.58-0.88,2.44,2.44,0,0,0,.1-0.69c0-2.47-3.81-4.55-8.33-4.55-3.27,0-6.26,1.07-7.61,2.73a0.62,0.62,0,1,1-1-.79c1.61-2,4.9-3.19,8.58-3.19,5.37,0,9.58,2.55,9.58,5.8a3.7,3.7,0,0,1-.18,1.13A0.63,0.63,0,0,1,215.78,37.6Z" transform="translate(-150.24 -30.24)" fill="#101212"/><path d="M210,45.21a0.62,0.62,0,0,1-.62-0.62,3.12,3.12,0,0,0-.47-1.63,5,5,0,0,0-1-1.16c-1.81-1.63-4.93-2.6-8.35-2.61-0.49,0-.94,0-1.38.06a12.08,12.08,0,0,0-7,2.56,0.62,0.62,0,0,1-.84-0.93A13.32,13.32,0,0,1,198.11,38c0.47,0,1-.06,1.46-0.06,3.75,0,7.18,1.1,9.21,2.93A6.27,6.27,0,0,1,210,42.31a4.34,4.34,0,0,1,.65,2.28A0.62,0.62,0,0,1,210,45.21Z" transform="translate(-150.24 -30.24)" fill="#101212"/><path d="M227.61,45.21a0.62,0.62,0,0,1-.62-0.62c0-2.93-4.5-5.4-9.82-5.4-0.46,0-.9,0-1.34,0a12.1,12.1,0,0,0-7,2.56,0.62,0.62,0,0,1-.84-0.93A13.35,13.35,0,0,1,215.72,38c0.48,0,.95-0.05,1.44-0.05,6.21,0,11.07,2.92,11.07,6.65A0.62,0.62,0,0,1,227.61,45.21Z" transform="translate(-150.24 -30.24)" fill="#101212"/><path d="M193.94,107.07a0.62,0.62,0,0,1-.62-0.62,2.45,2.45,0,1,0-4.91,0,0.63,0.63,0,0,1-1.25,0,3.7,3.7,0,1,1,7.41,0A0.62,0.62,0,0,1,193.94,107.07Z" transform="translate(-150.24 -30.24)" fill="#101212"/><path d="M197.68,107.07a0.62,0.62,0,0,1-.62-0.62,6.19,6.19,0,0,0-12.39,0,0.62,0.62,0,1,1-1.25,0,7.44,7.44,0,0,1,14.89,0A0.62,0.62,0,0,1,197.68,107.07Z" transform="translate(-150.24 -30.24)" fill="#101212"/><path d="M202.11,107.07a0.62,0.62,0,0,1-.62-0.62,10.62,10.62,0,1,0-21.24,0,0.63,0.63,0,0,1-1.25,0,11.87,11.87,0,1,1,23.74,0A0.62,0.62,0,0,1,202.11,107.07Z" transform="translate(-150.24 -30.24)" fill="#101212"/><path d="M179.62,107.07a0.62,0.62,0,0,1-.62-0.62,2.45,2.45,0,1,0-4.91,0,0.63,0.63,0,0,1-1.25,0,3.7,3.7,0,1,1,7.41,0A0.62,0.62,0,0,1,179.62,107.07Z" transform="translate(-150.24 -30.24)" fill="#101212"/><path d="M169.73,107.07a0.62,0.62,0,0,1-.62-0.62,7.44,7.44,0,0,1,12.21-5.72,0.63,0.63,0,1,1-.8,1,6.19,6.19,0,0,0-10.16,4.76A0.62,0.62,0,0,1,169.73,107.07Z" transform="translate(-150.24 -30.24)" fill="#101212"/><path d="M165.3,107.07a0.62,0.62,0,0,1-.62-0.62,11.88,11.88,0,0,1,19.43-9.16,0.63,0.63,0,0,1-.79,1,10.63,10.63,0,0,0-17.39,8.19A0.62,0.62,0,0,1,165.3,107.07Z" transform="translate(-150.24 -30.24)" fill="#101212"/><path d="M208.33,107.07a0.62,0.62,0,0,1-.62-0.62,2.45,2.45,0,1,0-4.91,0,0.62,0.62,0,1,1-1.25,0,3.7,3.7,0,1,1,7.41,0A0.62,0.62,0,0,1,208.33,107.07Z" transform="translate(-150.24 -30.24)" fill="#101212"/><path d="M212.07,107.07a0.62,0.62,0,0,1-.62-0.62,6.19,6.19,0,0,0-10.2-4.72,0.62,0.62,0,1,1-.81-1,7.44,7.44,0,0,1,12.26,5.68A0.62,0.62,0,0,1,212.07,107.07Z" transform="translate(-150.24 -30.24)" fill="#101212"/><path d="M216.49,107.07a0.62,0.62,0,0,1-.62-0.62,10.61,10.61,0,0,0-17.41-8.16,0.62,0.62,0,0,1-.8-1,11.86,11.86,0,0,1,19.46,9.12A0.62,0.62,0,0,1,216.49,107.07Z" transform="translate(-150.24 -30.24)" fill="#101212"/><path d="M173,73.86a0.62,0.62,0,0,1-.54-0.31l-5.67-9.6a0.62,0.62,0,0,1,1.08-.64l5.67,9.6A0.63,0.63,0,0,1,173,73.86Z" transform="translate(-150.24 -30.24)" fill="#101212"/><path d="M170.43,78.86a0.62,0.62,0,0,1-.44-0.18l-5-5a0.62,0.62,0,0,1,.88-0.88l5,5A0.63,0.63,0,0,1,170.43,78.86Z" transform="translate(-150.24 -30.24)" fill="#101212"/><path d="M208.73,73.86a0.63,0.63,0,0,1-.55-0.93l5.29-9.6a0.63,0.63,0,1,1,1.09.6l-5.29,9.6A0.62,0.62,0,0,1,208.73,73.86Z" transform="translate(-150.24 -30.24)" fill="#101212"/><path d="M211.3,78.86a0.63,0.63,0,0,1-.44-1.07l5-5a0.62,0.62,0,0,1,.88.88l-5,5A0.62,0.62,0,0,1,211.3,78.86Z" transform="translate(-150.24 -30.24)" fill="#101212"/><path d="M186.18,94.94a0.62,0.62,0,0,1-.51-0.26,15.65,15.65,0,0,1-2.56-5.76,13.18,13.18,0,0,1,1-8.62l0.07-.15c0.36-.76.76-1.51,1.17-2.27a32.19,32.19,0,0,0,1.81-3.78,16.18,16.18,0,0,0,.67-9.45,0.62,0.62,0,0,1,1.21-.3,17.44,17.44,0,0,1-.72,10.19,33.11,33.11,0,0,1-1.88,3.93c-0.39.74-.79,1.48-1.15,2.23l-0.06.13a11.81,11.81,0,0,0-.95,7.83,14.41,14.41,0,0,0,2.36,5.3A0.62,0.62,0,0,1,186.18,94.94Z" transform="translate(-150.24 -30.24)" fill="#101212"/><path d="M195.06,92.78a0.62,0.62,0,0,1-.56-0.89c1.43-3,2.73-6.36,2.51-10.12a19.45,19.45,0,0,0-3.28-9,49.51,49.51,0,0,0-3.14-4.37c-0.89-1.15-1.81-2.34-2.64-3.58a0.62,0.62,0,1,1,1-.69c0.8,1.2,1.71,2.37,2.58,3.51a50.48,50.48,0,0,1,3.22,4.49,20.58,20.58,0,0,1,3.46,9.57c0.23,4-1.13,7.54-2.63,10.72A0.62,0.62,0,0,1,195.06,92.78Z" transform="translate(-150.24 -30.24)" fill="#101212"/><path d="M197.57,81.65a0.62,0.62,0,0,1-.51-1l0.42-.61c0.75-1.09,1.53-2.22,2.19-3.37a14.88,14.88,0,0,0,2.21-6.89,0.64,0.64,0,0,1,.64-0.61,0.63,0.63,0,0,1,.61.64,16.07,16.07,0,0,1-2.37,7.47c-0.68,1.21-1.48,2.36-2.25,3.47l-0.42.61A0.63,0.63,0,0,1,197.57,81.65Z" transform="translate(-150.24 -30.24)" fill="#101212"/><path d="M206,95.86a0.63,0.63,0,0,1-.56-0.91,19.3,19.3,0,0,0,1.15-13,31.26,31.26,0,0,0-2.41-6.23A36.06,36.06,0,0,1,201.91,70a0.63,0.63,0,1,1,1.21-.33,35.1,35.1,0,0,0,2.25,5.58,32.21,32.21,0,0,1,2.5,6.48,20.54,20.54,0,0,1-1.25,13.81A0.62,0.62,0,0,1,206,95.86Z" transform="translate(-150.24 -30.24)" fill="#101212"/><path d="M175,94.46a0.62,0.62,0,0,1-.56-0.36,12.59,12.59,0,0,1-.06-10.37c0.52-1.1,1.11-2.21,1.69-3.29,1.82-3.41,3.7-6.94,3.71-10.74a0.63,0.63,0,0,1,1.25,0c0,4.11-2,7.77-3.85,11.32-0.59,1.12-1.16,2.17-1.66,3.24a11.29,11.29,0,0,0,.06,9.3A0.63,0.63,0,0,1,175,94.46Z" transform="translate(-150.24 -30.24)" fill="#101212"/><path d="M184.71,81.18a0.62,0.62,0,0,1-.54-0.31l-0.28-.48a28.78,28.78,0,0,1-1.48-2.71,33.51,33.51,0,0,1-2.67-7.87,0.63,0.63,0,1,1,1.23-.22,32.35,32.35,0,0,0,2.58,7.57A27.46,27.46,0,0,0,185,79.75l0.28,0.48A0.62,0.62,0,0,1,184.71,81.18Z" transform="translate(-150.24 -30.24)" fill="#101212"/></svg>