<svg xmlns="http://www.w3.org/2000/svg" viewBox="0 0 81.25 77.47"><title>type5</title><path d="M91,211.64a3.08,3.08,0,0,1-1.19-.24L49.21,194.52a3.12,3.12,0,0,1-1.37-4.64l25.08-36.4a3.11,3.11,0,0,1,4.82-.38l21.44,22.65a0.63,0.63,0,1,1-.91.86L76.84,154a1.86,1.86,0,0,0-2.89.23l-25.08,36.4a1.87,1.87,0,0,0,.82,2.78l40.64,16.88a1.87,1.87,0,0,0,2.25-.66L103,194.43a0.63,0.63,0,0,1,1,.71L93.62,210.3A3.13,3.13,0,0,1,91,211.64Z" transform="translate(-31.97 -152.13)" fill="#101212"/><path d="M58.62,198.38a0.63,0.63,0,0,1-.24,0l-2.7-1.12a0.62,0.62,0,0,1-.27-0.93l26.19-38a0.63,0.63,0,0,1,.47-0.27,0.62,0.62,0,0,1,.5.19l2,2.13a0.63,0.63,0,0,1,.06.78L73.83,176.79a0.62,0.62,0,0,1-1-.71l10.52-15.27-1.13-1.2L56.87,196.35,58.4,197l10.18-14.78a0.63,0.63,0,0,1,1,.71L59.14,198.11A0.63,0.63,0,0,1,58.62,198.38Z" transform="translate(-31.97 -152.13)" fill="#101212"/><path d="M85.69,209.62a0.62,0.62,0,0,1-.24,0l-2.71-1.12a0.63,0.63,0,0,1-.28-0.93l12.17-17.66a0.62,0.62,0,1,1,1,.71l-11.73,17,1.53,0.63L97,191.44a0.62,0.62,0,1,1,1,.71l-11.85,17.2A0.62,0.62,0,0,1,85.69,209.62Z" transform="translate(-31.97 -152.13)" fill="#101212"/><path d="M88.3,175.23a0.62,0.62,0,0,1-.43-0.17l-7.26-6.88a0.63,0.63,0,1,1,.86-0.91l7.26,6.88A0.63,0.63,0,0,1,88.3,175.23Z" transform="translate(-31.97 -152.13)" fill="#101212"/><path d="M76.55,164.76a0.62,0.62,0,0,1-.45-0.19l-4.95-5.11a0.63,0.63,0,1,1,.9-0.87L77,163.7A0.62,0.62,0,0,1,76.55,164.76Z" transform="translate(-31.97 -152.13)" fill="#101212"/><path d="M84.65,202.77a0.62,0.62,0,0,1-.27-0.06L63.77,193a0.62,0.62,0,0,1,.53-1.13l20.61,9.75A0.62,0.62,0,0,1,84.65,202.77Z" transform="translate(-31.97 -152.13)" fill="#101212"/><path d="M93.6,207.31a0.62,0.62,0,0,1-.22,0l-3.63-1.36a0.62,0.62,0,1,1,.44-1.17l3.63,1.36A0.63,0.63,0,0,1,93.6,207.31Z" transform="translate(-31.97 -152.13)" fill="#101212"/><path d="M59.09,190.1a0.62,0.62,0,0,1-.25-0.05l-6.53-2.8a0.62,0.62,0,1,1,.49-1.15l6.53,2.8A0.62,0.62,0,0,1,59.09,190.1Z" transform="translate(-31.97 -152.13)" fill="#101212"/><path d="M78.73,176.19a0.62,0.62,0,0,1-.41-0.15l-1.95-1.68a0.62,0.62,0,0,1,.81-0.95l1.95,1.68A0.63,0.63,0,0,1,78.73,176.19Z" transform="translate(-31.97 -152.13)" fill="#101212"/><path d="M72.19,171.09a0.62,0.62,0,0,1-.4-0.15l-5.34-4.53a0.62,0.62,0,0,1,.81-1L72.59,170A0.63,0.63,0,0,1,72.19,171.09Z" transform="translate(-31.97 -152.13)" fill="#101212"/><path d="M87.86,198.1a0.62,0.62,0,0,1-.31-0.08L68,186.76a0.63,0.63,0,0,1,.62-1.08l19.57,11.26A0.63,0.63,0,0,1,87.86,198.1Z" transform="translate(-31.97 -152.13)" fill="#101212"/><path d="M96.43,203.2a0.62,0.62,0,0,1-.29-0.07l-3.36-1.75a0.63,0.63,0,1,1,.58-1.11L96.72,202A0.63,0.63,0,0,1,96.43,203.2Z" transform="translate(-31.97 -152.13)" fill="#101212"/><path d="M63.46,183.76a0.62,0.62,0,0,1-.3-0.08L57,180.31a0.62,0.62,0,1,1,.6-1.09l6.14,3.38A0.62,0.62,0,0,1,63.46,183.76Z" transform="translate(-31.97 -152.13)" fill="#101212"/><path d="M76.89,183.67h0a0.63,0.63,0,1,1,.63-0.62,0.62,0.62,0,0,1-.63.63Z" transform="translate(-31.97 -152.13)" fill="#101212"/><path d="M91.07,193.44a0.63,0.63,0,0,1-.35-0.11l-4.24-2.92a0.63,0.63,0,0,1,.71-1l4.24,2.92A0.63,0.63,0,0,1,91.07,193.44Z" transform="translate(-31.97 -152.13)" fill="#101212"/><path d="M99.26,199.09a0.62,0.62,0,0,1-.35-0.11l-3.1-2.13a0.62,0.62,0,0,1,.71-1l3.1,2.13A0.62,0.62,0,0,1,99.26,199.09Z" transform="translate(-31.97 -152.13)" fill="#101212"/><path d="M67.82,177.43a0.62,0.62,0,0,1-.35-0.11l-5.74-4a0.62,0.62,0,0,1,.71-1l5.74,4A0.62,0.62,0,0,1,67.82,177.43Z" transform="translate(-31.97 -152.13)" fill="#101212"/><path d="M100.61,195.43a0.62,0.62,0,0,1-.49-0.24,17.16,17.16,0,0,0-3-2.9,16.47,16.47,0,0,0-2.31-1.52,17.47,17.47,0,0,0-6.51-2.06l-3-.3H85.3l-11.82-1.18a5.75,5.75,0,0,1-5-4.53,5.47,5.47,0,0,1-.12-1.14,5.79,5.79,0,0,1,4.86-5.73,6.26,6.26,0,0,1,.85-0.07l35.61-.28v0a3.46,3.46,0,0,1,2.42,1,3.39,3.39,0,0,1,1,2.41l0.1,13.06a3.42,3.42,0,0,1-3.39,3.44l-9.22.07h0Zm-15-8.25,2.91,0.29a18.71,18.71,0,0,1,7,2.21,17.62,17.62,0,0,1,2.48,1.63,18.4,18.4,0,0,1,3,2.87l8.92-.07a2.16,2.16,0,0,0,2.15-2.18l-0.1-13.06a2.15,2.15,0,0,0-.65-1.52,2.22,2.22,0,0,0-1.53-.62L74.07,177a5.11,5.11,0,0,0-.67.05,4.53,4.53,0,0,0-3.79,4.49,4.2,4.2,0,0,0,.1.89A4.5,4.5,0,0,0,73.61,186l11.88,1.19h0.07Zm-9.95-3.23a2.7,2.7,0,0,1-2.09-4.41,0.63,0.63,0,0,1,1,.79,1.45,1.45,0,0,0,1.12,2.37h0a1.45,1.45,0,0,0,1.25-.73,0.62,0.62,0,1,1,1.09.62,2.7,2.7,0,0,1-2.32,1.36h0Z" transform="translate(-31.97 -152.13)" fill="#101212"/><path d="M32.8,229.6a0.63,0.63,0,0,1-.62-0.62L32,203.34c-0.06-7.24,3.23-14.2,9.26-19.61,5-4.45,11.34-7.36,16.23-7.4a0.61,0.61,0,0,1,.63.62,0.62,0.62,0,0,1-.62.63c-4.61,0-10.65,2.81-15.41,7.08-5.76,5.16-8.9,11.79-8.84,18.67L33.42,229a0.63,0.63,0,0,1-.62.63h0Z" transform="translate(-31.97 -152.13)" fill="#101212"/><path d="M40.31,229.54a0.63,0.63,0,0,1-.62-0.62l-0.2-25.64c-0.09-11.34,7.83-19.78,15.28-23.89a0.62,0.62,0,1,1,.6,1.09c-7.13,3.94-14.72,12-14.63,22.79l0.2,25.64a0.63,0.63,0,0,1-.62.63h0Z" transform="translate(-31.97 -152.13)" fill="#101212"/><path d="M43,229.52a0.63,0.63,0,0,1-.62-0.62L42.23,207c-0.05-6.75,1.15-11.27,3.9-14.63a0.62,0.62,0,1,1,1,.79c-2.55,3.13-3.67,7.39-3.62,13.83l0.17,21.9a0.62,0.62,0,0,1-.62.63h0Z" transform="translate(-31.97 -152.13)" fill="#101212"/><path d="M77.42,182.9a0.63,0.63,0,0,1-.52-1,1.44,1.44,0,0,0,.17-0.7,1.45,1.45,0,0,0-1.46-1.44h0a1.46,1.46,0,0,0-1.11.53,0.63,0.63,0,1,1-1-.79,2.7,2.7,0,0,1,2.07-1h0a2.7,2.7,0,0,1,2.35,4A0.62,0.62,0,0,1,77.42,182.9Z" transform="translate(-31.97 -152.13)" fill="#101212"/></svg>