<svg xmlns="http://www.w3.org/2000/svg" viewBox="0 0 81.24 80.77"><title>type9</title><path d="M57.65,313.24a0.63,0.63,0,0,1-.62-0.55,9.69,9.69,0,0,1,1.32-4.95c0.56-1.12,1.29-2.37,2.06-3.69,0.4-.68.8-1.37,1.18-2a0.63,0.63,0,0,1,1.09.61c-0.39.69-.79,1.38-1.19,2.07-0.76,1.3-1.48,2.53-2,3.62a11.11,11.11,0,0,0-1.15,3.46l5.53-1.7a42.24,42.24,0,0,1,6.32-1l0.06,0.62v0.63a41.7,41.7,0,0,0-6,1l-6.35,1.95Z" transform="translate(-31.97 -268.75)" fill="#101212"/><path d="M64.11,291.13a0.62,0.62,0,0,1-.62-0.54c-0.29-2.08-.54-3.88.22-5.49a0.63,0.63,0,0,1,1.13.53c-0.6,1.28-.39,2.82-0.11,4.78a0.63,0.63,0,0,1-.53.71H64.11Z" transform="translate(-31.97 -268.75)" fill="#101212"/><path d="M42.51,324.17a0.62,0.62,0,0,1-.29-0.07,4.06,4.06,0,0,1-.87-0.58c-2.59-2.34-5.66-10.2,1.32-23.13a59.23,59.23,0,0,1,15.74-18.61,3.37,3.37,0,0,0,1.26-2.88,10,10,0,0,1,.44-3.53c1.47-4.76,6.06-7.59,10.23-6.3s6.37,6.21,4.9,11a9.67,9.67,0,0,1-4.06,5.4,7.4,7.4,0,0,1-6.17.9,6.74,6.74,0,0,1-1-.41,0.62,0.62,0,0,1,.56-1.12,5.51,5.51,0,0,0,.83.33,6.17,6.17,0,0,0,5.13-.77,8.43,8.43,0,0,0,3.53-4.71c1.27-4.1-.56-8.32-4.07-9.4s-7.4,1.37-8.66,5.48a8.78,8.78,0,0,0-.39,3.09,4.62,4.62,0,0,1-1.75,3.95A58,58,0,0,0,43.77,301c-6.86,12.71-3.47,19.91-1.58,21.61a2.85,2.85,0,0,0,.6.4A0.63,0.63,0,0,1,42.51,324.17Z" transform="translate(-31.97 -268.75)" fill="#101212"/><path d="M91.23,344.35H80.28c-1.24,0-2.69-.45-2.69-1.7a3.08,3.08,0,0,1,.42-1.5A1.32,1.32,0,0,0,78,340a66.38,66.38,0,0,1-3.28-11.1,42.37,42.37,0,0,1-.84-9.23,25.75,25.75,0,0,1-6,2.51c-2.69.83-5.34,1.51-7.86,2a0.63,0.63,0,0,1-.25-1.22c2.49-.51,5.09-1.18,7.75-2,5.46-1.68,6.55-3,6.56-3a0.64,0.64,0,0,1,.72-0.21,0.62,0.62,0,0,1,.41.61A43.5,43.5,0,0,0,76,328.59a64.08,64.08,0,0,0,3.19,10.85,2.57,2.57,0,0,1,0,2.31,1.92,1.92,0,0,0-.26.89,1.82,1.82,0,0,0,1.44.45h11a1,1,0,0,0,.16-0.59,20,20,0,0,0-6.36-1.58,2.26,2.26,0,0,1-2.25-2.25c0.13-3,.33-10.17-0.59-14.1-0.16-.68-0.31-1.38-0.47-2.08-0.73-3.32-1.49-6.76-2.95-9.15a0.63,0.63,0,1,1,1.07-.65c1.57,2.57,2.35,6.11,3.1,9.53,0.15,0.69.31,1.38,0.46,2.06,0.92,3.94.78,10.68,0.62,14.35a1,1,0,0,0,1,1c0.69,0,7.62,1,7.62,2.65s-0.87,1.93-1.24,2Z" transform="translate(-31.97 -268.75)" fill="#101212"/><path d="M84.88,318.43a1.66,1.66,0,0,1-1.39-.74l0-.06a12.48,12.48,0,0,0-2.51-3,6,6,0,0,0-1.76-1h0c-0.65-.22-1.33-0.43-2-0.64-1.1-.34-2.23-0.69-3.19-1.07l-0.52-.2A35.22,35.22,0,0,1,70,310.23l0,0a19.4,19.4,0,0,1-8-7c-0.12-.18-0.23-0.38-0.34-0.58A17.53,17.53,0,0,1,59.78,298,0.63,0.63,0,1,1,61,297.7a16.3,16.3,0,0,0,1.69,4.3,5.85,5.85,0,0,0,.3.51,18.17,18.17,0,0,0,7.47,6.57l0.05,0a34,34,0,0,0,3.35,1.45l0.53,0.2c0.92,0.36,2,.71,3.11,1,0.68,0.21,1.36.42,2,.64h0a7.21,7.21,0,0,1,2.18,1.24,13.71,13.71,0,0,1,2.79,3.3h0l0,0a0.44,0.44,0,0,0,.39.16,0.46,0.46,0,0,0,.38-0.26,2.35,2.35,0,0,0-.28-2.3,16.76,16.76,0,0,0-4.09-4.41,24.4,24.4,0,0,0-3-2.09,36.6,36.6,0,0,0-6.2-2.81l-0.51-.17a0.62,0.62,0,0,1-.38-0.32,23.1,23.1,0,0,0-1.24-2.19c-0.76-1.21-1.31-2.09-2.48-6A11.81,11.81,0,0,0,63.71,291a3.51,3.51,0,0,0-2.14-.93,0.63,0.63,0,0,1,0-1.25A4.72,4.72,0,0,1,64.5,290a13.06,13.06,0,0,1,3.78,6.24c1.13,3.76,1.64,4.58,2.34,5.71,0.33,0.52.7,1.11,1.18,2.06l0.3,0.1A37.88,37.88,0,0,1,78.53,307a25.59,25.59,0,0,1,3.2,2.2,17.73,17.73,0,0,1,4.4,4.77,3.6,3.6,0,0,1,.33,3.42,1.7,1.7,0,0,1-1.41,1H84.88Z" transform="translate(-31.97 -268.75)" fill="#101212"/><path d="M42.92,336.67H42.06A3.65,3.65,0,0,1,38.41,333v-4.3A0.62,0.62,0,0,1,39,328.1h6.91a0.62,0.62,0,0,1,.62.63V333A3.65,3.65,0,0,1,42.92,336.67Zm-3.26-7.32V333a2.4,2.4,0,0,0,2.4,2.4h0.86a2.4,2.4,0,0,0,2.4-2.4v-3.67H39.66Z" transform="translate(-31.97 -268.75)" fill="#101212"/><path d="M100.2,277.65a0.62,0.62,0,0,1-.62-0.62v-7.64a0.62,0.62,0,1,1,1.25,0V277A0.62,0.62,0,0,1,100.2,277.65Z" transform="translate(-31.97 -268.75)" fill="#101212"/><path d="M100.2,311.91a0.62,0.62,0,0,1-.62-0.62v-5.9a0.62,0.62,0,1,1,1.25,0v5.9A0.62,0.62,0,0,1,100.2,311.91Z" transform="translate(-31.97 -268.75)" fill="#101212"/><path d="M110.65,306a0.62,0.62,0,0,1-.62-0.62v-36a0.62,0.62,0,0,1,1.25,0v36A0.62,0.62,0,0,1,110.65,306Z" transform="translate(-31.97 -268.75)" fill="#101212"/><path d="M90.76,275.58a0.62,0.62,0,0,1-.62-0.62v-5.58a0.62,0.62,0,1,1,1.25,0V275A0.62,0.62,0,0,1,90.76,275.58Z" transform="translate(-31.97 -268.75)" fill="#101212"/><path d="M90.76,325a0.62,0.62,0,0,1-.62-0.62V306.93a0.62,0.62,0,1,1,1.25,0v17.45A0.62,0.62,0,0,1,90.76,325Z" transform="translate(-31.97 -268.75)" fill="#101212"/><path d="M90.76,344.34a0.62,0.62,0,0,1-.62-0.62h0A0.63,0.63,0,1,1,90.76,344.34Z" transform="translate(-31.97 -268.75)" fill="#101212"/><path d="M81.33,279.43a0.62,0.62,0,0,1-.62-0.62v-9.43a0.63,0.63,0,0,1,1.25,0v9.43A0.62,0.62,0,0,1,81.33,279.43Z" transform="translate(-31.97 -268.75)" fill="#101212"/><path d="M81.33,307.56a0.62,0.62,0,0,1-.62-0.62v-8a0.63,0.63,0,0,1,1.25,0v8A0.62,0.62,0,0,1,81.33,307.56Z" transform="translate(-31.97 -268.75)" fill="#101212"/><path d="M81.33,344.34a0.62,0.62,0,0,1-.62-0.62h0A0.63,0.63,0,1,1,81.33,344.34Z" transform="translate(-31.97 -268.75)" fill="#101212"/><path d="M71.9,302.94a0.62,0.62,0,0,1-.62-0.62v-16a0.62,0.62,0,1,1,1.25,0v16A0.62,0.62,0,0,1,71.9,302.94Z" transform="translate(-31.97 -268.75)" fill="#101212"/><path d="M62.47,324.17a0.62,0.62,0,0,1-.62-0.62V323a0.62,0.62,0,1,1,1.25,0v0.58A0.62,0.62,0,0,1,62.47,324.17Z" transform="translate(-31.97 -268.75)" fill="#101212"/><path d="M53,285.29a0.62,0.62,0,0,1-.62-0.62V269.38a0.62,0.62,0,1,1,1.25,0v15.29A0.62,0.62,0,0,1,53,285.29Z" transform="translate(-31.97 -268.75)" fill="#101212"/><path d="M43.6,297.37a0.62,0.62,0,0,1-.62-0.62V290a0.62,0.62,0,1,1,1.25,0v6.75A0.62,0.62,0,0,1,43.6,297.37Z" transform="translate(-31.97 -268.75)" fill="#101212"/><path d="M34.17,320.6a0.62,0.62,0,0,1-.62-0.62V293.47a0.63,0.63,0,0,1,1.25,0V320A0.62,0.62,0,0,1,34.17,320.6Z" transform="translate(-31.97 -268.75)" fill="#101212"/><path d="M98.7,349.52H69.11A2.13,2.13,0,0,1,67,347.39V330.22a0.88,0.88,0,0,0-.87-0.87H35.67a2.13,2.13,0,0,1-2.12-2.12V325a2.13,2.13,0,0,1,2.12-2.12H70.4A2.13,2.13,0,0,1,72.52,325v18H98.7a2.13,2.13,0,0,1,2.12,2.12v2.18A2.13,2.13,0,0,1,98.7,349.52Zm-63-25.35a0.88,0.88,0,0,0-.87.87v2.18a0.88,0.88,0,0,0,.87.87H66.11a2.13,2.13,0,0,1,2.12,2.12v17.17a0.88,0.88,0,0,0,.87.87H98.7a0.88,0.88,0,0,0,.87-0.87v-2.18a0.88,0.88,0,0,0-.87-0.87H71.9a0.62,0.62,0,0,1-.62-0.62V325a0.88,0.88,0,0,0-.87-0.87H35.67Z" transform="translate(-31.97 -268.75)" fill="#101212"/><path d="M93.56,306a9.1,9.1,0,0,1-9.09-9.09,7.41,7.41,0,0,1,7.4-7.4,6.05,6.05,0,0,1,6,6,5,5,0,0,1-5,5,0.63,0.63,0,0,1,0-1.25,3.72,3.72,0,0,0,3.71-3.71,4.8,4.8,0,0,0-4.8-4.8,6.16,6.16,0,0,0-6.15,6.15,7.85,7.85,0,0,0,7.84,7.84,10,10,0,0,0,10-10,12.62,12.62,0,0,0-12.61-12.61A15.93,15.93,0,0,0,75,298.11a0.62,0.62,0,1,1-1.25,0,17.19,17.19,0,0,1,17.17-17.17,13.87,13.87,0,0,1,13.86,13.86A11.22,11.22,0,0,1,93.56,306Z" transform="translate(-31.97 -268.75)" fill="#101212"/><path d="M102.71,282.3a0.62,0.62,0,0,1-.43-0.17A14.7,14.7,0,0,0,92.69,278a18.55,18.55,0,0,0-6.34.84,0.63,0.63,0,0,1-.38-1.19,19.83,19.83,0,0,1,6.77-.89,16,16,0,0,1,10.41,4.44A0.63,0.63,0,0,1,102.71,282.3Z" transform="translate(-31.97 -268.75)" fill="#101212"/><path d="M112.59,321.58a0.63,0.63,0,0,1-.6-0.44,7.94,7.94,0,0,0-8.58-5.83,0.63,0.63,0,1,1-.12-1.25,9.26,9.26,0,0,1,9.9,6.71,0.63,0.63,0,0,1-.42.78Z" transform="translate(-31.97 -268.75)" fill="#101212"/><path d="M37.81,287.83l-0.15,0c-3.2-.81-6.45-5.28-5.52-9.15a0.63,0.63,0,1,1,1.22.29c-0.81,3.37,2.21,7,4.61,7.65A0.63,0.63,0,0,1,37.81,287.83Z" transform="translate(-31.97 -268.75)" fill="#101212"/><path d="M98.51,338.85a13.08,13.08,0,0,1-7.89-2.64,0.63,0.63,0,0,1,.75-1A11.91,11.91,0,0,0,108,332.86a9.39,9.39,0,0,0-1.85-13.15,7.39,7.39,0,0,0-10.35,1.46,5.79,5.79,0,0,0,1.14,8.1,4.51,4.51,0,0,0,6.31-.89,3.48,3.48,0,0,0-.69-4.87,2.66,2.66,0,0,0-3.72.52,0.63,0.63,0,0,1-1-.75,3.91,3.91,0,0,1,5.47-.77,4.73,4.73,0,0,1,.93,6.62,5.75,5.75,0,0,1-8.06,1.14,7,7,0,0,1-1.39-9.85,8.64,8.64,0,0,1,12.1-1.71,10.64,10.64,0,0,1,2.1,14.9A13.13,13.13,0,0,1,98.51,338.85Z" transform="translate(-31.97 -268.75)" fill="#101212"/><path d="M46.14,290a0.62,0.62,0,0,1-.31-1.17,9,9,0,0,0,3.4-12.25,7.07,7.07,0,0,0-9.63-2.67,5.53,5.53,0,0,0-2.09,7.54A4.3,4.3,0,0,0,43.37,283a3.31,3.31,0,0,0,1.25-4.52,2.53,2.53,0,0,0-3.44-1,1.9,1.9,0,0,0-.72,2.58,0.62,0.62,0,1,1-1.09.62,3.15,3.15,0,0,1,1.19-4.29,3.78,3.78,0,0,1,5.15,1.43A4.56,4.56,0,0,1,44,284.13a5.55,5.55,0,0,1-7.56-2.1A6.78,6.78,0,0,1,39,272.8a8.32,8.32,0,0,1,11.34,3.15,10.24,10.24,0,0,1-3.88,14A0.62,0.62,0,0,1,46.14,290Z" transform="translate(-31.97 -268.75)" fill="#101212"/></svg>