<svg xmlns="http://www.w3.org/2000/svg" viewBox="0 0 81.25 81.25"><title>type10</title><path d="M178.68,349.76H157a6.79,6.79,0,0,1-6.78-6.78V275.29a6.79,6.79,0,0,1,6.78-6.78h21.66a6.79,6.79,0,0,1,6.78,6.78V343A6.79,6.79,0,0,1,178.68,349.76Zm-21.66-80a5.54,5.54,0,0,0-5.53,5.53V343a5.54,5.54,0,0,0,5.53,5.53h21.66a5.54,5.54,0,0,0,5.53-5.53V275.29a5.54,5.54,0,0,0-5.53-5.53H157Z" transform="translate(-150.24 -268.51)" fill="#101212"/><path d="M224.73,349.76H198a6.76,6.76,0,0,1-6.76-6.76V275.27a6.76,6.76,0,0,1,6.76-6.76h26.76a6.76,6.76,0,0,1,6.76,6.76V343A6.76,6.76,0,0,1,224.73,349.76Zm-26.76-80a5.51,5.51,0,0,0-5.51,5.51V343a5.51,5.51,0,0,0,5.51,5.51h26.76a5.51,5.51,0,0,0,5.51-5.51V275.27a5.51,5.51,0,0,0-5.51-5.51H198Z" transform="translate(-150.24 -268.51)" fill="#101212"/><path d="M169.92,309.76a0.62,0.62,0,0,1-.5-1l3.78-5.16V273.82h-5.35a0.63,0.63,0,0,1,0-1.25h6a0.62,0.62,0,0,1,.63.63v30.61a0.63,0.63,0,0,1-.12.37l-3.9,5.33A0.63,0.63,0,0,1,169.92,309.76Z" transform="translate(-150.24 -268.51)" fill="#101212"/><path d="M165.77,309.76a0.62,0.62,0,0,1-.5-0.26l-3.9-5.33a0.63,0.63,0,0,1-.12-0.37V273.19a0.62,0.62,0,0,1,.63-0.62h6a0.63,0.63,0,0,1,0,1.25H162.5V303.6l3.78,5.16A0.62,0.62,0,0,1,165.77,309.76Z" transform="translate(-150.24 -268.51)" fill="#101212"/><path d="M167.85,345.7h-6a0.62,0.62,0,0,1-.62-0.62V314.46a0.63,0.63,0,0,1,.12-0.37l3.9-5.33a0.63,0.63,0,1,1,1,.74l-3.78,5.16v29.78h5.35A0.62,0.62,0,0,1,167.85,345.7Z" transform="translate(-150.24 -268.51)" fill="#101212"/><path d="M173.82,345.7h-6a0.63,0.63,0,1,1,0-1.25h5.35V314.67l-3.78-5.16a0.63,0.63,0,1,1,1-.74l3.9,5.33a0.63,0.63,0,0,1,.12.37v30.61A0.62,0.62,0,0,1,173.82,345.7Z" transform="translate(-150.24 -268.51)" fill="#101212"/><path d="M181.61,273.82h-5a0.63,0.63,0,0,1,0-1.25h5A0.63,0.63,0,0,1,181.61,273.82Z" transform="translate(-150.24 -268.51)" fill="#101212"/><path d="M181.61,278.19h-5a0.63,0.63,0,0,1,0-1.25h5A0.63,0.63,0,0,1,181.61,278.19Z" transform="translate(-150.24 -268.51)" fill="#101212"/><path d="M181.61,282.57h-5a0.63,0.63,0,0,1,0-1.25h5A0.63,0.63,0,0,1,181.61,282.57Z" transform="translate(-150.24 -268.51)" fill="#101212"/><path d="M181.61,286.94h-5a0.63,0.63,0,0,1,0-1.25h5A0.63,0.63,0,0,1,181.61,286.94Z" transform="translate(-150.24 -268.51)" fill="#101212"/><path d="M181.61,291.31h-5a0.63,0.63,0,0,1,0-1.25h5A0.63,0.63,0,0,1,181.61,291.31Z" transform="translate(-150.24 -268.51)" fill="#101212"/><path d="M181.61,295.69h-5a0.63,0.63,0,0,1,0-1.25h5A0.63,0.63,0,0,1,181.61,295.69Z" transform="translate(-150.24 -268.51)" fill="#101212"/><path d="M181.61,300.06h-5a0.63,0.63,0,0,1,0-1.25h5A0.63,0.63,0,0,1,181.61,300.06Z" transform="translate(-150.24 -268.51)" fill="#101212"/><path d="M181.61,304.43h-5a0.63,0.63,0,0,1,0-1.25h5A0.63,0.63,0,0,1,181.61,304.43Z" transform="translate(-150.24 -268.51)" fill="#101212"/><path d="M159.06,345.7h-5a0.63,0.63,0,1,1,0-1.25h5A0.63,0.63,0,0,1,159.06,345.7Z" transform="translate(-150.24 -268.51)" fill="#101212"/><path d="M159.06,341.33h-5a0.63,0.63,0,0,1,0-1.25h5A0.63,0.63,0,1,1,159.06,341.33Z" transform="translate(-150.24 -268.51)" fill="#101212"/><path d="M159.06,337h-5a0.63,0.63,0,0,1,0-1.25h5A0.63,0.63,0,1,1,159.06,337Z" transform="translate(-150.24 -268.51)" fill="#101212"/><path d="M159.06,332.58h-5a0.63,0.63,0,0,1,0-1.25h5A0.63,0.63,0,1,1,159.06,332.58Z" transform="translate(-150.24 -268.51)" fill="#101212"/><path d="M159.06,328.21h-5a0.63,0.63,0,1,1,0-1.25h5A0.63,0.63,0,0,1,159.06,328.21Z" transform="translate(-150.24 -268.51)" fill="#101212"/><path d="M159.06,323.84h-5a0.63,0.63,0,1,1,0-1.25h5A0.63,0.63,0,0,1,159.06,323.84Z" transform="translate(-150.24 -268.51)" fill="#101212"/><path d="M159.06,319.46h-5a0.63,0.63,0,0,1,0-1.25h5A0.63,0.63,0,1,1,159.06,319.46Z" transform="translate(-150.24 -268.51)" fill="#101212"/><path d="M159.06,315.09h-5a0.63,0.63,0,1,1,0-1.25h5A0.63,0.63,0,0,1,159.06,315.09Z" transform="translate(-150.24 -268.51)" fill="#101212"/><path d="M167.85,309.76a0.62,0.62,0,0,1-.49-0.24l-4.51-5.83a0.62,0.62,0,0,1-.13-0.38v-17a0.62,0.62,0,0,1,.62-0.62h8.94a0.62,0.62,0,0,1,.63.63v17a0.63,0.63,0,0,1-.13.38l-4.43,5.83A0.6,0.6,0,0,1,167.85,309.76ZM164,303.1l3.88,5,3.81-5V286.94H164V303.1Z" transform="translate(-150.24 -268.51)" fill="#101212"/><path d="M172.28,344.32h-8.94a0.62,0.62,0,0,1-.62-0.62v-7.37a0.62,0.62,0,0,1,.33-0.55l4.47-2.41a0.62,0.62,0,0,1,.59,0l4.47,2.41a0.62,0.62,0,0,1,.33.55v7.37A0.62,0.62,0,0,1,172.28,344.32ZM164,343.07h7.69V336.7l-3.85-2.08L164,336.7v6.37Z" transform="translate(-150.24 -268.51)" fill="#101212"/><path d="M211.36,305.83A16.78,16.78,0,1,1,228.13,289,16.8,16.8,0,0,1,211.36,305.83Zm0-32.31A15.53,15.53,0,1,0,226.88,289,15.55,15.55,0,0,0,211.36,273.52Z" transform="translate(-150.24 -268.51)" fill="#101212"/><path d="M211.36,280.09a0.62,0.62,0,0,1-.62-0.62V274.8a0.63,0.63,0,0,1,1.25,0v4.66A0.62,0.62,0,0,1,211.36,280.09Z" transform="translate(-150.24 -268.51)" fill="#101212"/><path d="M207.69,280.82a0.63,0.63,0,0,1-.58-0.39l-1.78-4.31a0.63,0.63,0,1,1,1.16-.48l1.78,4.31A0.62,0.62,0,0,1,207.69,280.82Z" transform="translate(-150.24 -268.51)" fill="#101212"/><path d="M204.58,282.89a0.62,0.62,0,0,1-.44-0.18l-3.3-3.3a0.62,0.62,0,1,1,.88-0.88l3.3,3.3A0.63,0.63,0,0,1,204.58,282.89Z" transform="translate(-150.24 -268.51)" fill="#101212"/><path d="M202.5,286a0.62,0.62,0,0,1-.24,0L198,284.17a0.63,0.63,0,0,1,.48-1.16l4.31,1.78A0.63,0.63,0,0,1,202.5,286Z" transform="translate(-150.24 -268.51)" fill="#101212"/><path d="M201.77,289.67h-4.66a0.63,0.63,0,1,1,0-1.25h4.66A0.63,0.63,0,0,1,201.77,289.67Z" transform="translate(-150.24 -268.51)" fill="#101212"/><path d="M198.19,295.13a0.63,0.63,0,0,1-.24-1.2l4.31-1.78a0.63,0.63,0,0,1,.48,1.16l-4.31,1.78A0.63,0.63,0,0,1,198.19,295.13Z" transform="translate(-150.24 -268.51)" fill="#101212"/><path d="M201.28,299.75a0.63,0.63,0,0,1-.44-1.07l3.3-3.3a0.62,0.62,0,1,1,.88.88l-3.3,3.3A0.62,0.62,0,0,1,201.28,299.75Z" transform="translate(-150.24 -268.51)" fill="#101212"/><path d="M221.43,299.75a0.62,0.62,0,0,1-.44-0.18l-3.3-3.3a0.62,0.62,0,1,1,.88-0.88l3.3,3.3A0.63,0.63,0,0,1,221.43,299.75Z" transform="translate(-150.24 -268.51)" fill="#101212"/><path d="M224.52,295.13a0.63,0.63,0,0,1-.24,0L220,293.29a0.63,0.63,0,1,1,.48-1.16l4.31,1.78A0.63,0.63,0,0,1,224.52,295.13Z" transform="translate(-150.24 -268.51)" fill="#101212"/><path d="M225.61,289.67h-4.66a0.63,0.63,0,0,1,0-1.25h4.66A0.63,0.63,0,0,1,225.61,289.67Z" transform="translate(-150.24 -268.51)" fill="#101212"/><path d="M220.21,286a0.63,0.63,0,0,1-.24-1.2l4.31-1.78a0.63,0.63,0,1,1,.48,1.16L220.45,286A0.62,0.62,0,0,1,220.21,286Z" transform="translate(-150.24 -268.51)" fill="#101212"/><path d="M218.14,282.89a0.63,0.63,0,0,1-.44-1.07l3.3-3.3a0.62,0.62,0,1,1,.88.88l-3.3,3.3A0.62,0.62,0,0,1,218.14,282.89Z" transform="translate(-150.24 -268.51)" fill="#101212"/><path d="M215,280.82a0.62,0.62,0,0,1-.58-0.86l1.78-4.31a0.63,0.63,0,1,1,1.16.48l-1.78,4.31A0.63,0.63,0,0,1,215,280.82Z" transform="translate(-150.24 -268.51)" fill="#101212"/><path d="M211.36,290.83a1.78,1.78,0,1,1,1.79-1.78A1.79,1.79,0,0,1,211.36,290.83Zm0-2.32a0.53,0.53,0,1,0,.54.54A0.54,0.54,0,0,0,211.36,288.51Z" transform="translate(-150.24 -268.51)" fill="#101212"/><path d="M213.73,293.3a0.62,0.62,0,0,1-.52-0.28l-6.57-10.08a0.62,0.62,0,0,1,1-.68l6.57,10.08A0.63,0.63,0,0,1,213.73,293.3Z" transform="translate(-150.24 -268.51)" fill="#101212"/><path d="M211.36,345.39a16.78,16.78,0,1,1,16.78-16.78A16.8,16.8,0,0,1,211.36,345.39Zm0-32.31a15.53,15.53,0,1,0,15.53,15.53A15.55,15.55,0,0,0,211.36,313.09Z" transform="translate(-150.24 -268.51)" fill="#101212"/><path d="M211.36,319.65a0.62,0.62,0,0,1-.62-0.62v-4.66a0.62,0.62,0,1,1,1.25,0V319A0.62,0.62,0,0,1,211.36,319.65Z" transform="translate(-150.24 -268.51)" fill="#101212"/><path d="M207.69,320.38a0.63,0.63,0,0,1-.58-0.39l-1.78-4.31a0.63,0.63,0,1,1,1.16-.48l1.78,4.31A0.62,0.62,0,0,1,207.69,320.38Z" transform="translate(-150.24 -268.51)" fill="#101212"/><path d="M204.58,322.46a0.62,0.62,0,0,1-.44-0.18l-3.3-3.3a0.62,0.62,0,1,1,.88-0.88l3.3,3.3A0.62,0.62,0,0,1,204.58,322.46Z" transform="translate(-150.24 -268.51)" fill="#101212"/><path d="M202.5,325.57a0.62,0.62,0,0,1-.24,0L198,323.74a0.63,0.63,0,1,1,.48-1.16l4.31,1.78A0.63,0.63,0,0,1,202.5,325.57Z" transform="translate(-150.24 -268.51)" fill="#101212"/><path d="M201.77,329.24h-4.66a0.63,0.63,0,1,1,0-1.25h4.66A0.63,0.63,0,1,1,201.77,329.24Z" transform="translate(-150.24 -268.51)" fill="#101212"/><path d="M198.19,334.69a0.63,0.63,0,0,1-.24-1.2l4.31-1.78a0.63,0.63,0,0,1,.48,1.16l-4.31,1.78A0.63,0.63,0,0,1,198.19,334.69Z" transform="translate(-150.24 -268.51)" fill="#101212"/><path d="M201.28,339.32a0.63,0.63,0,0,1-.44-1.07l3.3-3.3a0.62,0.62,0,1,1,.88.88l-3.3,3.3A0.62,0.62,0,0,1,201.28,339.32Z" transform="translate(-150.24 -268.51)" fill="#101212"/><path d="M221.43,339.32a0.62,0.62,0,0,1-.44-0.18l-3.3-3.3a0.62,0.62,0,1,1,.88-0.88l3.3,3.3A0.63,0.63,0,0,1,221.43,339.32Z" transform="translate(-150.24 -268.51)" fill="#101212"/><path d="M224.52,334.69a0.63,0.63,0,0,1-.24,0L220,332.86a0.63,0.63,0,0,1,.48-1.16l4.31,1.78A0.63,0.63,0,0,1,224.52,334.69Z" transform="translate(-150.24 -268.51)" fill="#101212"/><path d="M225.61,329.24h-4.66a0.63,0.63,0,0,1,0-1.25h4.66A0.63,0.63,0,0,1,225.61,329.24Z" transform="translate(-150.24 -268.51)" fill="#101212"/><path d="M220.21,325.57a0.63,0.63,0,0,1-.24-1.2l4.31-1.78a0.63,0.63,0,1,1,.48,1.16l-4.31,1.78A0.62,0.62,0,0,1,220.21,325.57Z" transform="translate(-150.24 -268.51)" fill="#101212"/><path d="M218.14,322.46a0.62,0.62,0,0,1-.44-1.07l3.3-3.3a0.62,0.62,0,1,1,.88.88l-3.3,3.3A0.62,0.62,0,0,1,218.14,322.46Z" transform="translate(-150.24 -268.51)" fill="#101212"/><path d="M215,320.38a0.62,0.62,0,0,1-.58-0.86l1.78-4.31a0.63,0.63,0,0,1,1.16.48L215.6,320A0.63,0.63,0,0,1,215,320.38Z" transform="translate(-150.24 -268.51)" fill="#101212"/><path d="M211.36,330.4a1.78,1.78,0,1,1,1.79-1.78A1.79,1.79,0,0,1,211.36,330.4Zm0-2.32a0.53,0.53,0,1,0,.54.53A0.54,0.54,0,0,0,211.36,328.08Z" transform="translate(-150.24 -268.51)" fill="#101212"/><path d="M208.9,332.79a0.62,0.62,0,0,1-.51-1l6.87-9.88a0.63,0.63,0,0,1,1,.71l-6.87,9.88A0.63,0.63,0,0,1,208.9,332.79Z" transform="translate(-150.24 -268.51)" fill="#101212"/></svg>