<svg xmlns="http://www.w3.org/2000/svg" viewBox="0 0 81.25 69.05"><title>type15</title><path d="M341.59,461.93H281.28c-7,0-12.77-5.08-12.77-11.32s5.73-11.32,12.77-11.32H343a4.06,4.06,0,0,1,2.7,1,3.28,3.28,0,0,1,1.16,2.48,3.68,3.68,0,0,1-3.85,3.46H281.34c-2.83,0-5.13,2-5.13,4.45s2.3,4.45,5.13,4.45h61a0.48,0.48,0,1,0,0-.93H281.49a3.42,3.42,0,1,1,0-6.8h60.1c4.51,0,8.17,3.26,8.17,7.27S346.09,461.93,341.59,461.93Zm-60.31-21.39c-6.35,0-11.52,4.52-11.52,10.07s5.17,10.07,11.52,10.07h60.31c3.82,0,6.92-2.7,6.92-6s-3.11-6-6.92-6h-60.1a2.18,2.18,0,1,0,0,4.3h60.88a1.72,1.72,0,1,1,0,3.43h-61c-3.52,0-6.38-2.56-6.38-5.7s2.86-5.7,6.38-5.7H343a2.44,2.44,0,0,0,2.6-2.22,2,2,0,0,0-.73-1.54,2.82,2.82,0,0,0-1.87-.68H281.28Z" transform="translate(-268.51 -392.88)" fill="#101212"/><path d="M337,438.73H276.68c-4.51,0-8.17-3.26-8.17-7.27s3.67-7.27,8.17-7.27h60.1a3.42,3.42,0,1,1,0,6.8H275.91a0.48,0.48,0,1,0,0,.93h61c2.83,0,5.13-2,5.13-4.45s-2.3-4.45-5.13-4.45H275.25a3.68,3.68,0,0,1-3.85-3.46,3.28,3.28,0,0,1,1.16-2.48,4.06,4.06,0,0,1,2.7-1H337c7,0,12.77,5.08,12.77,11.32S344,438.73,337,438.73Zm-60.31-13.29c-3.82,0-6.92,2.7-6.92,6s3.11,6,6.92,6H337c6.35,0,11.52-4.52,11.52-10.07s-5.17-10.07-11.52-10.07H275.25a2.81,2.81,0,0,0-1.87.68,2,2,0,0,0-.73,1.54,2.44,2.44,0,0,0,2.6,2.22h61.69c3.52,0,6.38,2.56,6.38,5.7s-2.86,5.7-6.38,5.7h-61a1.72,1.72,0,1,1,0-3.43h60.88a2.18,2.18,0,1,0,0-4.3h-60.1Z" transform="translate(-268.51 -392.88)" fill="#101212"/><path d="M341.59,415.52H281.28c-7,0-12.77-5.08-12.77-11.32s5.73-11.32,12.77-11.32H343a4.06,4.06,0,0,1,2.7,1,3.28,3.28,0,0,1,1.16,2.48,3.68,3.68,0,0,1-3.85,3.46H281.34c-2.83,0-5.13,2-5.13,4.45s2.3,4.45,5.13,4.45h61a0.48,0.48,0,1,0,0-.93H281.49a3.42,3.42,0,1,1,0-6.8h60.1c4.51,0,8.17,3.26,8.17,7.27S346.09,415.52,341.59,415.52Zm-60.31-21.39c-6.35,0-11.52,4.52-11.52,10.07s5.17,10.07,11.52,10.07h60.31c3.82,0,6.92-2.7,6.92-6s-3.11-6-6.92-6h-60.1a2.18,2.18,0,1,0,0,4.3h60.88a1.72,1.72,0,1,1,0,3.43h-61c-3.52,0-6.38-2.56-6.38-5.7s2.86-5.7,6.38-5.7H343a2.44,2.44,0,0,0,2.6-2.22,2,2,0,0,0-.73-1.54,2.82,2.82,0,0,0-1.87-.68H281.28Z" transform="translate(-268.51 -392.88)" fill="#101212"/></svg>