<svg xmlns="http://www.w3.org/2000/svg" viewBox="0 0 81.25 81.25"><title>type14</title><path d="M228,468H153.77a3.53,3.53,0,0,1-3.53-3.53V390.31a3.53,3.53,0,0,1,3.53-3.53H228a3.53,3.53,0,0,1,3.53,3.53V464.5A3.53,3.53,0,0,1,228,468Zm-74.19-80a2.28,2.28,0,0,0-2.28,2.28V464.5a2.28,2.28,0,0,0,2.28,2.28H228a2.28,2.28,0,0,0,2.28-2.28V390.31A2.28,2.28,0,0,0,228,388H153.77Z" transform="translate(-150.24 -386.78)" fill="#101212"/><path d="M161.33,435a0.62,0.62,0,0,1-.62-0.62,0.47,0.47,0,0,0-.07-0.24,1.16,1.16,0,0,0-.26-0.28,4.06,4.06,0,0,0-2.16-.69l-0.43,0a4.37,4.37,0,0,0-2.6.71,1.11,1.11,0,0,0-.24.25,0.46,0.46,0,0,0-.09.26,0.63,0.63,0,0,1-1.25,0,1.68,1.68,0,0,1,.3-1,2.29,2.29,0,0,1,.5-0.54,5.55,5.55,0,0,1,3.37-1l0.54,0a5.24,5.24,0,0,1,2.86,1,2.39,2.39,0,0,1,.55.61,1.72,1.72,0,0,1,.25.87A0.62,0.62,0,0,1,161.33,435Z" transform="translate(-150.24 -386.78)" fill="#101212"/><path d="M163.77,433.12a0.62,0.62,0,0,1-.59-0.83,0.4,0.4,0,0,0-.12-0.33,4.08,4.08,0,0,0-4.58,0,0.41,0.41,0,0,0-.13.26,0.66,0.66,0,0,1-.38.83,0.6,0.6,0,0,1-.79-0.35,1.44,1.44,0,0,1-.08-0.48,1.62,1.62,0,0,1,.46-1.1,5.2,5.2,0,0,1,6.43,0,1.63,1.63,0,0,1,.45,1.1,1.45,1.45,0,0,1-.08.48A0.63,0.63,0,0,1,163.77,433.12Z" transform="translate(-150.24 -386.78)" fill="#101212"/><path d="M167.31,435a0.62,0.62,0,0,1-.62-0.62,0.45,0.45,0,0,0-.09-0.25,1.19,1.19,0,0,0-.25-0.26,4.37,4.37,0,0,0-2.59-.71l-0.44,0a4,4,0,0,0-2.17.7,0.63,0.63,0,1,1-.79-1,5.23,5.23,0,0,1,2.86-1l0.52,0a5.56,5.56,0,0,1,3.38,1,2.42,2.42,0,0,1,.5.54,1.67,1.67,0,0,1,.29.94A0.62,0.62,0,0,1,167.31,435Z" transform="translate(-150.24 -386.78)" fill="#101212"/><path d="M173.12,440.62a0.62,0.62,0,0,1-.62-0.62v-3.49a0.75,0.75,0,0,0-.75-0.75h-1.28V440a0.62,0.62,0,0,1-1.25,0v-4.87a0.62,0.62,0,0,1,.63-0.62h1.9a2,2,0,0,1,2,2V440A0.62,0.62,0,0,1,173.12,440.62Z" transform="translate(-150.24 -386.78)" fill="#101212"/><path d="M173.12,464.47h-3.28a0.63,0.63,0,1,1,0-1.25h3.28A0.63,0.63,0,1,1,173.12,464.47Z" transform="translate(-150.24 -386.78)" fill="#101212"/><path d="M228.3,430.72H196.92a0.63,0.63,0,0,1,0-1.25H228.3A0.63,0.63,0,0,1,228.3,430.72Z" transform="translate(-150.24 -386.78)" fill="#101212"/><path d="M228.3,425.59H196.92a0.63,0.63,0,0,1,0-1.25H228.3A0.63,0.63,0,0,1,228.3,425.59Z" transform="translate(-150.24 -386.78)" fill="#101212"/><path d="M194.25,430.72H176.75a1.27,1.27,0,0,1-1.27-1.27v-3.83a1.27,1.27,0,0,1,1.27-1.27h17.51a0.63,0.63,0,0,1,0,1.25H176.75l0,3.85,8.5,0h9A0.63,0.63,0,0,1,194.25,430.72Z" transform="translate(-150.24 -386.78)" fill="#101212"/><path d="M194.25,449.4H173.12a0.63,0.63,0,0,1,0-1.25h21.13A0.63,0.63,0,0,1,194.25,449.4Z" transform="translate(-150.24 -386.78)" fill="#101212"/><path d="M228.3,449.4H196.92a0.62,0.62,0,0,1,0-1.25H228.3A0.63,0.63,0,1,1,228.3,449.4Z" transform="translate(-150.24 -386.78)" fill="#101212"/><path d="M194.25,444.26H173.12a0.63,0.63,0,1,1,0-1.25h21.13A0.63,0.63,0,1,1,194.25,444.26Z" transform="translate(-150.24 -386.78)" fill="#101212"/><path d="M228.3,444.26H196.92a0.63,0.63,0,0,1,0-1.25H228.3A0.63,0.63,0,0,1,228.3,444.26Z" transform="translate(-150.24 -386.78)" fill="#101212"/><path d="M173.12,464.47a0.62,0.62,0,0,1-.62-0.62V440a0.62,0.62,0,0,1,1.25,0v23.85A0.62,0.62,0,0,1,173.12,464.47Z" transform="translate(-150.24 -386.78)" fill="#101212"/><path d="M169.84,440.62a0.62,0.62,0,0,1-.62-0.62v-4.24H153.43a0.62,0.62,0,0,1,0-1.25h16.41a0.62,0.62,0,0,1,.63.63V440A0.62,0.62,0,0,1,169.84,440.62Z" transform="translate(-150.24 -386.78)" fill="#101212"/><path d="M169.84,440.62H153.43a0.63,0.63,0,0,1,0-1.25h16.41A0.63,0.63,0,1,1,169.84,440.62Z" transform="translate(-150.24 -386.78)" fill="#101212"/><path d="M169.84,455H153.43a0.63,0.63,0,0,1,0-1.25h16.41A0.63,0.63,0,1,1,169.84,455Z" transform="translate(-150.24 -386.78)" fill="#101212"/><path d="M169.84,460.27H153.43a0.63,0.63,0,0,1,0-1.25h16.41A0.63,0.63,0,1,1,169.84,460.27Z" transform="translate(-150.24 -386.78)" fill="#101212"/><path d="M169.84,464.47a0.62,0.62,0,0,1-.62-0.62V435.13a0.62,0.62,0,0,1,1.25,0v28.72A0.62,0.62,0,0,1,169.84,464.47Z" transform="translate(-150.24 -386.78)" fill="#101212"/><path d="M183.45,434.21h-0.75a2.4,2.4,0,0,1-2.4-2.4V430.1a0.62,0.62,0,0,1,.63-0.62h4.31a0.62,0.62,0,0,1,.63.63v1.72A2.4,2.4,0,0,1,183.45,434.21Zm-1.91-3.49v1.09a1.15,1.15,0,0,0,1.15,1.15h0.75a1.15,1.15,0,0,0,1.15-1.15v-1.09h-3.06Z" transform="translate(-150.24 -386.78)" fill="#101212"/><path d="M224.06,434.21h-0.75a2.4,2.4,0,0,1-2.4-2.4V430.1a0.62,0.62,0,0,1,.63-0.62h4.31a0.62,0.62,0,0,1,.62.63v1.72A2.4,2.4,0,0,1,224.06,434.21Zm-1.91-3.49v1.09a1.15,1.15,0,0,0,1.15,1.15h0.75a1.15,1.15,0,0,0,1.15-1.15v-1.09h-3.06Z" transform="translate(-150.24 -386.78)" fill="#101212"/><path d="M224.06,453.06h-0.75a2.4,2.4,0,0,1-2.4-2.4v-1.72a0.62,0.62,0,0,1,.63-0.62h4.31a0.62,0.62,0,0,1,.62.63v1.72A2.4,2.4,0,0,1,224.06,453.06Zm-1.91-3.49v1.09a1.15,1.15,0,0,0,1.15,1.15h0.75a1.15,1.15,0,0,0,1.15-1.15v-1.09h-3.06Z" transform="translate(-150.24 -386.78)" fill="#101212"/><path d="M167.44,455a0.62,0.62,0,0,1-.62-0.62V440a0.62,0.62,0,0,1,1.25,0v14.39A0.62,0.62,0,0,1,167.44,455Z" transform="translate(-150.24 -386.78)" fill="#101212"/><path d="M222.18,464.47H196.92a0.62,0.62,0,0,1-.62-0.62V391a0.62,0.62,0,0,1,.63-0.62h25.26a6.76,6.76,0,0,1,6.75,6.75v60.63A6.76,6.76,0,0,1,222.18,464.47Zm-24.64-1.25h24.64a5.5,5.5,0,0,0,5.5-5.5V397.09a5.5,5.5,0,0,0-5.5-5.5H197.54v71.63Z" transform="translate(-150.24 -386.78)" fill="#101212"/><path d="M194.25,464.47H156.33a3.53,3.53,0,0,1-3.53-3.53V393.87a3.53,3.53,0,0,1,3.53-3.53h37.92a0.62,0.62,0,0,1,.63.63v72.88A0.62,0.62,0,0,1,194.25,464.47Zm-37.92-72.88a2.28,2.28,0,0,0-2.28,2.28v67.07a2.28,2.28,0,0,0,2.28,2.28h37.3V391.59h-37.3Z" transform="translate(-150.24 -386.78)" fill="#101212"/><path d="M169.91,411.14h-3.54a3.72,3.72,0,0,1-3.71-3.71v-5.28a3.72,3.72,0,0,1,3.71-3.71h3.54a3.72,3.72,0,0,1,3.71,3.71v5.28A3.72,3.72,0,0,1,169.91,411.14Zm-3.54-11.46a2.47,2.47,0,0,0-2.46,2.46v5.28a2.47,2.47,0,0,0,2.46,2.46h3.54a2.47,2.47,0,0,0,2.46-2.46v-5.28a2.47,2.47,0,0,0-2.46-2.46h-3.54Z" transform="translate(-150.24 -386.78)" fill="#101212"/><path d="M217.94,411.14a4.82,4.82,0,1,1,4.82-4.82A4.82,4.82,0,0,1,217.94,411.14Zm0-8.38a3.57,3.57,0,1,0,3.57,3.57A3.57,3.57,0,0,0,217.94,402.76Z" transform="translate(-150.24 -386.78)" fill="#101212"/><path d="M217.94,407a0.62,0.62,0,0,1-.51-1l1.43-2a0.63,0.63,0,0,1,1,.73l-1.43,2A0.63,0.63,0,0,1,217.94,407Z" transform="translate(-150.24 -386.78)" fill="#101212"/></svg>