<svg xmlns="http://www.w3.org/2000/svg" viewBox="0 0 81.25 80.71"><title>type11</title><path d="M349.05,303.12a0.62,0.62,0,0,1-.26-0.06L314,286.77a0.63,0.63,0,0,1-.2-0.14l-15-16.41a0.61,0.61,0,0,0-.42-0.18,0.55,0.55,0,0,0-.41.19L269.78,302.9a0.63,0.63,0,0,1-.95-0.82L297,269.41a1.81,1.81,0,0,1,2.7,0l14.95,16.32,34.67,16.24A0.62,0.62,0,0,1,349.05,303.12Z" transform="translate(-268.51 -268.78)" fill="#101212"/><path d="M346.06,344.13H272.13a3.62,3.62,0,0,1-3.62-3.62V328.19a3.62,3.62,0,0,1,3.62-3.62h73.93a3.62,3.62,0,0,1,3.62,3.62v12.32A3.62,3.62,0,0,1,346.06,344.13Zm-73.93-18.31a2.37,2.37,0,0,0-2.37,2.37v12.32a2.37,2.37,0,0,0,2.37,2.37h73.93a2.37,2.37,0,0,0,2.37-2.37V328.19a2.37,2.37,0,0,0-2.37-2.37H272.13Z" transform="translate(-268.51 -268.78)" fill="#101212"/><path d="M273.25,349.49a5.82,5.82,0,0,1-4.47-2,0.62,0.62,0,0,1,1-.8,4.85,4.85,0,0,0,7,0,0.63,0.63,0,0,1,1,.8A5.84,5.84,0,0,1,273.25,349.49Z" transform="translate(-268.51 -268.78)" fill="#101212"/><path d="M281.23,349.49a5.82,5.82,0,0,1-4.47-2,0.62,0.62,0,0,1,1-.8,4.86,4.86,0,0,0,7,0,0.63,0.63,0,1,1,1,.8A5.84,5.84,0,0,1,281.23,349.49Z" transform="translate(-268.51 -268.78)" fill="#101212"/><path d="M289.22,349.49a5.82,5.82,0,0,1-4.47-2,0.62,0.62,0,1,1,1-.8,4.86,4.86,0,0,0,7,0,0.63,0.63,0,0,1,1,.8A5.84,5.84,0,0,1,289.22,349.49Z" transform="translate(-268.51 -268.78)" fill="#101212"/><path d="M297.21,349.49a5.82,5.82,0,0,1-4.47-2,0.62,0.62,0,1,1,1-.8,4.86,4.86,0,0,0,7,0,0.63,0.63,0,0,1,1,.8A5.84,5.84,0,0,1,297.21,349.49Z" transform="translate(-268.51 -268.78)" fill="#101212"/><path d="M305.2,349.49a5.82,5.82,0,0,1-4.47-2,0.62,0.62,0,0,1,1-.8,4.85,4.85,0,0,0,7,0,0.63,0.63,0,0,1,1,.8A5.83,5.83,0,0,1,305.2,349.49Z" transform="translate(-268.51 -268.78)" fill="#101212"/><path d="M313.18,349.49a5.83,5.83,0,0,1-4.47-2,0.63,0.63,0,0,1,1-.8,4.86,4.86,0,0,0,7,0,0.63,0.63,0,1,1,1,.8A5.84,5.84,0,0,1,313.18,349.49Z" transform="translate(-268.51 -268.78)" fill="#101212"/><path d="M321.17,349.49a5.83,5.83,0,0,1-4.47-2,0.63,0.63,0,1,1,1-.8,4.85,4.85,0,0,0,7,0,0.63,0.63,0,1,1,1,.8A5.84,5.84,0,0,1,321.17,349.49Z" transform="translate(-268.51 -268.78)" fill="#101212"/><path d="M329.16,349.49a5.83,5.83,0,0,1-4.47-2,0.63,0.63,0,1,1,1-.8,4.86,4.86,0,0,0,7,0,0.63,0.63,0,0,1,1,.8A5.84,5.84,0,0,1,329.16,349.49Z" transform="translate(-268.51 -268.78)" fill="#101212"/><path d="M337.15,349.49a5.83,5.83,0,0,1-4.47-2,0.63,0.63,0,0,1,1-.8,4.86,4.86,0,0,0,7,0,0.63,0.63,0,0,1,1,.8A5.84,5.84,0,0,1,337.15,349.49Z" transform="translate(-268.51 -268.78)" fill="#101212"/><path d="M345.14,349.49a5.83,5.83,0,0,1-4.47-2,0.63,0.63,0,1,1,1-.8,4.86,4.86,0,0,0,7,0,0.63,0.63,0,1,1,1,.8A5.84,5.84,0,0,1,345.14,349.49Z" transform="translate(-268.51 -268.78)" fill="#101212"/><path d="M346.85,341.94a0.62,0.62,0,0,1-.62-0.62V327.39a0.63,0.63,0,0,1,1.25,0v13.92A0.62,0.62,0,0,1,346.85,341.94Z" transform="translate(-268.51 -268.78)" fill="#101212"/><path d="M346.29,341.94a0.62,0.62,0,0,1-.39-0.14l-8.75-7a0.63,0.63,0,0,1,.78-1l8.75,7A0.63,0.63,0,0,1,346.29,341.94Z" transform="translate(-268.51 -268.78)" fill="#101212"/><path d="M335.89,333.67a0.64,0.64,0,0,1-.39-0.14l-7.1-5.65a0.63,0.63,0,1,1,.78-1l7.08,5.63A0.62,0.62,0,0,1,335.89,333.67Z" transform="translate(-268.51 -268.78)" fill="#101212"/><path d="M343,341.94a0.62,0.62,0,0,1-.39-0.14l-7.08-5.63a0.62,0.62,0,0,1,.36-1.13h0a0.63,0.63,0,0,1,.39.14l7.1,5.65A0.63,0.63,0,0,1,343,341.94Z" transform="translate(-268.51 -268.78)" fill="#101212"/><path d="M334.24,335a0.62,0.62,0,0,1-.39-0.14l-8.76-7a0.62,0.62,0,0,1,.78-1l8.76,7A0.62,0.62,0,0,1,334.24,335Z" transform="translate(-268.51 -268.78)" fill="#101212"/><path d="M328.78,341.94a0.63,0.63,0,0,1-.39-1.11l7.1-5.65,0.05,0,10.35-8.23a0.63,0.63,0,1,1,.78,1l-10.4,8.27-0.05,0-7.05,5.61A0.62,0.62,0,0,1,328.78,341.94Z" transform="translate(-268.51 -268.78)" fill="#101212"/><path d="M325.49,341.94a0.62,0.62,0,0,1-.39-1.11l10.4-8.27,0.05,0,7.05-5.61a0.63,0.63,0,1,1,.78,1l-7.1,5.65-0.05,0-10.35,8.24A0.62,0.62,0,0,1,325.49,341.94Z" transform="translate(-268.51 -268.78)" fill="#101212"/><path d="M319.49,341.94a0.62,0.62,0,0,1-.39-0.14l-17.5-13.92a0.62,0.62,0,0,1,.78-1l17.51,13.92A0.63,0.63,0,0,1,319.49,341.94Z" transform="translate(-268.51 -268.78)" fill="#101212"/><path d="M316.2,341.94a0.62,0.62,0,0,1-.39-0.14l-17.5-13.92a0.63,0.63,0,1,1,.78-1l17.5,13.92A0.63,0.63,0,0,1,316.2,341.94Z" transform="translate(-268.51 -268.78)" fill="#101212"/><path d="M310.75,335a0.62,0.62,0,0,1-.39-1.11l8.75-7a0.63,0.63,0,0,1,.78,1l-8.75,7A0.62,0.62,0,0,1,310.75,335Z" transform="translate(-268.51 -268.78)" fill="#101212"/><path d="M302,341.94a0.62,0.62,0,0,1-.39-1.11l7.11-5.65a0.62,0.62,0,1,1,.78,1l-7.11,5.65A0.62,0.62,0,0,1,302,341.94Z" transform="translate(-268.51 -268.78)" fill="#101212"/><path d="M309.1,333.67a0.62,0.62,0,0,1-.39-1.11l7.1-5.65a0.63,0.63,0,1,1,.78,1l-7.1,5.65A0.62,0.62,0,0,1,309.1,333.67Z" transform="translate(-268.51 -268.78)" fill="#101212"/><path d="M298.7,341.94a0.63,0.63,0,0,1-.39-1.11l8.75-7a0.63,0.63,0,1,1,.78,1l-8.75,7A0.62,0.62,0,0,1,298.7,341.94Z" transform="translate(-268.51 -268.78)" fill="#101212"/><path d="M292.7,341.94a0.62,0.62,0,0,1-.39-0.14l-8.75-7a0.63,0.63,0,0,1,.78-1l8.75,7A0.63,0.63,0,0,1,292.7,341.94Z" transform="translate(-268.51 -268.78)" fill="#101212"/><path d="M282.3,333.67a0.64,0.64,0,0,1-.39-0.14l-7.1-5.65a0.63,0.63,0,0,1,.78-1l7.08,5.63A0.62,0.62,0,0,1,282.3,333.67Z" transform="translate(-268.51 -268.78)" fill="#101212"/><path d="M289.41,341.94a0.62,0.62,0,0,1-.39-0.14l-7.08-5.63a0.62,0.62,0,0,1,.36-1.13h0a0.63,0.63,0,0,1,.39.14l7.1,5.65A0.63,0.63,0,0,1,289.41,341.94Z" transform="translate(-268.51 -268.78)" fill="#101212"/><path d="M280.66,335a0.62,0.62,0,0,1-.39-0.14l-8.76-7a0.62,0.62,0,1,1,.78-1l8.76,7A0.62,0.62,0,0,1,280.66,335Z" transform="translate(-268.51 -268.78)" fill="#101212"/><path d="M275.2,341.94a0.63,0.63,0,0,1-.39-1.11l7.1-5.65,0.05,0,10.35-8.23a0.63,0.63,0,1,1,.78,1l-10.4,8.27-0.05,0-7.05,5.61A0.62,0.62,0,0,1,275.2,341.94Z" transform="translate(-268.51 -268.78)" fill="#101212"/><path d="M271.9,341.94a0.62,0.62,0,0,1-.39-1.11l10.4-8.27,0.05,0L289,326.9a0.63,0.63,0,0,1,.78,1l-7.1,5.65-0.05,0-10.35,8.24A0.62,0.62,0,0,1,271.9,341.94Z" transform="translate(-268.51 -268.78)" fill="#101212"/><path d="M303.18,325.83a0.62,0.62,0,0,1-.62-0.62V312.65a1.21,1.21,0,0,0-1.21-1.21h-6a1.21,1.21,0,0,0-1.21,1.21V325.2a0.62,0.62,0,1,1-1.25,0V312.65a2.46,2.46,0,0,1,2.46-2.46h6a2.46,2.46,0,0,1,2.46,2.46V325.2A0.62,0.62,0,0,1,303.18,325.83Z" transform="translate(-268.51 -268.78)" fill="#101212"/><path d="M298.34,296.88a5.35,5.35,0,1,1,5.35-5.35A5.35,5.35,0,0,1,298.34,296.88Zm0-9.45a4.1,4.1,0,1,0,4.1,4.1A4.1,4.1,0,0,0,298.34,287.43Z" transform="translate(-268.51 -268.78)" fill="#101212"/><path d="M298.34,295.15a3.62,3.62,0,1,1,3.62-3.62A3.62,3.62,0,0,1,298.34,295.15Zm0-6a2.37,2.37,0,1,0,2.37,2.37A2.37,2.37,0,0,0,298.34,289.17Z" transform="translate(-268.51 -268.78)" fill="#101212"/><path d="M346.91,305.42H271.6a2.92,2.92,0,0,1-2.92-2.92,0.62,0.62,0,1,1,1.25,0,1.67,1.67,0,0,0,1.67,1.67h75.31a1.52,1.52,0,0,0,1.52-1.52V302.5a0.62,0.62,0,1,1,1.25,0v0.15A2.77,2.77,0,0,1,346.91,305.42Z" transform="translate(-268.51 -268.78)" fill="#101212"/><path d="M279.49,310.54a0.63,0.63,0,0,1,0-1.25,2,2,0,0,0,0-3.84,0.63,0.63,0,0,1,0-1.25A3.19,3.19,0,0,1,279.49,310.54Z" transform="translate(-268.51 -268.78)" fill="#101212"/><path d="M276.81,310.54a3.2,3.2,0,0,1,0-6.34,0.63,0.63,0,0,1,0,1.25,2,2,0,0,0,0,3.84A0.63,0.63,0,1,1,276.81,310.54Z" transform="translate(-268.51 -268.78)" fill="#101212"/><path d="M279.49,315.64a0.63,0.63,0,0,1,0-1.25,2,2,0,0,0,0-3.84,0.63,0.63,0,0,1,0-1.25A3.19,3.19,0,0,1,279.49,315.64Z" transform="translate(-268.51 -268.78)" fill="#101212"/><path d="M276.81,315.64a3.2,3.2,0,0,1,0-6.34,0.63,0.63,0,1,1,0,1.25,2,2,0,0,0,0,3.84A0.63,0.63,0,0,1,276.81,315.64Z" transform="translate(-268.51 -268.78)" fill="#101212"/><path d="M279.49,320.73a0.63,0.63,0,0,1,0-1.25,2,2,0,0,0,0-3.84,0.63,0.63,0,0,1,0-1.25A3.19,3.19,0,0,1,279.49,320.73Z" transform="translate(-268.51 -268.78)" fill="#101212"/><path d="M276.81,320.73a3.2,3.2,0,0,1,0-6.34,0.63,0.63,0,0,1,0,1.25,2,2,0,0,0,0,3.84A0.63,0.63,0,0,1,276.81,320.73Z" transform="translate(-268.51 -268.78)" fill="#101212"/><path d="M279.49,325.82a0.63,0.63,0,0,1,0-1.25,2,2,0,0,0,0-3.84,0.63,0.63,0,0,1,0-1.25A3.19,3.19,0,0,1,279.49,325.82Z" transform="translate(-268.51 -268.78)" fill="#101212"/><path d="M276.81,325.82a3.2,3.2,0,0,1,0-6.34,0.63,0.63,0,0,1,0,1.25,2,2,0,0,0,0,3.84A0.63,0.63,0,0,1,276.81,325.82Z" transform="translate(-268.51 -268.78)" fill="#101212"/><path d="M317.18,310.54a3.19,3.19,0,0,1,0-6.34,0.62,0.62,0,0,1,0,1.25,2,2,0,0,0,0,3.84A0.62,0.62,0,0,1,317.18,310.54Z" transform="translate(-268.51 -268.78)" fill="#101212"/><path d="M319.86,310.54a0.63,0.63,0,1,1,0-1.25,2,2,0,0,0,0-3.84,0.63,0.63,0,0,1,0-1.25A3.2,3.2,0,0,1,319.86,310.54Z" transform="translate(-268.51 -268.78)" fill="#101212"/><path d="M317.18,315.64a3.19,3.19,0,0,1,0-6.34,0.62,0.62,0,0,1,0,1.25,2,2,0,0,0,0,3.84A0.62,0.62,0,0,1,317.18,315.64Z" transform="translate(-268.51 -268.78)" fill="#101212"/><path d="M319.86,315.64a0.63,0.63,0,0,1,0-1.25,2,2,0,0,0,0-3.84,0.63,0.63,0,1,1,0-1.25A3.2,3.2,0,0,1,319.86,315.64Z" transform="translate(-268.51 -268.78)" fill="#101212"/><path d="M317.18,320.73a3.19,3.19,0,0,1,0-6.34,0.62,0.62,0,0,1,0,1.25,2,2,0,0,0,0,3.84A0.62,0.62,0,0,1,317.18,320.73Z" transform="translate(-268.51 -268.78)" fill="#101212"/><path d="M319.86,320.73a0.63,0.63,0,0,1,0-1.25,2,2,0,0,0,0-3.84,0.63,0.63,0,0,1,0-1.25A3.2,3.2,0,0,1,319.86,320.73Z" transform="translate(-268.51 -268.78)" fill="#101212"/><path d="M317.18,325.82a3.19,3.19,0,0,1,0-6.34,0.62,0.62,0,0,1,0,1.25,2,2,0,0,0,0,3.84A0.62,0.62,0,0,1,317.18,325.82Z" transform="translate(-268.51 -268.78)" fill="#101212"/><path d="M319.86,325.82a0.63,0.63,0,0,1,0-1.25,2,2,0,0,0,0-3.84,0.63,0.63,0,0,1,0-1.25A3.2,3.2,0,0,1,319.86,325.82Z" transform="translate(-268.51 -268.78)" fill="#101212"/><path d="M313.39,308h-30.1a0.63,0.63,0,0,1,0-1.25h30.1A0.62,0.62,0,0,1,313.39,308Z" transform="translate(-268.51 -268.78)" fill="#101212"/><path d="M333.31,299.36h-56.4a0.63,0.63,0,0,1,0-1.25h56.4A0.63,0.63,0,0,1,333.31,299.36Z" transform="translate(-268.51 -268.78)" fill="#101212"/><path d="M292.55,294.27H281.31a0.62,0.62,0,0,1,0-1.25h11.24A0.63,0.63,0,0,1,292.55,294.27Z" transform="translate(-268.51 -268.78)" fill="#101212"/><path d="M321.49,294.27H304.12a0.63,0.63,0,0,1,0-1.25h17.36A0.63,0.63,0,0,1,321.49,294.27Z" transform="translate(-268.51 -268.78)" fill="#101212"/><path d="M292.89,289.47h-7.42a0.62,0.62,0,0,1,0-1.25h7.42A0.62,0.62,0,0,1,292.89,289.47Z" transform="translate(-268.51 -268.78)" fill="#101212"/><path d="M311.9,289.47h-8.12a0.63,0.63,0,0,1,0-1.25h8.12A0.63,0.63,0,0,1,311.9,289.47Z" transform="translate(-268.51 -268.78)" fill="#101212"/><path d="M307,284.09H290.12a0.63,0.63,0,0,1,0-1.25H307A0.63,0.63,0,0,1,307,284.09Z" transform="translate(-268.51 -268.78)" fill="#101212"/><path d="M302.39,279h-7.86a0.63,0.63,0,0,1,0-1.25h7.86A0.63,0.63,0,0,1,302.39,279Z" transform="translate(-268.51 -268.78)" fill="#101212"/><path d="M291.93,313.09h-8.64a0.63,0.63,0,0,1,0-1.25h8.64A0.63,0.63,0,1,1,291.93,313.09Z" transform="translate(-268.51 -268.78)" fill="#101212"/><path d="M313.39,313.09h-8.64a0.63,0.63,0,1,1,0-1.25h8.64A0.63,0.63,0,0,1,313.39,313.09Z" transform="translate(-268.51 -268.78)" fill="#101212"/><path d="M291.93,318.18h-8.64a0.63,0.63,0,0,1,0-1.25h8.64A0.63,0.63,0,0,1,291.93,318.18Z" transform="translate(-268.51 -268.78)" fill="#101212"/><path d="M313.39,318.18h-8.64a0.63,0.63,0,0,1,0-1.25h8.64A0.63,0.63,0,0,1,313.39,318.18Z" transform="translate(-268.51 -268.78)" fill="#101212"/><path d="M291.93,323.28h-8.64a0.63,0.63,0,0,1,0-1.25h8.64A0.63,0.63,0,0,1,291.93,323.28Z" transform="translate(-268.51 -268.78)" fill="#101212"/><path d="M313.39,323.28h-8.64a0.63,0.63,0,0,1,0-1.25h8.64A0.62,0.62,0,0,1,313.39,323.28Z" transform="translate(-268.51 -268.78)" fill="#101212"/><path d="M345.14,325.82a0.62,0.62,0,0,1-.62-0.62V304.79a0.62,0.62,0,1,1,1.25,0V325.2A0.62,0.62,0,0,1,345.14,325.82Z" transform="translate(-268.51 -268.78)" fill="#101212"/><path d="M341.15,325.82a0.62,0.62,0,0,1-.62-0.62V304.79a0.63,0.63,0,0,1,1.25,0V325.2A0.62,0.62,0,0,1,341.15,325.82Z" transform="translate(-268.51 -268.78)" fill="#101212"/><path d="M279,291.91a0.62,0.62,0,0,1-.62-0.62V278.15a0.62,0.62,0,0,1,.63-0.62h5.1a0.62,0.62,0,0,1,.63.63v7.23a0.63,0.63,0,0,1-1.25,0v-6.6h-3.85v12.52A0.62,0.62,0,0,1,279,291.91Z" transform="translate(-268.51 -268.78)" fill="#101212"/><path d="M341.09,303.12H273.93a1.47,1.47,0,0,1-1.11-2.43L297,272.76a1.87,1.87,0,0,1,2.7,0l14.14,15.59,27.83,12A1.47,1.47,0,0,1,341.09,303.12Zm-42.73-29.73a0.55,0.55,0,0,0-.42.19l-24.17,27.93a0.22,0.22,0,0,0,.16.36h67.16a0.22,0.22,0,0,0,.09-0.41l-28-12a0.63,0.63,0,0,1-.22-0.15l-14.23-15.69A0.55,0.55,0,0,0,298.36,273.39Z" transform="translate(-268.51 -268.78)" fill="#101212"/><path d="M296.78,341.94a0.62,0.62,0,0,1-.62-0.62V327.39a0.63,0.63,0,0,1,1.25,0v13.92A0.62,0.62,0,0,1,296.78,341.94Z" transform="translate(-268.51 -268.78)" fill="#101212"/><path d="M294.58,341.94a0.62,0.62,0,0,1-.62-0.62V327.39a0.62,0.62,0,0,1,1.25,0v13.92A0.62,0.62,0,0,1,294.58,341.94Z" transform="translate(-268.51 -268.78)" fill="#101212"/><path d="M323.82,341.94a0.62,0.62,0,0,1-.62-0.62V327.39a0.62,0.62,0,0,1,1.25,0v13.92A0.62,0.62,0,0,1,323.82,341.94Z" transform="translate(-268.51 -268.78)" fill="#101212"/><path d="M321.63,341.94a0.62,0.62,0,0,1-.62-0.62V327.39a0.63,0.63,0,0,1,1.25,0v13.92A0.62,0.62,0,0,1,321.63,341.94Z" transform="translate(-268.51 -268.78)" fill="#101212"/><path d="M271.34,341.94a0.62,0.62,0,0,1-.62-0.62V327.39a0.63,0.63,0,0,1,1.25,0v13.92A0.62,0.62,0,0,1,271.34,341.94Z" transform="translate(-268.51 -268.78)" fill="#101212"/><path d="M349.05,328H269.14a0.63,0.63,0,0,1,0-1.25h79.92A0.63,0.63,0,0,1,349.05,328Z" transform="translate(-268.51 -268.78)" fill="#101212"/><path d="M349.05,341.94H269.14a0.63,0.63,0,0,1,0-1.25h79.92A0.63,0.63,0,0,1,349.05,341.94Z" transform="translate(-268.51 -268.78)" fill="#101212"/></svg>