<svg xmlns="http://www.w3.org/2000/svg" viewBox="0 0 81.25 81.25"><title>type6</title><path d="M179,210.38h-0.09a0.62,0.62,0,0,1-.53-0.71,20.36,20.36,0,0,0,.16-2.2l0-.63a18,18,0,0,1,.71-4.35,18,18,0,0,1-4.35.71l-0.63,0a20.37,20.37,0,0,0-2.2.16,0.62,0.62,0,0,1-.18-1.24,21.39,21.39,0,0,1,2.34-.17l0.62,0a14.06,14.06,0,0,0,5.19-1.08,0.63,0.63,0,0,1,.84.84,14.06,14.06,0,0,0-1.08,5.19l0,0.62a21.39,21.39,0,0,1-.17,2.34A0.62,0.62,0,0,1,179,210.38Z" transform="translate(-150.24 -150.24)" fill="#101212"/><path d="M189.35,199.36H189.3a0.62,0.62,0,0,1-.57-0.68c0-.51.06-1,0.08-1.61l0-.53a18,18,0,0,1,.71-4.36,18,18,0,0,1-4.35.71l-0.54,0c-0.56,0-1.1,0-1.61.08a0.62,0.62,0,1,1-.11-1.25c0.53,0,1.08-.07,1.67-0.09l0.53,0a14.05,14.05,0,0,0,5.19-1.08,0.63,0.63,0,0,1,.84.84,14.08,14.08,0,0,0-1.08,5.19l0,0.52c0,0.58,0,1.14-.09,1.67A0.62,0.62,0,0,1,189.35,199.36Z" transform="translate(-150.24 -150.24)" fill="#101212"/><path d="M189.28,211.18a7.35,7.35,0,0,1-4.62-2.13,0.62,0.62,0,0,1,.89-0.88s2.78,2.77,5.36,1.32c1.83-1,2.3-2.53,3-4.6l0.19-.59a17.33,17.33,0,0,1,1.83-4,20.67,20.67,0,0,1-4.52-.5l-0.62-.14c-2.18-.49-3.76-0.84-5.6.19-2.56,1.44-1.5,5.1-1.49,5.13a0.62,0.62,0,1,1-1.2.36c-0.48-1.6-.66-5,2.08-6.58,2.25-1.27,4.21-.83,6.48-0.32l0.61,0.14a16.44,16.44,0,0,0,5.45.4,0.63,0.63,0,0,1,.56,1,13.59,13.59,0,0,0-2.4,4.66l-0.19.58c-0.69,2.17-1.28,4-3.54,5.32A4.5,4.5,0,0,1,189.28,211.18Z" transform="translate(-150.24 -150.24)" fill="#101212"/><path d="M178.43,199.56a7.35,7.35,0,0,1-2-.28,0.62,0.62,0,0,1,.36-1.2c0.15,0,3.7,1.06,5.13-1.49,1-1.84.68-3.42,0.19-5.6l-0.14-.62a20.54,20.54,0,0,1-.5-4.52,17.33,17.33,0,0,1-4,1.84l-0.59.19c-2.08.66-3.58,1.13-4.6,3-1.44,2.57,1.29,5.33,1.32,5.36a0.62,0.62,0,0,1-.88.89c-0.14-.14-3.45-3.45-1.54-6.86,1.27-2.26,3.14-2.85,5.32-3.54l0.58-.19a13.59,13.59,0,0,0,4.66-2.4,0.63,0.63,0,0,1,1,.56,16.43,16.43,0,0,0,.4,5.45l0.14,0.61c0.51,2.27.95,4.23-.32,6.48A4.93,4.93,0,0,1,178.43,199.56Z" transform="translate(-150.24 -150.24)" fill="#101212"/><path d="M191.87,218.55c-3.14,0-5.06-3.23-5.15-3.38a0.63,0.63,0,0,1,1.08-.63s2,3.36,4.92,2.66c2.06-.51,2.91-1.81,4.09-3.62l0.34-.52a17.15,17.15,0,0,1,2.82-3.32,21.24,21.24,0,0,1-4.28-1.65l-0.47-.24c-0.52-.27-1-0.52-1.5-0.74a0.63,0.63,0,1,1,.52-1.14c0.5,0.23,1,.49,1.55.76l0.46,0.24a16.89,16.89,0,0,0,5.23,1.8,0.63,0.63,0,0,1,.26,1.15,13.49,13.49,0,0,0-3.55,3.82l-0.33.51c-1.23,1.89-2.3,3.53-4.84,4.15A4.79,4.79,0,0,1,191.87,218.55Z" transform="translate(-150.24 -150.24)" fill="#101212"/><path d="M166.88,195.1a0.62,0.62,0,0,1-.31-0.08c-0.17-.1-4.17-2.48-3.24-6.3,0.63-2.54,2.26-3.61,4.15-4.84l0.51-.33a13.48,13.48,0,0,0,3.82-3.55,0.63,0.63,0,0,1,1.15.26,17,17,0,0,0,1.8,5.23l0.24,0.46c0.27,0.54.53,1,.76,1.55a0.63,0.63,0,1,1-1.14.52c-0.22-.48-0.47-1-0.74-1.5l-0.24-.47a21.22,21.22,0,0,1-1.65-4.28,17.15,17.15,0,0,1-3.32,2.82l-0.52.34c-1.81,1.18-3.12,2-3.62,4.09-0.71,2.91,2.62,4.9,2.66,4.92A0.63,0.63,0,0,1,166.88,195.1Z" transform="translate(-150.24 -150.24)" fill="#101212"/><path d="M195.49,194a7.92,7.92,0,0,1-3.68-1.05,0.62,0.62,0,0,1,.65-1.07c0.14,0.08,3.36,2,5.43-.09,1.48-1.48,1.54-3.07,1.63-5.28l0-.63a17.9,17.9,0,0,1,.71-4.35,17.9,17.9,0,0,1-4.35.71l-0.63,0c-2.21.09-3.8,0.15-5.28,1.63-2.07,2.07-.17,5.29-0.09,5.43a0.62,0.62,0,0,1-1.07.65c-0.1-.17-2.48-4.2.28-7,1.83-1.83,3.81-1.9,6.11-2l0.62,0a14,14,0,0,0,5.19-1.08,0.63,0.63,0,0,1,.84.84,14,14,0,0,0-1.08,5.19l0,0.62c-0.09,2.3-.17,4.29-2,6.11A4.48,4.48,0,0,1,195.49,194Z" transform="translate(-150.24 -150.24)" fill="#101212"/><path d="M205.14,195.53l-0.15,0a0.63,0.63,0,0,1-.46-0.76c0.11-.43.2-0.88,0.31-1.35l0.11-.49a17.45,17.45,0,0,1,1.48-4.16,20.45,20.45,0,0,1-4.53-.11l-0.81-.11L200,188.4a0.63,0.63,0,0,1,.13-1.24l1.12,0.14,0.8,0.1a16.38,16.38,0,0,0,5.44-.08,0.63,0.63,0,0,1,.65,1,13.69,13.69,0,0,0-2,4.87l-0.11.48c-0.11.48-.21,0.94-0.31,1.38A0.62,0.62,0,0,1,205.14,195.53Z" transform="translate(-150.24 -150.24)" fill="#101212"/><path d="M193.95,182.28a0.63,0.63,0,0,1-.62-0.56c0-.35-0.09-0.71-0.14-1.08s-0.07-.54-0.11-0.82a20.35,20.35,0,0,1-.11-4.52,17.42,17.42,0,0,1-4.16,1.48l-0.49.11-1.35.31a0.62,0.62,0,0,1-.3-1.21l1.38-.31,0.49-.11a13.67,13.67,0,0,0,4.87-2,0.63,0.63,0,0,1,1,.65,16.31,16.31,0,0,0-.08,5.44c0,0.28.07,0.54,0.1,0.8s0.1,0.76.14,1.12a0.63,0.63,0,0,1-.56.69h-0.07Z" transform="translate(-150.24 -150.24)" fill="#101212"/><path d="M204.13,207.18a6,6,0,0,1-3.43-1.25,8.57,8.57,0,0,1-1.41-1.28,0.62,0.62,0,0,1,1-.8,7.42,7.42,0,0,0,1.19,1.07,4,4,0,0,0,4.06.71,5.53,5.53,0,0,0,2.87-3.16c0.19-.4.36-0.82,0.54-1.26l0.19-.45a17.29,17.29,0,0,1,2.18-3.8,20.76,20.76,0,0,1-4.48-.89l-0.69-.21c-0.39-.12-0.77-0.24-1.14-0.35a5.89,5.89,0,0,0-4.39.07,3.69,3.69,0,0,0-2,3.41,0.62,0.62,0,1,1-1.25-.07,4.86,4.86,0,0,1,2.77-4.48,7.08,7.08,0,0,1,5.24-.13l1.18,0.36,0.68,0.21a16.6,16.6,0,0,0,5.42.87,0.64,0.64,0,0,1,.62.38,0.63,0.63,0,0,1-.15.71,13.57,13.57,0,0,0-2.81,4.41l-0.18.44c-0.19.46-.37,0.9-0.56,1.31a6.71,6.71,0,0,1-3.5,3.78A4.54,4.54,0,0,1,204.13,207.18Z" transform="translate(-150.24 -150.24)" fill="#101212"/><path d="M182.78,184.43a0.62,0.62,0,0,1,0-1.25,3.69,3.69,0,0,0,3.4-2,5.89,5.89,0,0,0,.07-4.39c-0.1-.38-0.22-0.76-0.35-1.15l-0.22-.69a20.78,20.78,0,0,1-.89-4.48,17.27,17.27,0,0,1-3.8,2.18l-0.45.19c-0.44.18-.86,0.36-1.26,0.54a5.53,5.53,0,0,0-3.16,2.87,4,4,0,0,0,.71,4.06,7.43,7.43,0,0,0,1.07,1.19,0.62,0.62,0,0,1-.8,1,8.58,8.58,0,0,1-1.28-1.41,5.22,5.22,0,0,1-.84-5.31,6.71,6.71,0,0,1,3.78-3.5c0.41-.19.85-0.37,1.3-0.56l0.45-.19a13.56,13.56,0,0,0,4.41-2.81,0.63,0.63,0,0,1,1.09.46,16.63,16.63,0,0,0,.87,5.42l0.21,0.68c0.13,0.41.25,0.8,0.36,1.19a7.07,7.07,0,0,1-.14,5.24,4.86,4.86,0,0,1-4.48,2.77h0Z" transform="translate(-150.24 -150.24)" fill="#101212"/><path d="M206.59,214.63c-3.14,0-5.06-3.22-5.15-3.37a0.63,0.63,0,0,1,1.08-.63s2,3.36,4.92,2.65c2.06-.51,2.92-1.82,4.1-3.63l0.33-.5a17.1,17.1,0,0,1,2.81-3.32,21.21,21.21,0,0,1-4.28-1.64l-0.71-.36-1-.52a0.62,0.62,0,0,1,.54-1.13l1.06,0.53,0.7,0.35a17.06,17.06,0,0,0,5.23,1.79,0.63,0.63,0,0,1,.26,1.15,13.42,13.42,0,0,0-3.55,3.83l-0.33.5c-1.24,1.9-2.31,3.54-4.85,4.16A4.8,4.8,0,0,1,206.59,214.63Z" transform="translate(-150.24 -150.24)" fill="#101212"/><path d="M170.79,180.37a0.62,0.62,0,0,1-.31-0.08c-0.17-.1-4.17-2.48-3.23-6.3,0.62-2.54,2.26-3.61,4.16-4.85l0.5-.33a13.42,13.42,0,0,0,3.83-3.55,0.63,0.63,0,0,1,1.15.26,17,17,0,0,0,1.79,5.23l0.35,0.7c0.19,0.36.37,0.71,0.53,1.06a0.62,0.62,0,1,1-1.13.54c-0.16-.34-0.34-0.68-0.52-1l-0.36-.71a21.21,21.21,0,0,1-1.64-4.28,17.12,17.12,0,0,1-3.32,2.81l-0.5.33c-1.81,1.19-3.13,2-3.63,4.1-0.71,2.9,2.62,4.9,2.65,4.92A0.63,0.63,0,0,1,170.79,180.37Z" transform="translate(-150.24 -150.24)" fill="#101212"/><path d="M209.65,180.51l-0.17,0a0.62,0.62,0,0,1-.43-0.77,13.25,13.25,0,0,0,.35-3.09l0-.67a18,18,0,0,1,.71-4.35,18,18,0,0,1-4.35.71l-0.67,0a13.26,13.26,0,0,0-3.09.35,0.62,0.62,0,0,1-.35-1.2,14.31,14.31,0,0,1,3.38-.4l0.66,0a14.08,14.08,0,0,0,5.19-1.08,0.63,0.63,0,0,1,.84.84,14.08,14.08,0,0,0-1.08,5.19l0,0.66a14.32,14.32,0,0,1-.4,3.38A0.62,0.62,0,0,1,209.65,180.51Z" transform="translate(-150.24 -150.24)" fill="#101212"/><path d="M212,192.36a7.55,7.55,0,0,1-4.37-1.74,0.63,0.63,0,0,1,.81-0.95s3,2.52,5.42.86c1.73-1.19,2.06-2.73,2.53-4.86l0.14-.61a17.48,17.48,0,0,1,1.47-4.16,20.4,20.4,0,0,1-4.53-.11l-0.63-.08c-2.21-.3-3.81-0.51-5.54.68-2.41,1.66-1.09,5.12-1,5.27a0.63,0.63,0,0,1-1.16.46c-0.62-1.56-1.1-5,1.49-6.76,2.13-1.46,4.11-1.2,6.41-.88l0.62,0.08a16.18,16.18,0,0,0,5.43-.08,0.63,0.63,0,0,1,.65,1,13.69,13.69,0,0,0-2,4.88l-0.13.6c-0.49,2.23-.92,4.16-3,5.63A4.46,4.46,0,0,1,212,192.36Z" transform="translate(-150.24 -150.24)" fill="#101212"/><path d="M197.28,177.06a7.54,7.54,0,0,1-2.65-.49,0.63,0.63,0,0,1,.46-1.16c0.15,0.06,3.62,1.37,5.27-1,1.19-1.73,1-3.33.68-5.54l-0.08-.63a20.29,20.29,0,0,1-.11-4.53,17.47,17.47,0,0,1-4.16,1.47l-0.61.14c-2.14.47-3.68,0.81-4.86,2.53-1.66,2.42.83,5.39,0.86,5.42a0.62,0.62,0,0,1-.95.81c-0.13-.15-3.15-3.73-0.94-6.94,1.47-2.13,3.39-2.56,5.62-3l0.6-.13a13.69,13.69,0,0,0,4.88-2,0.63,0.63,0,0,1,1,.65,16.23,16.23,0,0,0-.08,5.43l0.08,0.62c0.31,2.3.58,4.28-.88,6.41A4.76,4.76,0,0,1,197.28,177.06Z" transform="translate(-150.24 -150.24)" fill="#101212"/><path d="M217.1,201.61c-2.69,0-4.73-2.4-4.83-2.53a0.63,0.63,0,0,1,1-.8s2.55,3,5.25,1.78c1.93-.86,2.53-2.31,3.37-4.31l0.24-.56a17.1,17.1,0,0,1,2.18-3.8,20.7,20.7,0,0,1-4.47-.9l-0.66-.2a13.9,13.9,0,0,0-3.07-.73,0.63,0.63,0,0,1,.09-1.25,15,15,0,0,1,3.36.79l0.65,0.2a16.51,16.51,0,0,0,5.42.88,0.63,0.63,0,0,1,.62.38,0.63,0.63,0,0,1-.16.71,13.43,13.43,0,0,0-2.8,4.41l-0.23.56c-0.88,2.1-1.63,3.91-4,5A4.57,4.57,0,0,1,217.1,201.61Z" transform="translate(-150.24 -150.24)" fill="#101212"/><path d="M183,169.61a0.62,0.62,0,0,1-.4-0.14c-0.15-.13-3.71-3.15-2.12-6.72,1.06-2.38,2.87-3.13,5-4l0.56-.23a13.43,13.43,0,0,0,4.41-2.8,0.63,0.63,0,0,1,1.09.46,16.56,16.56,0,0,0,.88,5.41l0.2,0.65a15,15,0,0,1,.79,3.36,0.63,0.63,0,1,1-1.25.09,13.92,13.92,0,0,0-.73-3.07l-0.21-.66a20.68,20.68,0,0,1-.9-4.47,17.09,17.09,0,0,1-3.8,2.18l-0.56.24c-2,.84-3.45,1.44-4.31,3.37-1.21,2.7,1.75,5.22,1.78,5.25A0.63,0.63,0,0,1,183,169.61Z" transform="translate(-150.24 -150.24)" fill="#101212"/><path d="M215.32,174.13a7.92,7.92,0,0,1-3.68-1.05,0.63,0.63,0,0,1,.65-1.07c0.14,0.08,3.36,2,5.43-.09,1.48-1.48,1.54-3.07,1.63-5.28l0-.63a17.86,17.86,0,0,1,.71-4.35,17.86,17.86,0,0,1-4.35.71l-0.63,0c-2.21.09-3.8,0.15-5.28,1.63-2.07,2.07-.17,5.29-0.09,5.43a0.63,0.63,0,0,1-1.07.65c-0.1-.17-2.48-4.2.28-7,1.83-1.83,3.81-1.9,6.11-2l0.62,0a14,14,0,0,0,5.19-1.08,0.63,0.63,0,0,1,.84.84,14,14,0,0,0-1.08,5.19l0,0.62c-0.09,2.3-.17,4.29-2,6.11A4.48,4.48,0,0,1,215.32,174.13Z" transform="translate(-150.24 -150.24)" fill="#101212"/><path d="M223.63,184.38a7.55,7.55,0,0,1-4.37-1.74,0.63,0.63,0,0,1,.81-0.95s3,2.52,5.42.86c1.73-1.19,2.06-2.73,2.53-4.86l0.14-.61a17.47,17.47,0,0,1,1.47-4.16,20.37,20.37,0,0,1-4.53-.11l-0.63-.08c-2.21-.3-3.81-0.51-5.54.68-2.41,1.66-1.09,5.12-1,5.27a0.63,0.63,0,0,1-1.16.46c-0.62-1.56-1.1-5,1.49-6.76,2.13-1.46,4.11-1.19,6.41-.88l0.62,0.08a16.2,16.2,0,0,0,5.43-.08,0.63,0.63,0,0,1,.65,1,13.69,13.69,0,0,0-2,4.88l-0.13.6c-0.49,2.23-.92,4.16-3,5.63A4.46,4.46,0,0,1,223.63,184.38Z" transform="translate(-150.24 -150.24)" fill="#101212"/><path d="M205.26,165.46a7.54,7.54,0,0,1-2.65-.49,0.63,0.63,0,0,1,.46-1.16c0.15,0.06,3.62,1.37,5.27-1,1.19-1.73,1-3.33.68-5.54l-0.08-.63a20.29,20.29,0,0,1-.11-4.53,17.47,17.47,0,0,1-4.16,1.47l-0.61.14c-2.14.47-3.68,0.81-4.86,2.53-1.66,2.42.83,5.39,0.86,5.42a0.62,0.62,0,0,1-.95.81c-0.13-.15-3.15-3.73-0.94-6.94,1.47-2.13,3.39-2.56,5.62-3l0.6-.13a13.69,13.69,0,0,0,4.88-2,0.63,0.63,0,0,1,1,.65,16.23,16.23,0,0,0-.08,5.43l0.08,0.62c0.31,2.3.58,4.28-.88,6.41A4.76,4.76,0,0,1,205.26,165.46Z" transform="translate(-150.24 -150.24)" fill="#101212"/><path d="M177.54,222.06c-3.14,0-5.06-3.23-5.15-3.38a0.62,0.62,0,0,1,1.08-.63s2,3.36,4.92,2.65c2.06-.51,2.91-1.81,4.09-3.62l0.34-.52a17.09,17.09,0,0,1,2.81-3.32,21.26,21.26,0,0,1-4.28-1.65l-0.57-.29c-2-1-3.47-1.78-5.54-1.27-2.88.71-2.79,4.46-2.79,4.49a0.62,0.62,0,1,1-1.25,0c-0.05-1.66.66-5,3.74-5.75,2.52-.62,4.33.31,6.41,1.38l0.56,0.29a17,17,0,0,0,5.23,1.79,0.63,0.63,0,0,1,.26,1.15,13.44,13.44,0,0,0-3.55,3.82l-0.33.51c-1.23,1.89-2.3,3.53-4.84,4.15A4.8,4.8,0,0,1,177.54,222.06Z" transform="translate(-150.24 -150.24)" fill="#101212"/><path d="M167.34,210.53h-0.18a0.62,0.62,0,0,1,0-1.25c0.15,0,3.79.07,4.49-2.79,0.51-2.07-.24-3.53-1.27-5.54l-0.29-.57a21.27,21.27,0,0,1-1.65-4.28,17.09,17.09,0,0,1-3.32,2.81l-0.52.34c-1.81,1.18-3.12,2-3.62,4.09-0.71,2.9,2.62,4.9,2.65,4.92a0.62,0.62,0,0,1-.63,1.08c-0.17-.1-4.17-2.48-3.24-6.29,0.62-2.54,2.26-3.61,4.15-4.84l0.51-.33a13.44,13.44,0,0,0,3.82-3.55,0.63,0.63,0,0,1,1.15.26,17,17,0,0,0,1.79,5.23l0.29,0.56c1.07,2.09,2,3.89,1.38,6.41C172.18,209.76,169,210.53,167.34,210.53Z" transform="translate(-150.24 -150.24)" fill="#101212"/><path d="M157.36,229.07a0.63,0.63,0,0,1-.44-1.07l7.89-7.89a0.62,0.62,0,0,1,.88.88l-7.89,7.89A0.62,0.62,0,0,1,157.36,229.07Z" transform="translate(-150.24 -150.24)" fill="#101212"/><path d="M153.29,225a0.63,0.63,0,0,1-.44-1.07l7.89-7.89a0.62,0.62,0,1,1,.88.88l-7.89,7.89A0.62,0.62,0,0,1,153.29,225Z" transform="translate(-150.24 -150.24)" fill="#101212"/><path d="M154.94,231.49a0.63,0.63,0,0,1-.44-1.07l1.37-1.37a0.62,0.62,0,0,1,.88.88l-1.37,1.37A0.62,0.62,0,0,1,154.94,231.49Z" transform="translate(-150.24 -150.24)" fill="#101212"/><path d="M150.86,227.42a0.63,0.63,0,0,1-.44-1.07l1.37-1.37a0.62,0.62,0,1,1,.88.88l-1.37,1.37A0.62,0.62,0,0,1,150.86,227.42Z" transform="translate(-150.24 -150.24)" fill="#101212"/><path d="M166.3,220.13a0.63,0.63,0,0,1-.44-1.07l3.49-3.49a0.62,0.62,0,0,1,.88.88l-3.49,3.49A0.62,0.62,0,0,1,166.3,220.13Z" transform="translate(-150.24 -150.24)" fill="#101212"/><path d="M162.22,216.06a0.63,0.63,0,0,1-.44-1.07l3.49-3.49a0.62,0.62,0,0,1,.88.88l-3.49,3.49A0.62,0.62,0,0,1,162.22,216.06Z" transform="translate(-150.24 -150.24)" fill="#101212"/><path d="M156,227.68a0.63,0.63,0,0,1-.44-1.07l7.89-7.89a0.62,0.62,0,1,1,.88.88l-7.89,7.89A0.62,0.62,0,0,1,156,227.68Z" transform="translate(-150.24 -150.24)" fill="#101212"/><path d="M154.67,226.38a0.63,0.63,0,0,1-.44-1.07l7.89-7.89a0.62,0.62,0,0,1,.88.88l-7.89,7.89A0.62,0.62,0,0,1,154.67,226.38Z" transform="translate(-150.24 -150.24)" fill="#101212"/><path d="M153.23,230.42a0.63,0.63,0,0,1-.44-1.07l1.69-1.69a0.62,0.62,0,1,1,.88.88l-1.69,1.69A0.62,0.62,0,0,1,153.23,230.42Z" transform="translate(-150.24 -150.24)" fill="#101212"/><path d="M151.93,229.12a0.63,0.63,0,0,1-.44-1.07l1.69-1.69a0.62,0.62,0,1,1,.88.88l-1.69,1.69A0.62,0.62,0,0,1,151.93,229.12Z" transform="translate(-150.24 -150.24)" fill="#101212"/><path d="M164.91,218.74a0.63,0.63,0,0,1-.44-1.07l4.17-4.17a0.62,0.62,0,0,1,.88.88l-4.17,4.17A0.62,0.62,0,0,1,164.91,218.74Z" transform="translate(-150.24 -150.24)" fill="#101212"/><path d="M163.61,217.44a0.63,0.63,0,0,1-.44-1.07l4.17-4.17a0.62,0.62,0,0,1,.88.88l-4.17,4.17A0.62,0.62,0,0,1,163.61,217.44Z" transform="translate(-150.24 -150.24)" fill="#101212"/><path d="M166.12,221.78a1.27,1.27,0,0,1-.9-0.37l-4.89-4.89a1.27,1.27,0,0,1,0-1.8l0.13-.13a1.31,1.31,0,0,1,1.8,0l4.89,4.89a1.28,1.28,0,0,1,0,1.8l-0.13.13A1.26,1.26,0,0,1,166.12,221.78Zm-4.74-6.32-0.17.13,4.91,4.94h0l0.13-.13Z" transform="translate(-150.24 -150.24)" fill="#101212"/><path d="M157.18,230.72a1.27,1.27,0,0,1-.9-0.37l-4.89-4.89a1.28,1.28,0,0,1,0-1.8l0.13-.13a1.31,1.31,0,0,1,1.8,0l4.89,4.89a1.27,1.27,0,0,1,0,1.8l-0.13.13A1.27,1.27,0,0,1,157.18,230.72Zm-4.74-6.32-0.17.13,4.91,4.94h0l0.13-.13Z" transform="translate(-150.24 -150.24)" fill="#101212"/></svg>