<svg xmlns="http://www.w3.org/2000/svg" viewBox="0 0 81.25 77.87"><title>type4</title><path d="M451.6,99l-0.15,0a0.63,0.63,0,0,1-.46-0.76l4.17-16.73a0.63,0.63,0,1,1,1.21.3l-4.17,16.73A0.62,0.62,0,0,1,451.6,99Z" transform="translate(-386.78 -33.67)" fill="#101212"/><path d="M407.13,96.76a0.62,0.62,0,0,1-.62-0.62h0A0.63,0.63,0,1,1,407.13,96.76Z" transform="translate(-386.78 -33.67)" fill="#101212"/><path d="M456.75,73.6l-0.16,0a0.63,0.63,0,0,1-.45-0.76l2-7.75a0.62,0.62,0,0,1,1.21.32l-2,7.75A0.62,0.62,0,0,1,456.75,73.6Z" transform="translate(-386.78 -33.67)" fill="#101212"/><path d="M449,111.51H410.34a7.07,7.07,0,0,1-4.31-1.46,0.63,0.63,0,1,1,.76-1,5.82,5.82,0,0,0,3.55,1.2H449a5.88,5.88,0,0,0,5.73-4.65l12-57.18a2.12,2.12,0,0,0-.43-1.78,2.18,2.18,0,0,0-3-.3,2.13,2.13,0,0,0-.73,1.24l-2.68,13.85a0.63,0.63,0,1,1-1.23-.24l2.68-13.85A3.38,3.38,0,1,1,468,48.69l-12.05,57.19A7.14,7.14,0,0,1,449,111.51Z" transform="translate(-386.78 -33.67)" fill="#101212"/><path d="M399.88,86.84a0.62,0.62,0,0,1-.62-0.62h0A0.63,0.63,0,1,1,399.88,86.84Z" transform="translate(-386.78 -33.67)" fill="#101212"/><path d="M399.18,83.52a0.63,0.63,0,0,1-.61-0.5l-7.23-34.33a3.33,3.33,0,0,1-.07-0.7,3.38,3.38,0,0,1,6.69-.63l2.67,13.85a0.63,0.63,0,0,1-1.23.24l-2.67-13.85a2.13,2.13,0,0,0-4.22.4,2.08,2.08,0,0,0,0,.44l7.23,34.33a0.63,0.63,0,0,1-.48.74h-0.13Z" transform="translate(-386.78 -33.67)" fill="#101212"/><path d="M402.54,73.6a0.62,0.62,0,0,1-.6-0.47l-2-7.75a0.62,0.62,0,1,1,1.21-.32l2,7.75a0.63,0.63,0,0,1-.45.76Z" transform="translate(-386.78 -33.67)" fill="#101212"/><path d="M420.37,64.51H395.18a0.62,0.62,0,0,1,0-1.25h25.19A0.63,0.63,0,0,1,420.37,64.51Z" transform="translate(-386.78 -33.67)" fill="#101212"/><path d="M464.12,64.51H431a0.63,0.63,0,0,1,0-1.25h33.11A0.62,0.62,0,0,1,464.12,64.51Z" transform="translate(-386.78 -33.67)" fill="#101212"/><path d="M411.75,74.95H397.38a0.62,0.62,0,0,1,0-1.25h14.38A0.62,0.62,0,0,1,411.75,74.95Z" transform="translate(-386.78 -33.67)" fill="#101212"/><path d="M461.92,74.95H422.39a0.62,0.62,0,0,1,0-1.25h39.52A0.63,0.63,0,0,1,461.92,74.95Z" transform="translate(-386.78 -33.67)" fill="#101212"/><path d="M407.61,80h-9.18a0.63,0.63,0,0,1,0-1.25h9.18A0.62,0.62,0,0,1,407.61,80Z" transform="translate(-386.78 -33.67)" fill="#101212"/><path d="M460.86,80H418.25a0.63,0.63,0,0,1,0-1.25h42.61A0.62,0.62,0,0,1,460.86,80Z" transform="translate(-386.78 -33.67)" fill="#101212"/><path d="M456.35,101.36H415.82a0.63,0.63,0,1,1,0-1.25h40.53A0.62,0.62,0,0,1,456.35,101.36Z" transform="translate(-386.78 -33.67)" fill="#101212"/><path d="M455.3,106.37H412.44a0.62,0.62,0,0,1,0-1.25H455.3A0.63,0.63,0,0,1,455.3,106.37Z" transform="translate(-386.78 -33.67)" fill="#101212"/><path d="M444.51,99h-0.1a0.62,0.62,0,0,1-.52-0.72l2.73-16.73a0.62,0.62,0,0,1,1.23.2l-2.73,16.73A0.62,0.62,0,0,1,444.51,99Z" transform="translate(-386.78 -33.67)" fill="#101212"/><path d="M413.29,89.83a0.62,0.62,0,0,1-.62-0.62h0A0.63,0.63,0,1,1,413.29,89.83Z" transform="translate(-386.78 -33.67)" fill="#101212"/><path d="M447.88,73.6h-0.11a0.62,0.62,0,0,1-.51-0.72l1.33-7.75a0.62,0.62,0,0,1,1.23.21l-1.33,7.75A0.62,0.62,0,0,1,447.88,73.6Z" transform="translate(-386.78 -33.67)" fill="#101212"/><path d="M411.41,73.6a0.62,0.62,0,0,1-.61-0.52l-1.33-7.75a0.62,0.62,0,0,1,1.23-.21L412,72.87a0.62,0.62,0,0,1-.51.72h-0.11Z" transform="translate(-386.78 -33.67)" fill="#101212"/><path d="M438.14,99h0a0.62,0.62,0,0,1-.59-0.66l0.91-16.73a0.62,0.62,0,0,1,1.25.07l-0.91,16.73A0.62,0.62,0,0,1,438.14,99Z" transform="translate(-386.78 -33.67)" fill="#101212"/><path d="M421.15,99a0.62,0.62,0,0,1-.62-0.59l-0.91-16.73A0.62,0.62,0,0,1,420.2,81a0.62,0.62,0,0,1,.66.59l0.91,16.73a0.62,0.62,0,0,1-.59.66h0Z" transform="translate(-386.78 -33.67)" fill="#101212"/><path d="M439.27,73.6h0a0.62,0.62,0,0,1-.59-0.66l0.45-7.75a0.63,0.63,0,0,1,.66-0.59,0.62,0.62,0,0,1,.59.66L439.89,73A0.63,0.63,0,0,1,439.27,73.6Z" transform="translate(-386.78 -33.67)" fill="#101212"/><path d="M429.64,99a0.62,0.62,0,0,1-.62-0.62V81.67a0.63,0.63,0,0,1,1.25,0V98.41A0.62,0.62,0,0,1,429.64,99Z" transform="translate(-386.78 -33.67)" fill="#101212"/><path d="M429.64,73.54a0.62,0.62,0,0,1-.62-0.62V65.29a0.63,0.63,0,0,1,1.25,0v7.63A0.62,0.62,0,0,1,429.64,73.54Z" transform="translate(-386.78 -33.67)" fill="#101212"/><path d="M395.76,104.87a4.9,4.9,0,0,1-3.23-1.08c-1.52-1.27-2.08-3.46-1.58-6.16a17.66,17.66,0,0,1,3.93-7.82c3-3.64,6.9-5.9,10.1-5.9A4.9,4.9,0,0,1,408.21,85c1.52,1.27,2.08,3.46,1.58,6.16A17.66,17.66,0,0,1,405.86,99C402.83,102.61,399,104.87,395.76,104.87ZM405,85.16c-2.8,0-6.39,2.14-9.14,5.45a16.41,16.41,0,0,0-3.66,7.25c-0.41,2.24,0,4,1.16,5a3.68,3.68,0,0,0,2.43.79c2.8,0,6.39-2.14,9.14-5.45a16.41,16.41,0,0,0,3.66-7.25c0.41-2.24,0-4-1.16-5A3.68,3.68,0,0,0,405,85.16Z" transform="translate(-386.78 -33.67)" fill="#101212"/><path d="M394.24,109.38a7.68,7.68,0,0,1-5-1.63c-0.13-.11-0.26-0.22-0.37-0.34a6.73,6.73,0,0,1-1.72-3c-1.26-4.48.91-10.94,5.51-16.47,3.95-4.73,9.08-7.93,13.4-8.36,0.3,0,.6,0,0.88-0.05a0.66,0.66,0,0,1,.64.61,0.63,0.63,0,0,1-.61.64c-0.26,0-.52,0-0.79,0-4,.4-8.81,3.43-12.56,7.92-4.28,5.14-6.4,11.3-5.27,15.33a5.5,5.5,0,0,0,1.4,2.45l0.29,0.26c3.53,2.94,11.88.94,17.8-6.13,4.18-5,5.4-11.21,4.76-15.11a6,6,0,0,0-1.21-2.88,3.86,3.86,0,0,0-.49-0.52,0.63,0.63,0,0,1,.83-0.93,5.11,5.11,0,0,1,.64.68,7.24,7.24,0,0,1,1.47,3.45c0.69,4.18-.6,10.79-5,16.11C404.61,106.44,398.85,109.38,394.24,109.38Z" transform="translate(-386.78 -33.67)" fill="#101212"/><path d="M399.27,111.54a14.37,14.37,0,0,1-9.14-2.84,12.69,12.69,0,0,1-1.51-1.53,0.63,0.63,0,0,1,1-.79,11.51,11.51,0,0,0,1.34,1.36c5,4.15,16.37,3.31,22.08-3.54,4.71-5.64,4.76-16,1.66-20.83a0.62,0.62,0,1,1,1.05-.67C419.12,88,419.09,98.88,414,105A19.31,19.31,0,0,1,399.27,111.54Z" transform="translate(-386.78 -33.67)" fill="#101212"/><path d="M415.2,83.66a0.63,0.63,0,0,1-.48-1l36-43.65a4.75,4.75,0,0,0-5.12-4L445,35,407.32,80.67a0.62,0.62,0,1,1-1-.8l0.09-.11L444.24,34a0.63,0.63,0,0,1,.43-0.22l0.85-.08a6,6,0,0,1,6.5,5.43,0.62,0.62,0,0,1-.14.45L415.68,83.43A0.62,0.62,0,0,1,415.2,83.66Z" transform="translate(-386.78 -33.67)" fill="#101212"/><path d="M411.29,82.3a0.63,0.63,0,0,1-.48-1L449,35.15a0.62,0.62,0,0,1,1,.8l-38.2,46.13A0.62,0.62,0,0,1,411.29,82.3Z" transform="translate(-386.78 -33.67)" fill="#101212"/></svg>