<svg xmlns="http://www.w3.org/2000/svg" viewBox="0 0 85.24 62.77"><title>type8</title><path d="M427.29,215.83c-7.75,0-14.29-6.6-15.92-16a24.33,24.33,0,0,1-.37-3.43,0.62,0.62,0,1,1,1.25,0,23.08,23.08,0,0,0,.35,3.26c1.53,8.84,7.57,15,14.69,15s13.42-6.31,15-15c0.14-.77.23-1.47,0.29-2.13a0.61,0.61,0,0,1,.68-0.57,0.62,0.62,0,0,1,.57.68c-0.06.7-.16,1.44-0.3,2.25C441.81,209.24,435.14,215.83,427.29,215.83Z" transform="translate(-384.79 -159.48)" fill="#101212"/><path d="M443.19,198.13a0.63,0.63,0,0,1-.56-0.89,20.58,20.58,0,0,0,1.88-5.9,21.8,21.8,0,0,0,.25-3.29c0-8.22-4.52-15.47-11-17.63a0.63,0.63,0,0,1,.4-1.19c7,2.33,11.86,10.07,11.86,18.82a23,23,0,0,1-.27,3.48,21.82,21.82,0,0,1-2,6.26A0.63,0.63,0,0,1,443.19,198.13Z" transform="translate(-384.79 -159.48)" fill="#101212"/><path d="M443.19,197.5l-0.62,0v-0.2a16.31,16.31,0,0,0-.24-2.62c-1.52-7.67-7.65-13.23-14.59-13.23a14.64,14.64,0,0,0-8.08,2.39,13.68,13.68,0,0,0-2.34,2,0.63,0.63,0,0,1-.9-0.86,14.92,14.92,0,0,1,2.56-2.14,15.88,15.88,0,0,1,8.77-2.6c7.53,0,14.18,6,15.82,14.23a17.55,17.55,0,0,1,.27,2.82v0.23Z" transform="translate(-384.79 -159.48)" fill="#101212"/><path d="M445.12,192a0.63,0.63,0,0,1-.54-0.94,21.81,21.81,0,0,0,2.77-10.81c0-8.51-4.62-16-11.23-18.16a0.62,0.62,0,0,1,.39-1.19c7.12,2.35,12.09,10.31,12.09,19.35a23.05,23.05,0,0,1-2.93,11.43A0.62,0.62,0,0,1,445.12,192Z" transform="translate(-384.79 -159.48)" fill="#101212"/><path d="M411.62,197a0.62,0.62,0,0,1-.58-0.4,17,17,0,0,1-1.12-6.09,16,16,0,0,1,.49-3.93c2.06-8.2,10.49-14.39,20.5-15.06a0.62,0.62,0,0,1,.67.64l-0.2,6.06a1.63,1.63,0,0,1-1.4,1.55,23.67,23.67,0,0,0-10.3,4.07,20.54,20.54,0,0,0-2.38,2l-0.09.09a17.14,17.14,0,0,0-3.89,5.78,15.74,15.74,0,0,0-1.07,4.72,0.62,0.62,0,0,1-.53.58h-0.1Zm18.68-24.17c-9.17.86-16.8,6.57-18.68,14.06a14.81,14.81,0,0,0-.45,3.63,16.15,16.15,0,0,0,.28,2.95,16.11,16.11,0,0,1,.71-2.23,18.37,18.37,0,0,1,4.16-6.19l0.09-.09a21.78,21.78,0,0,1,2.53-2.12,24.92,24.92,0,0,1,10.85-4.29,0.39,0.39,0,0,0,.34-0.36Z" transform="translate(-384.79 -159.48)" fill="#101212"/><path d="M411,187.32a0.63,0.63,0,0,1-.61-0.49,19.87,19.87,0,0,1-.48-4.37c0-12.39,11.31-22.49,25.76-23a1.41,1.41,0,0,1,1.13.53,1.36,1.36,0,0,1,.24,1.22l-2.9,10.17a1.78,1.78,0,0,1-1.69,1.3l-1.47,0a0.63,0.63,0,1,1-.07-1.25l1.52,0a0.54,0.54,0,0,0,.51-0.39l2.9-10.17a0.11,0.11,0,0,0,0-.11,0.11,0.11,0,0,0-.11,0c-13.77.48-24.55,10-24.55,21.74a18.6,18.6,0,0,0,.45,4.09,0.63,0.63,0,0,1-.47.75Z" transform="translate(-384.79 -159.48)" fill="#101212"/><path d="M417.94,222.25H389.62a4.83,4.83,0,0,1-3.87-7.72c5.31-7.16,14.82-12.79,26.09-15.45a0.63,0.63,0,1,1,.29,1.22c-11,2.59-20.23,8.05-25.37,15a3.58,3.58,0,0,0,2.86,5.73h28.33A0.62,0.62,0,0,1,417.94,222.25Z" transform="translate(-384.79 -159.48)" fill="#101212"/><path d="M465.2,222.25H421.14a2.69,2.69,0,0,1-2.21-1.24,2.64,2.64,0,0,1-.46-1.42,2.77,2.77,0,0,1,2.67-2.66h9.16a0.62,0.62,0,0,1,0,1.25h-9.16a1.53,1.53,0,0,0-1.42,1.41,1.41,1.41,0,0,0,.25.74,1.47,1.47,0,0,0,1.17.68H465.2a3.58,3.58,0,0,0,2.87-5.73c-5.14-6.92-14.36-12.37-25.31-15a0.62,0.62,0,0,1,.29-1.22c11.23,2.66,20.71,8.29,26,15.44A4.83,4.83,0,0,1,465.2,222.25Z" transform="translate(-384.79 -159.48)" fill="#101212"/><path d="M436.76,217.46a0.63,0.63,0,1,1,0-1.25c2.48,0,4.43-1,6.69-2.2a25.58,25.58,0,0,1,7.28-2.82,25,25,0,0,1,12.37,1.07,0.62,0.62,0,0,1-.45,1.17A21.21,21.21,0,0,0,444,215.12C441.72,216.33,439.54,217.46,436.76,217.46Z" transform="translate(-384.79 -159.48)" fill="#101212"/><path d="M417.25,217.46c-2.79,0-5-1.14-7.27-2.34a21.22,21.22,0,0,0-18.63-1.69,0.62,0.62,0,0,1-.45-1.17,25.08,25.08,0,0,1,12.37-1.07,25.58,25.58,0,0,1,7.28,2.82c2.26,1.18,4.21,2.2,6.69,2.2A0.62,0.62,0,0,1,417.25,217.46Z" transform="translate(-384.79 -159.48)" fill="#101212"/><path d="M427.29,209.7a9,9,0,0,1-6.34-2.58l-0.1-.09a0.63,0.63,0,0,1,.88-0.89l0.09,0.09a7.83,7.83,0,0,0,11-.09,0.62,0.62,0,1,1,.89.88A9,9,0,0,1,427.29,209.7Z" transform="translate(-384.79 -159.48)" fill="#101212"/><path d="M415.69,198.59a0.63,0.63,0,0,1-.44-1.06,6.1,6.1,0,0,1,8.57-.06l-0.38.5-0.44.44-0.06-.06a4.84,4.84,0,0,0-6.81.05A0.63,0.63,0,0,1,415.69,198.59Z" transform="translate(-384.79 -159.48)" fill="#101212"/><path d="M431.15,198.59a0.63,0.63,0,0,1-.44-1.06,6.09,6.09,0,0,1,8.57-.06,0.66,0.66,0,0,1,.05.9,0.59,0.59,0,0,1-.84.07l-0.06-.06a4.84,4.84,0,0,0-6.83,0A0.63,0.63,0,0,1,431.15,198.59Z" transform="translate(-384.79 -159.48)" fill="#101212"/></svg>