<svg xmlns="http://www.w3.org/2000/svg" viewBox="0 0 81.25 80.79"><title>type7</title><path d="M287,231.26h-4.44a1.57,1.57,0,0,1-1.51-2l17-62.93a5.24,5.24,0,0,1,5.06-3.88h5.16a3,3,0,0,1,2.89,2.22l1.15,4.33a0.62,0.62,0,0,1-1.21.32L309.89,165a1.75,1.75,0,0,0-1.69-1.3H303a4,4,0,0,0-3.85,3l-17,62.93a0.32,0.32,0,0,0,.31.4H287a0.32,0.32,0,0,0,.31-0.24l16.37-61.46a3,3,0,0,1,1.89-2.11,3,3,0,0,1,3.88,1.9l0.28,0.89a0.62,0.62,0,1,1-1.19.38l-0.28-.89a1.73,1.73,0,0,0-.63-0.88,1.76,1.76,0,0,0-1.63-.23,1.8,1.8,0,0,0-1.1,1.26l-16.37,61.45A1.57,1.57,0,0,1,287,231.26Z" transform="translate(-268.51 -150.47)" fill="#101212"/><path d="M281,209.51l-0.16,0a0.62,0.62,0,0,1-.44-0.76l4.76-17.89a0.63,0.63,0,1,1,1.21.32L281.64,209A0.63,0.63,0,0,1,281,209.51Z" transform="translate(-268.51 -150.47)" fill="#101212"/><path d="M286.67,188.35l-0.16,0a0.62,0.62,0,0,1-.44-0.76l5.14-19.31a3,3,0,0,1,5.74-.14l0.28,0.89a0.62,0.62,0,1,1-1.19.38l-0.28-.89a1.74,1.74,0,0,0-3.34.08l-5.14,19.31A0.63,0.63,0,0,1,286.67,188.35Z" transform="translate(-268.51 -150.47)" fill="#101212"/><path d="M274.52,231.26h-4.44a1.57,1.57,0,0,1-1.51-2l17-62.95a5.23,5.23,0,0,1,5-3.87h5.17a3,3,0,0,1,2.89,2.22l0.49,1.85a0.62,0.62,0,0,1-1.21.32L297.45,165a1.75,1.75,0,0,0-1.69-1.3H290.6a4,4,0,0,0-3.84,2.94l-17,62.95a0.32,0.32,0,0,0,.31.4h4.44a0.32,0.32,0,0,0,.31-0.24l4.67-17.65a0.62,0.62,0,1,1,1.21.31l-2.48,9.45L276,230.09A1.57,1.57,0,0,1,274.52,231.26Z" transform="translate(-268.51 -150.47)" fill="#101212"/><path d="M292.87,188.35H280.43a0.63,0.63,0,0,1,0-1.25h12.44A0.63,0.63,0,0,1,292.87,188.35Z" transform="translate(-268.51 -150.47)" fill="#101212"/><path d="M292,191.62H279.54a0.63,0.63,0,0,1,0-1.25H292A0.62,0.62,0,0,1,292,191.62Z" transform="translate(-268.51 -150.47)" fill="#101212"/><path d="M287.17,209.51H274.72a0.62,0.62,0,0,1,0-1.25h12.45A0.62,0.62,0,0,1,287.17,209.51Z" transform="translate(-268.51 -150.47)" fill="#101212"/><path d="M286.22,212.9H273.8a0.63,0.63,0,0,1,0-1.25h12.42A0.63,0.63,0,0,1,286.22,212.9Z" transform="translate(-268.51 -150.47)" fill="#101212"/><path d="M346.43,231.26h-6.26a5.24,5.24,0,0,1-4.53-2.69,6.63,6.63,0,0,0-1.15-1.43,16.86,16.86,0,0,0-7.17-3.61,31.3,31.3,0,0,0-7.63-1H319.3a30,30,0,0,0-6.58.7,17.48,17.48,0,0,0-7.19,3.19,7.31,7.31,0,0,0-1.8,2.08,5.26,5.26,0,0,1-4.58,2.77H293a3.34,3.34,0,0,1-3.33-3.33V221a0.63,0.63,0,1,1,1.25,0v6.9A2.09,2.09,0,0,0,293,230h6.2a4,4,0,0,0,3.48-2.12,8.55,8.55,0,0,1,2.1-2.44,18.7,18.7,0,0,1,7.71-3.44,31.29,31.29,0,0,1,6.86-.73h0.41a32.57,32.57,0,0,1,7.93,1.05,17.84,17.84,0,0,1,7.71,3.91,7.86,7.86,0,0,1,1.36,1.7,4,4,0,0,0,3.45,2.07h6.26a2.09,2.09,0,0,0,2.08-2.08V171.66a1.85,1.85,0,0,0-1.85-1.85H304.05a0.62,0.62,0,0,1,0-1.25h42.61a3.1,3.1,0,0,1,3.1,3.1v56.27A3.34,3.34,0,0,1,346.43,231.26Zm-4.06-11H290.61a0.63,0.63,0,0,1,0-1.25h51.76A0.63,0.63,0,0,1,342.36,220.3Zm0-3.44H291.52a0.62,0.62,0,0,1,0-1.25h50.84A0.63,0.63,0,0,1,342.36,216.86Zm-52.12-18.78a0.62,0.62,0,0,1-.62-0.62V191a0.63,0.63,0,1,1,1.25,0v6.46A0.62,0.62,0,0,1,290.25,198.08Zm0-9.73a0.62,0.62,0,0,1-.62-0.62V174.29a0.63,0.63,0,0,1,1.25,0v13.43A0.62,0.62,0,0,1,290.25,188.35Zm7.63-18.54h-6.27a0.62,0.62,0,0,1,0-1.25h6.27A0.63,0.63,0,0,1,297.88,169.81Z" transform="translate(-268.51 -150.47)" fill="#101212"/><path d="M349.14,181.12H301a0.63,0.63,0,0,1,0-1.25h47.47v-2.19H302a0.63,0.63,0,0,1,0-1.25h47.18a0.62,0.62,0,0,1,.63.63v3.44A0.62,0.62,0,0,1,349.14,181.12Z" transform="translate(-268.51 -150.47)" fill="#101212"/><path d="M294.83,181.12h-4.58a0.62,0.62,0,0,1-.62-0.62V177a0.62,0.62,0,0,1,.63-0.62h5.51a0.63,0.63,0,0,1,0,1.25h-4.88v2.19h4A0.63,0.63,0,0,1,294.83,181.12Z" transform="translate(-268.51 -150.47)" fill="#101212"/><path d="M305.14,220.3H290.61a0.63,0.63,0,0,1,0-1.25h14.53A0.62,0.62,0,0,1,305.14,220.3Z" transform="translate(-268.51 -150.47)" fill="#101212"/><path d="M305.14,216.86H291.52a0.62,0.62,0,0,1,0-1.25h13.62A0.62,0.62,0,0,1,305.14,216.86Z" transform="translate(-268.51 -150.47)" fill="#101212"/><path d="M349.14,220.3H312.58a0.63,0.63,0,0,1,0-1.25h35.93v-2.19H312.58a0.63,0.63,0,0,1,0-1.25h36.55a0.62,0.62,0,0,1,.63.63v3.44A0.62,0.62,0,0,1,349.14,220.3Z" transform="translate(-268.51 -150.47)" fill="#101212"/><path d="M342.36,215.27a0.62,0.62,0,0,1-.62-0.62V182.08a0.63,0.63,0,1,1,1.25,0v32.56A0.62,0.62,0,0,1,342.36,215.27Z" transform="translate(-268.51 -150.47)" fill="#101212"/><path d="M342.36,176.08a0.62,0.62,0,0,1-.62-0.62v-4.67a0.63,0.63,0,0,1,1.25,0v4.67A0.62,0.62,0,0,1,342.36,176.08Z" transform="translate(-268.51 -150.47)" fill="#101212"/><path d="M342.36,229.41a0.62,0.62,0,0,1-.62-0.62v-7.2a0.63,0.63,0,0,1,1.25,0v7.2A0.62,0.62,0,0,1,342.36,229.41Z" transform="translate(-268.51 -150.47)" fill="#101212"/><path d="M334.92,215.27a0.62,0.62,0,0,1-.62-0.62V182.08a0.63,0.63,0,1,1,1.25,0v32.56A0.62,0.62,0,0,1,334.92,215.27Z" transform="translate(-268.51 -150.47)" fill="#101212"/><path d="M334.92,176.08a0.62,0.62,0,0,1-.62-0.62v-4.67a0.63,0.63,0,0,1,1.25,0v4.67A0.62,0.62,0,0,1,334.92,176.08Z" transform="translate(-268.51 -150.47)" fill="#101212"/><path d="M334.92,225.39a0.62,0.62,0,0,1-.62-0.62v-3.19a0.63,0.63,0,0,1,1.25,0v3.19A0.62,0.62,0,0,1,334.92,225.39Z" transform="translate(-268.51 -150.47)" fill="#101212"/><path d="M327.47,215.27a0.62,0.62,0,0,1-.62-0.62V182.08a0.63,0.63,0,0,1,1.25,0v32.56A0.62,0.62,0,0,1,327.47,215.27Z" transform="translate(-268.51 -150.47)" fill="#101212"/><path d="M327.47,176.08a0.62,0.62,0,0,1-.62-0.62v-4.67a0.63,0.63,0,1,1,1.25,0v4.67A0.62,0.62,0,0,1,327.47,176.08Z" transform="translate(-268.51 -150.47)" fill="#101212"/><path d="M319.69,215.27a0.62,0.62,0,0,1-.62-0.62V182.08a0.63,0.63,0,0,1,1.25,0v32.56A0.62,0.62,0,0,1,319.69,215.27Z" transform="translate(-268.51 -150.47)" fill="#101212"/><path d="M319.69,176.08a0.62,0.62,0,0,1-.62-0.62v-4.67a0.63,0.63,0,1,1,1.25,0v4.67A0.62,0.62,0,0,1,319.69,176.08Z" transform="translate(-268.51 -150.47)" fill="#101212"/><path d="M312.58,176.08a0.62,0.62,0,0,1-.62-0.62v-4.67a0.63,0.63,0,1,1,1.25,0v4.67A0.62,0.62,0,0,1,312.58,176.08Z" transform="translate(-268.51 -150.47)" fill="#101212"/><path d="M312.58,215.27a0.62,0.62,0,0,1-.62-0.62V182.08a0.63,0.63,0,0,1,1.25,0v32.56A0.62,0.62,0,0,1,312.58,215.27Z" transform="translate(-268.51 -150.47)" fill="#101212"/><path d="M305.14,215.27a0.62,0.62,0,0,1-.62-0.62V182.08a0.62,0.62,0,1,1,1.25,0v32.56A0.62,0.62,0,0,1,305.14,215.27Z" transform="translate(-268.51 -150.47)" fill="#101212"/><path d="M305.14,176.08a0.62,0.62,0,0,1-.62-0.62v-4.67a0.62,0.62,0,1,1,1.25,0v4.67A0.62,0.62,0,0,1,305.14,176.08Z" transform="translate(-268.51 -150.47)" fill="#101212"/><path d="M305.14,224.88a0.62,0.62,0,0,1-.62-0.62v-2.68a0.62,0.62,0,1,1,1.25,0v2.68A0.62,0.62,0,0,1,305.14,224.88Z" transform="translate(-268.51 -150.47)" fill="#101212"/><path d="M297.69,229.41a0.62,0.62,0,0,1-.62-0.62v-7.2a0.62,0.62,0,1,1,1.25,0v7.2A0.62,0.62,0,0,1,297.69,229.41Z" transform="translate(-268.51 -150.47)" fill="#101212"/><path d="M297.69,170.5a0.62,0.62,0,0,1-.62-0.62v-0.69a0.62,0.62,0,1,1,1.25,0v0.69A0.62,0.62,0,0,1,297.69,170.5Z" transform="translate(-268.51 -150.47)" fill="#101212"/><path d="M297.69,215.27a0.62,0.62,0,0,1-.62-0.62V199.38a0.62,0.62,0,1,1,1.25,0v15.27A0.62,0.62,0,0,1,297.69,215.27Z" transform="translate(-268.51 -150.47)" fill="#101212"/><path d="M338,156.93h-7.15a0.62,0.62,0,0,1-.62-0.62v-1.75a2.84,2.84,0,0,1,2.84-2.84h16.06a0.62,0.62,0,0,1,.63.63v1.75a0.62,0.62,0,0,1-.62.63h-8.92a1.59,1.59,0,0,0-1.59,1.59A0.62,0.62,0,0,1,338,156.93Zm-6.52-1.25h6a2.84,2.84,0,0,1,2.77-2.21h8.29V153H333.07a1.59,1.59,0,0,0-1.59,1.59v1.13Z" transform="translate(-268.51 -150.47)" fill="#101212"/><path d="M349.14,165.47a0.62,0.62,0,0,1-.62-0.62V151.09a0.62,0.62,0,1,1,1.25,0v13.75A0.62,0.62,0,0,1,349.14,165.47Z" transform="translate(-268.51 -150.47)" fill="#101212"/><path d="M331.89,169.81a0.62,0.62,0,0,1-.62-0.62V156.3a0.63,0.63,0,1,1,1.25,0v12.88A0.62,0.62,0,0,1,331.89,169.81Z" transform="translate(-268.51 -150.47)" fill="#101212"/><path d="M336.84,169.81a0.62,0.62,0,0,1-.62-0.62V156.3a0.62,0.62,0,1,1,1.25,0v12.88A0.62,0.62,0,0,1,336.84,169.81Z" transform="translate(-268.51 -150.47)" fill="#101212"/><path d="M334.92,169.81a0.62,0.62,0,0,1-.62-0.62V156.92a0.63,0.63,0,0,1,1.25,0v12.27A0.62,0.62,0,0,1,334.92,169.81Z" transform="translate(-268.51 -150.47)" fill="#101212"/></svg>