<svg xmlns="http://www.w3.org/2000/svg" viewBox="0 0 81.25 82.04"><title>type16</title><path d="M387.47,468.43a0.63,0.63,0,0,1,0-1.25l79.9-.12h0a0.63,0.63,0,0,1,0,1.25l-79.9.12h0Z" transform="translate(-386.78 -386.39)" fill="#101212"/><path d="M387.47,468.43a0.63,0.63,0,0,1-.62-0.62c0-3.55,5.25-6.34,12-6.35,0.53,0,1,0,1.53,0a15.68,15.68,0,0,1,8.4,2.7,0.63,0.63,0,1,1-.77,1,14.43,14.43,0,0,0-7.7-2.44c-0.48,0-1,0-1.46,0-5.81,0-10.71,2.34-10.71,5.1a0.62,0.62,0,0,1-.62.63h0Z" transform="translate(-386.78 -386.39)" fill="#101212"/><path d="M406.54,468.4a0.63,0.63,0,0,1-.62-0.62,3.82,3.82,0,0,1,.72-2.21,5.85,5.85,0,0,1,1.32-1.37c2.18-1.72,5.88-2.76,9.88-2.77,0.55,0,1.1,0,1.61.05a15.67,15.67,0,0,1,8.36,2.69,6.12,6.12,0,0,1,1.43,1.55,3.89,3.89,0,0,1,.6,2,0.62,0.62,0,0,1-.62.63h0a0.63,0.63,0,0,1-.62-0.62,2.65,2.65,0,0,0-.42-1.37,4.88,4.88,0,0,0-1.14-1.22,14.45,14.45,0,0,0-7.68-2.43c-0.48,0-1,0-1.48-.05-3.77,0-7.17.95-9.15,2.51a4.65,4.65,0,0,0-1.05,1.09,2.61,2.61,0,0,0-.51,1.51,0.62,0.62,0,0,1-.62.63h0Z" transform="translate(-386.78 -386.39)" fill="#101212"/><path d="M417.83,461.25a0.63,0.63,0,0,1-.59-0.41,3.09,3.09,0,0,1-.18-1.05,3.68,3.68,0,0,1,1.11-2.53c1.73-1.85,5.26-3,9.23-3h0c3.95,0,7.47,1.14,9.21,3a3.66,3.66,0,0,1,1.1,2.52,3.08,3.08,0,0,1-.18,1.05,0.62,0.62,0,1,1-1.18-.42,1.81,1.81,0,0,0,.11-0.63,2.46,2.46,0,0,0-.76-1.67c-1.48-1.58-4.74-2.59-8.3-2.59h0c-3.58,0-6.84,1-8.32,2.62a2.44,2.44,0,0,0-.77,1.67,1.82,1.82,0,0,0,.11.63,0.63,0.63,0,0,1-.37.8A0.63,0.63,0,0,1,417.83,461.25Z" transform="translate(-386.78 -386.39)" fill="#101212"/><path d="M400.29,461.32a0.64,0.64,0,0,1-.59-0.41,3.19,3.19,0,0,1-.2-1.1c0-3.1,4.54-5.53,10.34-5.54h0c3.95,0,7.47,1.14,9.21,3a0.63,0.63,0,0,1-.91.86c-1.49-1.58-4.74-2.6-8.3-2.6h0c-4.93,0-9.09,2-9.09,4.29a1.94,1.94,0,0,0,.1.62A0.62,0.62,0,0,1,400.29,461.32Z" transform="translate(-386.78 -386.39)" fill="#101212"/><path d="M454.53,461.24a0.63,0.63,0,0,1-.57-0.9,1.92,1.92,0,0,0,.1-0.61c0-2.32-4.16-4.26-9.09-4.26-3.58,0-6.84,1-8.32,2.62a0.62,0.62,0,1,1-.91-0.85c1.73-1.85,5.27-3,9.23-3h0c5.78,0,10.31,2.42,10.32,5.51a3.19,3.19,0,0,1-.2,1.1A0.62,0.62,0,0,1,454.53,461.24Z" transform="translate(-386.78 -386.39)" fill="#101212"/><path d="M448.29,468.34a0.63,0.63,0,0,1-.62-0.62,2.6,2.6,0,0,0-.5-1.5,5,5,0,0,0-1.06-1.09c-2-1.55-5.39-2.48-9.13-2.48-0.53,0-1,0-1.51.05a14.39,14.39,0,0,0-7.67,2.45,0.62,0.62,0,1,1-.77-1,15.62,15.62,0,0,1,8.35-2.72c0.51,0,1-.06,1.57-0.06,4,0,7.74,1,9.93,2.74a6.21,6.21,0,0,1,1.31,1.37,3.82,3.82,0,0,1,.72,2.2,0.62,0.62,0,0,1-.62.63h0Z" transform="translate(-386.78 -386.39)" fill="#101212"/><path d="M467.37,468.31a0.63,0.63,0,0,1-.62-0.62c0-1.26-1.09-2.53-3-3.48a17.06,17.06,0,0,0-7.73-1.59c-0.5,0-1,0-1.46,0a14.42,14.42,0,0,0-7.69,2.46,0.62,0.62,0,0,1-.77-1,15.65,15.65,0,0,1,8.37-2.72c0.53,0,1,0,1.58-.05a18.83,18.83,0,0,1,8.26,1.73c2.36,1.19,3.67,2.82,3.67,4.59a0.62,0.62,0,0,1-.62.63h0Z" transform="translate(-386.78 -386.39)" fill="#101212"/><path d="M432.92,419.88a0.62,0.62,0,0,1-.62-0.62h0a0.62,0.62,0,0,1,.25-0.5c3.87-2.91,5.78-6.81,4.43-9.07a3.69,3.69,0,0,0-2.4-1.61c-2.54-.64-6.17.19-9.48,2.16-4.1,2.44-6.79,6.09-6.54,8.86a0.63,0.63,0,0,1-.57.68,0.62,0.62,0,0,1-.68-0.57c-0.3-3.29,2.57-7.32,7.14-10,3.58-2.14,7.57-3,10.43-2.3a5,5,0,0,1,3.17,2.18c1.7,2.85-.29,7.34-4.72,10.68A0.62,0.62,0,0,1,432.92,419.88Z" transform="translate(-386.78 -386.39)" fill="#101212"/><path d="M417.93,426.7a0.63,0.63,0,0,1-.21,0,7.43,7.43,0,0,1-4-3.07,3.69,3.69,0,0,1-.23-0.44,6.44,6.44,0,0,1-.6-3.25c0.29-4.46,4.29-9.61,10.2-13.14,5.06-3,10.72-4.29,14.75-3.31,0.29,0.07.55,0.15,0.81,0.23a0.63,0.63,0,1,1-.39,1.19c-0.24-.08-0.48-0.14-0.72-0.21-3.72-.9-9,0.31-13.81,3.17-5.48,3.27-9.34,8.15-9.59,12.14a5.23,5.23,0,0,0,.48,2.64,2.68,2.68,0,0,0,.17.32,6.2,6.2,0,0,0,3.39,2.54A0.63,0.63,0,0,1,417.93,426.7Z" transform="translate(-386.78 -386.39)" fill="#101212"/><path d="M433,424.21a0.62,0.62,0,0,1-.54-0.28,0.58,0.58,0,0,1,.16-0.83l0.1-.06c5.36-3.21,8.41-8.4,9.07-12.12a5.85,5.85,0,0,0-.19-3,3.76,3.76,0,0,0-.28-0.62,0.62,0.62,0,0,1,1.09-.61,5,5,0,0,1,.37.82,7.08,7.08,0,0,1,.24,3.6c-0.7,4-4,9.56-9.66,13A0.71,0.71,0,0,1,433,424.21Z" transform="translate(-386.78 -386.39)" fill="#101212"/><path d="M432.94,430.25a0.62,0.62,0,0,1-.21-1.21,15.23,15.23,0,0,0,2.55-1.21c6.32-3.77,10.28-13.15,9.08-18.18a0.63,0.63,0,0,1,1.22-.29c1.29,5.46-2.73,15.4-9.66,19.54a16.5,16.5,0,0,1-2.76,1.31A0.62,0.62,0,0,1,432.94,430.25Z" transform="translate(-386.78 -386.39)" fill="#101212"/><path d="M417.93,428.4a0.62,0.62,0,0,1-.36-0.11,11.77,11.77,0,0,1-3.38-3.54,12.8,12.8,0,0,1-.88-1.86,0.62,0.62,0,1,1,1.17-.43,11.78,11.78,0,0,0,.78,1.65,10.52,10.52,0,0,0,3,3.16A0.63,0.63,0,0,1,417.93,428.4Z" transform="translate(-386.78 -386.39)" fill="#101212"/><path d="M445,410.13a0.62,0.62,0,0,1-.32-1.16l22.14-13.22,0-7.64-28,16.72a0.62,0.62,0,1,1-.64-1.07l29-17.28a0.62,0.62,0,0,1,.95.53l0,9.09a0.63,0.63,0,0,1-.3.54L445.28,410A0.62,0.62,0,0,1,445,410.13Z" transform="translate(-386.78 -386.39)" fill="#101212"/><path d="M441.86,407.66a0.62,0.62,0,0,1-.32-1.16l25.54-15.19a0.62,0.62,0,1,1,.64,1.07l-25.54,15.19A0.62,0.62,0,0,1,441.86,407.66Z" transform="translate(-386.78 -386.39)" fill="#101212"/><path d="M433,454.4a0.63,0.63,0,0,1-.62-0.62l-0.05-34.53a0.62,0.62,0,0,1,.62-0.63h0a0.63,0.63,0,0,1,.63.62l0.05,34.53a0.62,0.62,0,0,1-.62.63h0Z" transform="translate(-386.78 -386.39)" fill="#101212"/><path d="M418,455.51a0.63,0.63,0,0,1-.62-0.62l-0.05-35.61a0.62,0.62,0,0,1,.62-0.63h0a0.63,0.63,0,0,1,.63.62l0.05,35.61a0.62,0.62,0,0,1-.62.63h0Z" transform="translate(-386.78 -386.39)" fill="#101212"/><path d="M417.91,419.91a0.64,0.64,0,0,1-.62-0.64c0-.87,1-1.62,2.85-2.23a20.65,20.65,0,0,1,5.89-.85,14.44,14.44,0,0,1,5.33.84c1.41,0.57,2.19,1.35,2.19,2.21a0.63,0.63,0,0,1-.62.63h0a0.62,0.62,0,0,1-.62-0.62c0-.13-0.26-0.59-1.41-1.06a13.5,13.5,0,0,0-4.85-.75c-4.28,0-7.31,1.29-7.5,1.85a0.61,0.61,0,0,1-.62.61h0Z" transform="translate(-386.78 -386.39)" fill="#101212"/><path d="M408.93,448.09a0.62,0.62,0,0,1-.53-1,13.47,13.47,0,0,0-4.49-18.51,10.66,10.66,0,0,0-14.64,3.55,8.4,8.4,0,0,0,2.8,11.54,6.59,6.59,0,0,0,9.06-2.19,5.15,5.15,0,0,0-1.71-7.08,4,4,0,0,0-5.49,1.33,3.07,3.07,0,0,0,1,4.22,0.62,0.62,0,1,1-.65,1.07,4.32,4.32,0,0,1-1.44-5.94,5.24,5.24,0,0,1,7.21-1.75,6.4,6.4,0,0,1,2.13,8.79,7.84,7.84,0,0,1-10.78,2.61,9.65,9.65,0,0,1-3.21-13.26,11.91,11.91,0,0,1,16.36-4,14.72,14.72,0,0,1,4.9,20.23A0.62,0.62,0,0,1,408.93,448.09Z" transform="translate(-386.78 -386.39)" fill="#101212"/><path d="M387.41,429.15a0.63,0.63,0,0,1-.53-1,13.29,13.29,0,0,1,18.24-4.42,0.62,0.62,0,0,1-.65,1.07,12,12,0,0,0-16.52,4A0.62,0.62,0,0,1,387.41,429.15Z" transform="translate(-386.78 -386.39)" fill="#101212"/><path d="M445.84,448a0.63,0.63,0,0,1-.53-0.3,14.72,14.72,0,0,1,4.84-20.25,11.9,11.9,0,0,1,16.37,3.91,9.65,9.65,0,0,1-3.17,13.27,7.85,7.85,0,0,1-10.79-2.58,6.41,6.41,0,0,1,2.1-8.8,5.25,5.25,0,0,1,7.21,1.73,4.32,4.32,0,0,1-1.42,5.94,0.63,0.63,0,1,1-.65-1.07,3.07,3.07,0,0,0,1-4.22,4,4,0,0,0-5.49-1.31,5.15,5.15,0,0,0-1.69,7.08,6.6,6.6,0,0,0,9.07,2.17,8.4,8.4,0,0,0,2.76-11.55,10.65,10.65,0,0,0-14.65-3.5,13.47,13.47,0,0,0-4.43,18.53A0.62,0.62,0,0,1,445.84,448Z" transform="translate(-386.78 -386.39)" fill="#101212"/><path d="M467.31,429a0.63,0.63,0,0,1-.53-0.3,12,12,0,0,0-16.53-4,0.63,0.63,0,0,1-.65-1.07,13.29,13.29,0,0,1,18.25,4.37A0.62,0.62,0,0,1,467.31,429Z" transform="translate(-386.78 -386.39)" fill="#101212"/><path d="M430.44,452a0.63,0.63,0,0,1-.62-0.62l0-31.64a0.62,0.62,0,0,1,.62-0.63h0a0.63,0.63,0,0,1,.63.62l0,31.64a0.62,0.62,0,0,1-.62.63h0Z" transform="translate(-386.78 -386.39)" fill="#101212"/></svg>