<svg xmlns="http://www.w3.org/2000/svg" viewBox="0 0 81.25 80.94"><title>type3</title><path d="M319.43,113.06H299.67a5,5,0,0,1-5-5,3.1,3.1,0,0,1,2.38-3,0.63,0.63,0,0,1,.29,1.22,1.86,1.86,0,0,0-1.43,1.81,3.78,3.78,0,0,0,3.77,3.77h19.76A3.78,3.78,0,0,0,323.2,108a1.87,1.87,0,0,0-1.21-1.75,0.63,0.63,0,1,1,.43-1.17,3.12,3.12,0,0,1,2,2.92A5,5,0,0,1,319.43,113.06Z" transform="translate(-268.51 -32.12)" fill="#101212"/><path d="M314.1,109.57h-0.29l-14.16-1.17a3.26,3.26,0,0,1-2.58-1.67l-6-10.82a2.8,2.8,0,0,1-.17-2.35l6.56-17.33a1.62,1.62,0,0,0,0-1l-0.68-2.31a2.87,2.87,0,0,1,.25-2.2l8.62-15.36A3,3,0,0,1,308,53.81l7.17-.81a3,3,0,0,1,3.11,1.83l3,7.15a1.64,1.64,0,0,0,.9.89L322.43,63a2.9,2.9,0,0,1,1.78,2.25l4.15,27.86a2.19,2.19,0,0,1-.18,1.24L323,105.57a3.28,3.28,0,0,1-1.86,1.7l-5.84,2.1A3.54,3.54,0,0,1,314.1,109.57Zm1.37-55.35h-0.2l-7.17.81a1.76,1.76,0,0,0-1.33.89L298.15,71.3a1.62,1.62,0,0,0-.14,1.24l0.68,2.31a2.87,2.87,0,0,1-.07,1.82L292.06,94a1.55,1.55,0,0,0,.09,1.3l6,10.82a2,2,0,0,0,1.59,1l14.16,1.17a2.27,2.27,0,0,0,1-.13l5.84-2.1a2,2,0,0,0,1.15-1.05L327,93.82a1,1,0,0,0,.08-0.54L323,65.43a1.64,1.64,0,0,0-1-1.28L321.66,64a2.9,2.9,0,0,1-1.59-1.57l-3-7.15A1.75,1.75,0,0,0,315.47,54.23Z" transform="translate(-268.51 -32.12)" fill="#101212"/><path d="M300.62,72.15a0.62,0.62,0,0,1-.3-1.18c0.06,0,5.83-3.15,8.77-6.21a24.28,24.28,0,0,0,4.54-7.44,0.63,0.63,0,0,1,1.18.43A25.13,25.13,0,0,1,310,65.64c-3.08,3.2-8.84,6.31-9.08,6.44A0.62,0.62,0,0,1,300.62,72.15Z" transform="translate(-268.51 -32.12)" fill="#101212"/><path d="M294.68,92.46a0.63,0.63,0,0,1-.33-1.16L300,87.83a43.1,43.1,0,0,0,11.94-10.91l6.4-8.55a0.63,0.63,0,0,1,1,.75l-6.4,8.55A44.35,44.35,0,0,1,300.64,88.9L295,92.37A0.62,0.62,0,0,1,294.68,92.46Z" transform="translate(-268.51 -32.12)" fill="#101212"/><path d="M298.8,104.06a0.63,0.63,0,0,1-.14-1.23l5-1.17a25.52,25.52,0,0,0,13.25-7.88l4.83-5.42a0.62,0.62,0,1,1,.93.83l-4.83,5.42a26.76,26.76,0,0,1-13.9,8.27l-5,1.17Z" transform="translate(-268.51 -32.12)" fill="#101212"/><path d="M313.07,105.45a0.63,0.63,0,0,1-.25-1.2,25,25,0,0,0,10.55-8.6l0.69-1a0.63,0.63,0,0,1,1,.72l-0.69,1a26.28,26.28,0,0,1-11.08,9A0.63,0.63,0,0,1,313.07,105.45Z" transform="translate(-268.51 -32.12)" fill="#101212"/><path d="M349.14,76.5h-18a0.63,0.63,0,0,1,0-1.25h18A0.62,0.62,0,0,1,349.14,76.5Z" transform="translate(-268.51 -32.12)" fill="#101212"/><path d="M330.43,61.32a0.62,0.62,0,0,1-.35-1.14l8.47-5.7a0.63,0.63,0,0,1,.7,1l-8.47,5.7A0.63,0.63,0,0,1,330.43,61.32Z" transform="translate(-268.51 -32.12)" fill="#101212"/><path d="M318.82,48.23a0.63,0.63,0,0,1-.58-0.86l6-14.86a0.62,0.62,0,0,1,1.16.47l-6,14.86A0.62,0.62,0,0,1,318.82,48.23Z" transform="translate(-268.51 -32.12)" fill="#101212"/><path d="M302.11,53a0.63,0.63,0,0,1-.59-0.42L294.68,33a0.63,0.63,0,0,1,1.18-.41l6.84,19.64A0.62,0.62,0,0,1,302.11,53Z" transform="translate(-268.51 -32.12)" fill="#101212"/><path d="M293.73,65a0.62,0.62,0,0,1-.37-0.12L283,57.35a0.63,0.63,0,1,1,.73-1l10.38,7.54A0.63,0.63,0,0,1,293.73,65Z" transform="translate(-268.51 -32.12)" fill="#101212"/><path d="M286.94,76.5H269.14a0.63,0.63,0,0,1,0-1.25h17.81A0.62,0.62,0,0,1,286.94,76.5Z" transform="translate(-268.51 -32.12)" fill="#101212"/><path d="M281.18,97.37a0.63,0.63,0,0,1-.38-1.12L289,90a0.63,0.63,0,0,1,.76,1l-8.21,6.23A0.62,0.62,0,0,1,281.18,97.37Z" transform="translate(-268.51 -32.12)" fill="#101212"/><path d="M339.57,98.2a0.62,0.62,0,0,1-.36-0.12l-9.14-6.53a0.62,0.62,0,0,1,.73-1l9.14,6.53A0.62,0.62,0,0,1,339.57,98.2Z" transform="translate(-268.51 -32.12)" fill="#101212"/></svg>