<svg xmlns="http://www.w3.org/2000/svg" viewBox="0 0 81.27 81.82"><title>type1</title><path d="M62.75,66.66a0.63,0.63,0,0,1-.15-1.23L64,65.1a0.39,0.39,0,0,0,.29-0.26,0.4,0.4,0,0,0-.07-0.38L55.79,54.14a2.25,2.25,0,0,1-.44-0.88L52.57,41.64a0.79,0.79,0,0,0-.94-0.58l-6,1.45a0.78,0.78,0,0,0-.58.94l2.79,11.6a2.68,2.68,0,0,1,0,1l-1.4,10.09a0.63,0.63,0,1,1-1.24-.17l1.4-10.09a1.42,1.42,0,0,0,0-.52L43.8,43.75a2,2,0,0,1,1.5-2.45l6-1.45a2,2,0,0,1,2.45,1.5L56.57,53a1,1,0,0,0,.19.39l8.38,10.32a1.65,1.65,0,0,1-.89,2.64l-1.35.32Z" transform="translate(-31.97 -31.68)" fill="#101212"/><path d="M71,113.5H34.46A2.5,2.5,0,0,1,32,111V67.9a2.5,2.5,0,0,1,2.5-2.5H71a2.5,2.5,0,0,1,2.5,2.5v33.23a0.62,0.62,0,1,1-1.25,0V67.9A1.25,1.25,0,0,0,71,66.66H34.46a1.25,1.25,0,0,0-1.25,1.25V111a1.25,1.25,0,0,0,1.25,1.25H71a1.24,1.24,0,0,0,.57-0.14,0.62,0.62,0,1,1,.57,1.11A2.48,2.48,0,0,1,71,113.5Z" transform="translate(-31.97 -31.68)" fill="#101212"/><path d="M55.24,50.7a0.62,0.62,0,0,1-.12-1.24L111.46,38a0.68,0.68,0,0,0,.41-0.31,0.69,0.69,0,0,0,.08-0.53l-0.89-3.69a0.69,0.69,0,0,0-.84-0.51L53.86,44.44a0.62,0.62,0,0,1-.25-1.22L110,31.73a1.94,1.94,0,0,1,2.32,1.44l0.89,3.69a1.95,1.95,0,0,1-1.44,2.35L55.36,50.69H55.24Z" transform="translate(-31.97 -31.68)" fill="#101212"/><path d="M103.91,113.5a0.62,0.62,0,0,1-.62-0.62,2.65,2.65,0,0,0-5.3,0,0.62,0.62,0,1,1-1.25,0,3.9,3.9,0,0,1,7.8,0A0.62,0.62,0,0,1,103.91,113.5Z" transform="translate(-31.97 -31.68)" fill="#101212"/><path d="M107.89,113.5a0.62,0.62,0,0,1-.62-0.62,6.63,6.63,0,0,0-13.26,0,0.62,0.62,0,1,1-1.25,0,7.88,7.88,0,0,1,15.76,0A0.62,0.62,0,0,1,107.89,113.5Z" transform="translate(-31.97 -31.68)" fill="#101212"/><path d="M112.61,113.5H88.68a0.62,0.62,0,0,1-.62-0.62,12.58,12.58,0,0,1,25.16-.16A0.63,0.63,0,0,1,112.61,113.5Zm-23.29-1.25H112A11.33,11.33,0,0,0,89.32,112.25Z" transform="translate(-31.97 -31.68)" fill="#101212"/><path d="M87.13,113.5H63.2a0.62,0.62,0,0,1-.62-0.62,12.58,12.58,0,0,1,25.16-.16A0.63,0.63,0,0,1,87.13,113.5Zm-23.29-1.25H86.47A11.33,11.33,0,0,0,63.84,112.25Z" transform="translate(-31.97 -31.68)" fill="#101212"/><path d="M78.43,113.5a0.62,0.62,0,0,1-.62-0.62,2.65,2.65,0,0,0-5.3,0,0.62,0.62,0,1,1-1.25,0,3.9,3.9,0,0,1,7.8,0A0.62,0.62,0,0,1,78.43,113.5Z" transform="translate(-31.97 -31.68)" fill="#101212"/><path d="M82.41,113.5a0.62,0.62,0,0,1-.62-0.62,6.63,6.63,0,0,0-13.25,0,0.62,0.62,0,1,1-1.25,0,7.88,7.88,0,0,1,15.75,0A0.62,0.62,0,0,1,82.41,113.5Z" transform="translate(-31.97 -31.68)" fill="#101212"/><path d="M87.9,94.21a3.9,3.9,0,0,1-3.9-3.9,0.62,0.62,0,1,1,1.25,0,2.65,2.65,0,0,0,5.3,0,0.62,0.62,0,1,1,1.25,0A3.9,3.9,0,0,1,87.9,94.21Z" transform="translate(-31.97 -31.68)" fill="#101212"/><path d="M87.9,98.19A7.89,7.89,0,0,1,80,90.31a0.63,0.63,0,1,1,1.25,0,6.63,6.63,0,0,0,13.26,0,0.62,0.62,0,1,1,1.25,0A7.89,7.89,0,0,1,87.9,98.19Z" transform="translate(-31.97 -31.68)" fill="#101212"/><path d="M87.9,102.89A12.6,12.6,0,0,1,75.32,90.31a0.62,0.62,0,0,1,.62-0.62H99.85a0.62,0.62,0,0,1,.63.63A12.6,12.6,0,0,1,87.9,102.89Zm-11.31-12a11.33,11.33,0,0,0,22.63,0H76.58Z" transform="translate(-31.97 -31.68)" fill="#101212"/><path d="M41,113.5a0.62,0.62,0,0,1-.57-0.37c-3.39-7.67-1.61-15,.12-22.15,0.65-2.69,1.33-5.47,1.73-8.26a34.94,34.94,0,0,0-2-16.48,0.62,0.62,0,1,1,1.18-.41,36.17,36.17,0,0,1,2,17.07c-0.41,2.85-1.1,5.66-1.76,8.37-1.76,7.23-3.42,14.07-.2,21.35A0.63,0.63,0,0,1,41,113.5Z" transform="translate(-31.97 -31.68)" fill="#101212"/><path d="M34,83.25A5.42,5.42,0,0,1,32.41,83a0.62,0.62,0,0,1,.36-1.2,2.42,2.42,0,0,0,2.65-.37c2.49-2.6,0-12.7-.84-15.18a0.62,0.62,0,0,1,1.18-.42c0.73,2,3.75,13.13.57,16.46A3.1,3.1,0,0,1,34,83.25Z" transform="translate(-31.97 -31.68)" fill="#101212"/><path d="M47.71,113.5a0.62,0.62,0,0,1-.55-0.33,11.27,11.27,0,0,1-.95-2.33c-0.17-.62-0.3-1.26-0.39-1.8-1.16-6.33-.86-11.48.9-15.76,2-4.79,6.62-7.07,12.12-5.93,3.49,0.72,6.31,2.56,9,4.35a40.34,40.34,0,0,0,5.3,3.1,0.63,0.63,0,0,1-.52,1.14,41.33,41.33,0,0,1-5.47-3.19c-2.74-1.8-5.33-3.5-8.59-4.17-5-1-9,.92-10.71,5.18-1.67,4-1.94,9-.83,15.06,0.09,0.51.21,1.11,0.37,1.68a10,10,0,0,0,.84,2.07A0.62,0.62,0,0,1,47.71,113.5Z" transform="translate(-31.97 -31.68)" fill="#101212"/><path d="M54.12,113.5a0.63,0.63,0,0,1-.59-0.41c-1.1-3-2.16-6.43-1.62-9.62,0.34-2,1.22-3.33,2.63-3.92,3.34-1.41,8.68,1.87,12.41,4.46a0.62,0.62,0,0,1-.71,1c-2-1.39-8.11-5.64-11.21-4.33-1,.42-1.61,1.39-1.88,3-0.49,2.9.51,6.16,1.56,9A0.62,0.62,0,0,1,54.12,113.5Z" transform="translate(-31.97 -31.68)" fill="#101212"/><path d="M72.91,86.88a0.62,0.62,0,0,1-.36-0.12,47.75,47.75,0,0,0-5.94-3.43,39.84,39.84,0,0,1-7.39-4.51,22.68,22.68,0,0,1-8.11-12.67,0.62,0.62,0,1,1,1.22-.26,21.7,21.7,0,0,0,7.69,12,38.92,38.92,0,0,0,7.16,4.36,48.61,48.61,0,0,1,6.1,3.52A0.62,0.62,0,0,1,72.91,86.88Z" transform="translate(-31.97 -31.68)" fill="#101212"/></svg>