<?xml version="1.0" encoding="UTF-8" standalone="no"?>
<svg
   xmlns:dc="http://purl.org/dc/elements/1.1/"
   xmlns:cc="http://creativecommons.org/ns#"
   xmlns:rdf="http://www.w3.org/1999/02/22-rdf-syntax-ns#"
   xmlns:svg="http://www.w3.org/2000/svg"
   xmlns="http://www.w3.org/2000/svg"
   viewBox="0 0 124.03733 21.096399"
   height="21.096399"
   width="124.03733"
   xml:space="preserve"
   id="svg2"
   version="1.1"><metadata
     id="metadata8"><rdf:RDF><cc:Work
         rdf:about=""><dc:format>image/svg+xml</dc:format><dc:type
           rdf:resource="http://purl.org/dc/dcmitype/StillImage" /></cc:Work></rdf:RDF></metadata><defs
     id="defs6"><clipPath
       id="clipPath18"
       clipPathUnits="userSpaceOnUse"><path
         id="path16"
         d="M 0,15.822 H 93.028 V 0 H 0 Z" /></clipPath></defs><g
     transform="matrix(1.3333333,0,0,-1.3333333,0,21.0964)"
     id="g10"><g
       id="g12"><g
         clip-path="url(#clipPath18)"
         id="g14"><g
           transform="translate(14.7056,15.6108)"
           id="g20"><path
             id="path22"
             style="fill:#fdcd35;fill-opacity:1;fill-rule:nonzero;stroke:none"
             d="m 0,0 c 0.736,-0.368 7.645,-5.872 7.645,-7.709 0,-1.946 -5.866,-6.392 -7.334,-7.437 -0.249,-0.176 -1.188,-0.465 -1.188,-0.465 0,0 4.027,5.685 4.028,7.902 0.001,2.222 -4.028,7.92 -4.028,7.92 0,0 0.585,-0.065 0.877,-0.211" /></g><g
           transform="translate(6.0103,7.3062)"
           id="g24"><path
             id="path26"
             style="fill:#151616;fill-opacity:1;fill-rule:nonzero;stroke:none"
             d="m 0,0 h -3.749 v -4.226 h 3.432 c 1.547,0 3.193,0.179 3.193,2.103 C 2.876,-0.278 1.25,0 0,0 M -0.376,5.713 H -3.749 V 1.924 l 3.69,-0.02 c 1.309,0 2.38,0.556 2.38,1.905 0,1.388 -1.031,1.904 -2.697,1.904 m 0.237,1.964 C 2.757,7.677 4.622,6.526 4.622,4.165 4.622,2.479 3.61,1.487 2.44,1.11 3.69,0.754 5.178,-0.198 5.178,-2.36 c 0,-3.155 -3.075,-3.849 -5.277,-3.849 H -6.01 V 7.677 Z" /></g><g
           transform="translate(35.6001,15.2407)"
           id="g28"><path
             id="path30"
             style="fill:#151616;fill-opacity:1;fill-rule:nonzero;stroke:none"
             d="m 0,0 c 1.389,0 2.757,-0.317 3.947,-0.913 v -2.201 c -0.971,0.674 -2.261,1.031 -3.57,1.031 -2.658,0 -5.416,-1.567 -5.435,-5.236 0,-3.412 2.817,-4.999 5.475,-4.999 1.428,0 2.717,0.377 3.63,1.071 v -2.242 c -1.171,-0.575 -2.559,-0.912 -4.027,-0.912 -3.59,0 -7.399,2.34 -7.379,7.082 C -7.359,-2.381 -3.65,0 0,0" /></g><g
           transform="translate(44.5156,6.0757)"
           id="g32"><path
             id="path34"
             style="fill:#151616;fill-opacity:1;fill-rule:nonzero;stroke:none"
             d="M 0,0 H 5.396 L 2.956,5.932 C 2.876,6.149 2.797,6.368 2.697,6.705 2.598,6.368 2.519,6.149 2.439,5.932 Z M -4.404,-4.979 1.468,8.907 H 3.947 L 9.798,-4.979 h -2.38 l -1.23,2.996 h -6.962 l -1.23,-2.996 z" /></g><g
           transform="translate(57.1187,0.8394)"
           id="g36"><path
             id="path38"
             style="fill:#151616;fill-opacity:1;fill-rule:nonzero;stroke:none"
             d="M 0,0 C -0.635,0 -1.329,0.119 -1.983,0.317 V 2.32 c 0.475,-0.158 1.051,-0.257 1.606,-0.257 1.15,0 1.904,0.436 2.46,1.547 l 0.258,0.516 -5.634,10.018 h 2.52 l 4.264,-7.935 3.551,7.935 h 2.46 L 4.464,3.412 C 3.233,0.773 1.646,0 0,0" /></g><g
           transform="translate(79.4438,14.9829)"
           id="g40"><path
             id="path42"
             style="fill:#151616;fill-opacity:1;fill-rule:nonzero;stroke:none"
             d="m 0,0 v -13.886 h -2.261 v 5.911 h -7.32 v -5.911 h -2.261 V 0 h 2.261 v -5.892 h 7.32 V 0 Z" /></g><g
           transform="translate(83.5259,0.8394)"
           id="g44"><path
             id="path46"
             style="fill:#151616;fill-opacity:1;fill-rule:nonzero;stroke:none"
             d="M 0,0 C -0.635,0 -1.328,0.119 -1.983,0.317 V 2.32 c 0.476,-0.158 1.051,-0.257 1.606,-0.257 1.151,0 1.904,0.436 2.46,1.547 l 0.258,0.516 -5.633,10.018 h 2.519 l 4.264,-7.935 3.551,7.935 h 2.46 L 4.464,3.412 C 3.233,0.773 1.646,0 0,0" /></g></g></g></g></svg>